<svg width="48" height="48" viewBox="0 0 48 48" fill="none" xmlns="http://www.w3.org/2000/svg">
<path d="M20.9798 4.45987L10.9998 8.19986C8.69982 9.05986 6.81982 11.7798 6.81982 14.2398V29.0998C6.81982 31.4598 8.37985 34.5598 10.2798 35.9798L18.8798 42.3999C21.6998 44.5199 26.3398 44.5199 29.1598 42.3999L37.7598 35.9798C39.6598 34.5598 41.2198 31.4598 41.2198 29.0998V14.2398C41.2198 11.7798 39.3398 9.05986 37.0398 8.19986L27.0598 4.45987C25.3598 3.83987 22.6398 3.83987 20.9798 4.45987Z" stroke="white" stroke-width="3" stroke-linecap="round" stroke-linejoin="round"/>
<path d="M24.0004 21.8398C23.9204 21.8398 23.8204 21.8398 23.7404 21.8398C21.8604 21.7798 20.3604 20.2198 20.3604 18.3198C20.3604 16.3798 21.9404 14.7998 23.8804 14.7998C25.8204 14.7998 27.4004 16.3798 27.4004 18.3198C27.3804 20.2398 25.8804 21.7798 24.0004 21.8398Z" stroke="white" stroke-width="3" stroke-linecap="round" stroke-linejoin="round"/>
<path d="M20.0201 27.44C18.1001 28.72 18.1001 30.8199 20.0201 32.0999C22.2001 33.5599 25.7801 33.5599 27.9601 32.0999C29.8801 30.8199 29.8801 28.72 27.9601 27.44C25.8001 25.98 22.2201 25.98 20.0201 27.44Z" stroke="white" stroke-width="3" stroke-linecap="round" stroke-linejoin="round"/>
</svg>
