<svg width="48" height="48" viewBox="0 0 48 48" fill="none" xmlns="http://www.w3.org/2000/svg">
<path d="M41.1798 21.0999V14.2399C41.1798 11.7799 39.2998 9.05987 36.9998 8.19987L27.0198 4.45987C25.3598 3.83987 22.6398 3.83987 20.9798 4.45987L10.9998 8.21987C8.69982 9.07987 6.81982 11.7999 6.81982 14.2399V29.0999C6.81982 31.4599 8.37982 34.5599 10.2798 35.9799L18.8798 42.3999C20.2798 43.4799 22.1398 43.9999 23.9998 43.9999" stroke="white" stroke-width="3" stroke-linecap="round" stroke-linejoin="round"/>
<path d="M32 40C36.4183 40 40 36.4183 40 32C40 27.5817 36.4183 24 32 24C27.5817 24 24 27.5817 24 32C24 36.4183 27.5817 40 32 40Z" stroke="white" stroke-width="3" stroke-linecap="round" stroke-linejoin="round"/>
<path d="M41.991 42H42.009" stroke="white" stroke-width="4" stroke-linecap="round" stroke-linejoin="round"/>
</svg>
