<svg width="32" height="32" viewBox="0 0 32 32" fill="none" xmlns="http://www.w3.org/2000/svg">
<circle cx="16" cy="16" r="16" fill="#8DA2A5"/>
<path d="M22.3553 12.741C22.3655 12.8831 22.3655 13.0253 22.3655 13.1674C22.3655 17.5024 19.066 22.4973 13.0355 22.4973C11.1777 22.4973 9.45178 21.9593 8 21.0253C8.26397 21.0557 8.51775 21.0659 8.79187 21.0659C10.3248 21.0659 11.736 20.5481 12.8629 19.6649C11.4213 19.6344 10.2132 18.6903 9.79694 17.3908C10 17.4212 10.203 17.4415 10.4162 17.4415C10.7107 17.4415 11.0051 17.4009 11.2792 17.3298C9.77666 17.0253 8.64972 15.7055 8.64972 14.1116V14.071C9.08625 14.3146 9.59391 14.4669 10.1319 14.4872C9.24869 13.8983 8.67003 12.8933 8.67003 11.7562C8.67003 11.1471 8.83244 10.5887 9.11672 10.1014C10.7309 12.0913 13.1573 13.3907 15.8781 13.5329C15.8274 13.2892 15.7969 13.0354 15.7969 12.7816C15.7969 10.9745 17.2588 9.50244 19.0761 9.50244C20.0202 9.50244 20.873 9.89838 21.472 10.538C22.2131 10.3958 22.9238 10.1217 23.5532 9.7461C23.3096 10.5075 22.7918 11.1471 22.1116 11.5532C22.7715 11.4822 23.4111 11.2994 23.9999 11.0456C23.5533 11.6953 22.9949 12.274 22.3553 12.741Z" fill="#09363F"/>
</svg>
