<svg width="442" height="517" viewBox="0 0 442 517" fill="none" xmlns="http://www.w3.org/2000/svg">
<path d="M37.8968 435.397L48.8447 438.54L54.8234 427.629C57.4584 427.903 60.1119 427.954 62.7555 427.782L68.3388 438.882L79.3921 436.122L79.1047 423.688C81.5176 422.601 83.8364 421.316 86.0377 419.847L96.4372 426.677L104.63 418.769L98.1797 408.151C99.7259 405.999 101.089 403.721 102.255 401.341L114.674 402.056L117.814 391.108L106.905 385.132C107.178 382.497 107.229 379.843 107.058 377.2L118.156 371.614L115.402 360.563L102.964 360.843C101.877 358.429 100.591 356.111 99.1208 353.91L105.951 343.51L98.0426 335.317L87.4243 341.768C85.2743 340.22 82.9974 338.857 80.6179 337.692L81.3322 325.273L70.3844 322.134L64.4136 333.05C61.7777 332.776 59.1234 332.724 56.4789 332.897L50.8982 321.788L39.8476 324.541L40.1112 336.98C37.6989 338.067 35.3808 339.352 33.1808 340.821L22.7786 333.991L14.5856 341.899L21.0388 352.518C19.4909 354.669 18.1267 356.947 16.9607 359.327L4.55249 358.62L1.41286 369.568L12.3211 375.544C12.0494 378.18 11.9982 380.834 12.1682 383.479L1.07544 389.057L3.83019 400.108L16.2701 399.828C17.3556 402.242 18.6403 404.561 20.1109 406.761L13.2807 417.161L21.1891 425.354L31.8074 418.903C33.958 420.452 36.2358 421.815 38.6165 422.979L37.8968 435.397ZM31.4357 372.249C33.0348 366.675 36.2508 361.701 40.6771 357.955C45.1034 354.209 50.5411 351.859 56.3026 351.204C62.0641 350.548 67.8906 351.615 73.0454 354.271C78.2002 356.927 82.4518 361.052 85.2624 366.124C88.0731 371.196 89.3166 376.987 88.8357 382.766C88.3549 388.544 86.1712 394.051 82.561 398.589C78.9507 403.126 74.0759 406.492 68.5531 408.259C63.0303 410.026 57.1074 410.116 51.5335 408.517C47.8322 407.456 44.3763 405.675 41.3631 403.278C38.3499 400.881 35.8384 397.914 33.9721 394.546C32.1058 391.178 30.9212 387.476 30.486 383.65C30.0508 379.824 30.3735 375.95 31.4357 372.249Z" fill="url(#paint0_linear_17_124)"/>
<path d="M67.8525 439.113C67.7432 439.114 67.6358 439.085 67.5425 439.028C67.4493 438.971 67.3739 438.889 67.3253 438.791L61.9133 428.036C59.4942 428.172 57.0682 428.125 54.6561 427.896L48.8566 438.467C48.7933 438.583 48.6921 438.674 48.5698 438.725C48.4475 438.776 48.3115 438.783 48.1844 438.746L37.2366 435.607C37.1094 435.57 36.9983 435.492 36.9217 435.384C36.845 435.276 36.8073 435.146 36.8148 435.013L37.5081 422.98C35.341 421.894 33.2588 420.647 31.2789 419.249L20.998 425.502C20.8846 425.57 20.7515 425.598 20.6203 425.581C20.4891 425.564 20.3677 425.503 20.2757 425.407L12.3674 417.214C12.2753 417.119 12.2183 416.996 12.2059 416.864C12.1934 416.732 12.2262 416.6 12.2988 416.489L18.9181 406.409C17.5907 404.391 16.4161 402.276 15.4042 400.082L3.34918 400.346C3.21595 400.352 3.08492 400.31 2.97894 400.229C2.87295 400.149 2.79873 400.033 2.76923 399.903L0.0171112 388.847C-0.0147702 388.718 -0.00184543 388.583 0.0537473 388.462C0.10934 388.342 0.204279 388.244 0.322903 388.185L11.0783 382.776C10.9395 380.356 10.9862 377.929 11.218 375.516L0.647149 369.717C0.531021 369.653 0.439893 369.552 0.388661 369.43C0.337428 369.308 0.329117 369.172 0.365082 369.044L3.50735 358.097C3.53954 357.967 3.61704 357.853 3.72583 357.776C3.83463 357.699 3.96753 357.663 4.10047 357.675L16.1344 358.366C17.2183 356.198 18.4653 354.115 19.8645 352.136L13.6116 341.855C13.5425 341.742 13.5142 341.609 13.5315 341.478C13.5488 341.346 13.6105 341.225 13.7065 341.133L21.8996 333.225C21.9949 333.133 22.1185 333.076 22.2501 333.064C22.3817 333.052 22.5137 333.084 22.6245 333.156L32.7024 339.776C34.7262 338.448 36.8462 337.273 39.0449 336.262L38.7813 324.207C38.7791 324.075 38.8217 323.946 38.9021 323.841C38.9825 323.736 39.0961 323.661 39.2242 323.629L50.2748 320.875C50.4035 320.843 50.5392 320.855 50.6598 320.91C50.7803 320.965 50.8788 321.06 50.9391 321.178L56.3485 331.933C58.7685 331.797 61.1953 331.844 63.6083 332.073L69.4078 321.502C69.4711 321.386 69.5723 321.294 69.6946 321.244C69.8169 321.193 69.9529 321.185 70.08 321.223L81.0279 324.362C81.1555 324.399 81.2669 324.477 81.3436 324.586C81.4203 324.694 81.4577 324.825 81.4496 324.958L80.7563 336.992C82.9242 338.075 85.0066 339.321 86.9855 340.719L97.2664 334.469C97.3796 334.399 97.5133 334.371 97.6451 334.387C97.777 334.404 97.8991 334.466 97.9913 334.561L105.9 342.754C105.991 342.85 106.047 342.974 106.059 343.105C106.071 343.237 106.038 343.369 105.966 343.479L99.3489 353.56C100.679 355.581 101.856 357.698 102.871 359.894L114.923 359.631H114.936C115.067 359.631 115.193 359.674 115.296 359.754C115.399 359.835 115.472 359.947 115.503 360.074L118.258 371.124C118.29 371.253 118.277 371.388 118.222 371.508C118.167 371.629 118.073 371.727 117.955 371.786L107.199 377.198C107.336 379.617 107.288 382.043 107.057 384.455L117.63 390.255C117.747 390.319 117.838 390.421 117.888 390.543C117.939 390.666 117.947 390.802 117.91 390.93L114.77 401.875C114.735 402.003 114.656 402.115 114.547 402.192C114.439 402.269 114.307 402.306 114.174 402.297L102.141 401.606C101.049 403.771 99.7946 405.851 98.3894 407.827L104.64 418.108C104.709 418.221 104.737 418.354 104.72 418.485C104.703 418.617 104.642 418.738 104.547 418.83L96.3543 426.739C96.2586 426.831 96.1345 426.887 96.0024 426.9C95.8703 426.912 95.7379 426.88 95.6267 426.807L85.5488 420.188C83.5257 421.515 81.4065 422.69 79.2089 423.702L79.4725 435.757C79.4744 435.889 79.4317 436.018 79.3514 436.123C79.2711 436.229 79.1578 436.304 79.0297 436.337L67.979 439.089C67.938 439.102 67.8955 439.11 67.8525 439.113ZM62.2745 426.847C62.3835 426.846 62.4906 426.876 62.5837 426.933C62.6768 426.99 62.7523 427.071 62.8017 427.168L68.1768 437.85L78.3206 435.322L78.0569 423.349C78.0544 423.234 78.0855 423.121 78.1464 423.024C78.2074 422.927 78.2954 422.85 78.3996 422.803C80.7851 421.73 83.0775 420.461 85.2536 419.01C85.3487 418.946 85.4606 418.912 85.5752 418.912C85.6897 418.912 85.8017 418.946 85.8968 419.01L95.914 425.584L103.438 418.319L97.2031 408.091C97.1429 407.993 97.113 407.879 97.1172 407.764C97.1214 407.649 97.1596 407.538 97.2269 407.445C98.7549 405.321 100.101 403.072 101.252 400.723C101.301 400.618 101.38 400.53 101.48 400.472C101.58 400.413 101.696 400.387 101.811 400.396L113.763 401.084L116.647 391.032L106.147 385.28C106.047 385.225 105.965 385.141 105.911 385.04C105.858 384.938 105.835 384.823 105.847 384.708C106.115 382.106 106.165 379.485 105.997 376.874C105.99 376.76 106.016 376.646 106.073 376.546C106.129 376.447 106.214 376.366 106.316 376.315L117 370.94L114.47 360.793L102.499 361.057C102.384 361.062 102.271 361.031 102.173 360.97C102.076 360.909 101.999 360.82 101.953 360.714C100.879 358.329 99.6097 356.036 98.1574 353.86C98.0942 353.765 98.0606 353.653 98.0606 353.539C98.0606 353.424 98.0942 353.313 98.1574 353.217L104.732 343.2L97.4667 335.703L87.2465 341.924C87.1488 341.984 87.0357 342.013 86.9213 342.009C86.8069 342.005 86.6963 341.967 86.6033 341.9C84.4792 340.371 82.2296 339.025 79.8785 337.875C79.7756 337.824 79.6899 337.744 79.6323 337.644C79.5746 337.545 79.5475 337.431 79.5543 337.316L80.2423 325.364L70.1828 322.467L64.4387 332.961C64.3837 333.062 64.3 333.145 64.1982 333.198C64.0964 333.251 63.981 333.274 63.8667 333.262C61.264 332.992 58.6432 332.942 56.0321 333.111C55.9171 333.12 55.802 333.095 55.7018 333.037C55.6017 332.98 55.5211 332.894 55.4706 332.79L50.0982 322.108L39.9518 324.636L40.2154 336.61C40.2177 336.724 40.1862 336.837 40.1248 336.934C40.0634 337.031 39.9748 337.108 39.87 337.155C37.4848 338.229 35.1924 339.498 33.0161 340.949C32.9205 341.012 32.8081 341.046 32.6932 341.046C32.5783 341.046 32.4659 341.012 32.3703 340.949L22.353 334.377L14.8506 341.66L21.0613 351.878C21.1205 351.976 21.1495 352.09 21.1449 352.205C21.1402 352.32 21.102 352.431 21.0349 352.524C19.5084 354.649 18.1619 356.897 17.0096 359.246C16.9602 359.35 16.8808 359.437 16.7817 359.495C16.6825 359.553 16.5681 359.58 16.4534 359.573L4.49852 358.885L1.61724 368.936L12.1169 374.688C12.2176 374.744 12.2999 374.827 12.3533 374.929C12.4067 375.031 12.429 375.146 12.4174 375.26C12.1472 377.863 12.0961 380.484 12.2646 383.095C12.2729 383.209 12.2469 383.323 12.1901 383.423C12.1333 383.522 12.0482 383.603 11.9456 383.654L1.264 389.029L3.79204 399.175L15.7653 398.912C15.88 398.909 15.993 398.939 16.0901 399C16.1873 399.061 16.2641 399.15 16.311 399.254C17.3832 401.64 18.652 403.933 20.1044 406.108C20.1675 406.204 20.2012 406.316 20.2012 406.43C20.2012 406.544 20.1675 406.656 20.1044 406.752L13.5299 416.769L20.7924 424.29L31.0127 418.082C31.1106 418.022 31.2239 417.993 31.3382 417.998C31.4526 418.003 31.5631 418.041 31.6559 418.108C33.7812 419.635 36.0306 420.982 38.3806 422.133C38.4838 422.183 38.5697 422.263 38.6275 422.362C38.6852 422.461 38.7122 422.575 38.7049 422.69L38.0221 434.613L48.0737 437.497L53.8389 426.997C53.8927 426.896 53.9757 426.813 54.0773 426.759C54.1788 426.705 54.2942 426.684 54.4083 426.696C57.0109 426.967 59.6317 427.017 62.2428 426.847H62.2745ZM59.1111 409.889C52.8409 409.887 46.73 407.914 41.6422 404.249C36.5545 400.584 32.7474 395.413 30.7592 389.466C28.7711 383.52 28.7024 377.099 30.563 371.111C32.4235 365.123 36.1192 359.872 41.1274 356.099C46.1356 352.326 52.203 350.223 58.4717 350.087C64.7404 349.951 70.8933 351.789 76.0604 355.341C81.2276 358.893 85.1475 363.979 87.266 369.881C89.3845 375.782 89.5944 382.2 87.866 388.228C86.0794 394.473 82.306 399.966 77.1173 403.875C71.9285 407.784 65.6073 409.895 59.1111 409.889ZM30.9494 371.897L31.5083 372.058C29.6727 378.446 30.109 385.274 32.7428 391.377C35.3767 397.48 40.0451 402.482 45.9528 405.529C51.8605 408.576 58.642 409.481 65.1419 408.089C71.6418 406.697 77.458 403.094 81.5996 397.895C85.7413 392.695 87.9521 386.221 87.8555 379.574C87.7589 372.928 85.3608 366.52 81.0698 361.444C76.7788 356.367 70.8603 352.935 64.3227 351.732C57.785 350.53 51.0327 351.631 45.2161 354.849C41.9071 356.669 38.9919 359.127 36.639 362.081C34.286 365.034 32.5422 368.425 31.5083 372.058L30.9494 371.897Z" fill="#0D4C59"/>
<path d="M116.905 357.838C105.833 373.178 97.3821 399.402 90.9315 429.897C90.5071 431.905 80.0414 510.886 82.0001 511.5C122.842 524.338 122.584 509.75 150 511.5C156.917 511.94 171.218 512.075 191.5 511.5C187.77 520.435 222 511.5 219.434 490.874C216.919 444.742 211.561 377.237 211.561 377.237L116.905 357.838Z" fill="url(#paint1_linear_17_124)"/>
<path d="M37.9671 308.429L44.3649 310.275L47.8578 303.901C49.3974 304.059 50.9475 304.089 52.4921 303.99L55.7556 310.475L62.2141 308.867L62.0507 301.597C63.461 300.961 64.8162 300.21 66.1024 299.351L72.1813 303.344L76.9685 298.721L73.1989 292.515C74.1009 291.259 74.8946 289.928 75.5714 288.537L82.8365 288.938L84.6818 282.54L78.305 279.047C78.465 277.508 78.495 275.958 78.3947 274.413L84.8822 271.149L83.2715 264.691L76.0011 264.852C75.366 263.443 74.6157 262.088 73.7577 260.803L77.7488 254.724L73.125 249.937L66.9196 253.706C65.6625 252.805 64.3319 252.012 62.9417 251.334L63.3608 244.076L56.963 242.231L53.4622 248.605C51.9219 248.444 50.3706 248.414 48.8253 248.516L45.5617 242.028L39.1032 243.639L39.2667 250.907C37.8563 251.542 36.5011 252.293 35.2149 253.153L29.1387 249.162L24.3488 253.785L28.1185 259.988C27.218 261.246 26.4244 262.578 25.746 263.969L18.4887 263.549L16.6435 269.947L23.0176 273.44C22.8576 274.981 22.8276 276.532 22.928 278.077L16.4431 281.341L18.0511 287.799L25.3216 287.636C25.9561 289.046 26.7064 290.401 27.5649 291.687L23.5738 297.751L28.1976 302.54L34.403 298.768C35.6595 299.67 36.9902 300.464 38.3809 301.141L37.9671 308.429ZM34.1895 271.524C35.1239 268.266 37.0034 265.359 39.5903 263.169C42.1772 260.98 45.3552 259.607 48.7225 259.223C52.0898 258.84 55.4951 259.464 58.5078 261.016C61.5205 262.568 64.0053 264.979 65.6479 267.943C67.2904 270.908 68.0171 274.293 67.7358 277.67C67.4546 281.047 66.1782 284.266 64.0679 286.917C61.9577 289.569 59.1084 291.536 55.8805 292.568C52.6526 293.601 49.191 293.653 45.9334 292.718C41.5693 291.465 37.8812 288.53 35.6792 284.559C33.4772 280.588 32.9414 275.905 34.1895 271.54V271.524Z" fill="url(#paint2_linear_17_124)"/>
<path d="M55.755 311.05C55.6459 311.05 55.5388 311.021 55.4457 310.964C55.3526 310.907 55.2771 310.825 55.2277 310.728L52.1382 304.583C50.82 304.651 49.4986 304.625 48.184 304.507L44.8757 310.554C44.8116 310.67 44.7104 310.76 44.5883 310.811C44.4662 310.862 44.3306 310.87 44.2035 310.834L37.8056 308.988C37.6779 308.952 37.5665 308.873 37.4898 308.765C37.4131 308.656 37.3757 308.525 37.3838 308.393L37.7792 301.52C36.5994 300.922 35.463 300.242 34.3786 299.485L28.5027 303.057C28.3893 303.125 28.2562 303.153 28.125 303.136C27.9938 303.118 27.8724 303.057 27.7804 302.962L23.1566 298.175C23.0646 298.08 23.0076 297.956 22.9952 297.824C22.9827 297.693 23.0155 297.561 23.0881 297.45L26.8709 291.693C26.1516 290.585 25.5104 289.428 24.9518 288.231L18.0663 288.387H18.0531C17.9228 288.387 17.7963 288.343 17.6937 288.263C17.591 288.183 17.518 288.07 17.4863 287.944L15.8783 281.486C15.8467 281.357 15.8595 281.222 15.9145 281.102C15.9696 280.982 16.0636 280.884 16.1815 280.824L22.3263 277.734C22.2588 276.416 22.2844 275.095 22.4027 273.78L16.3633 270.472C16.2467 270.409 16.1552 270.308 16.1043 270.185C16.0534 270.063 16.0462 269.927 16.0839 269.8L17.9292 263.402C17.9629 263.273 18.0412 263.159 18.1502 263.082C18.2591 263.005 18.3919 262.969 18.525 262.98L25.3973 263.375C25.9948 262.196 26.6748 261.061 27.4324 259.977L23.8605 254.102C23.7912 253.988 23.7628 253.854 23.7801 253.722C23.7973 253.59 23.8592 253.468 23.9554 253.377L28.7426 248.755C28.8377 248.663 28.9613 248.606 29.093 248.594C29.2248 248.582 29.3569 248.614 29.4675 248.687L35.2248 252.467C36.3323 251.75 37.4879 251.109 38.6834 250.551L38.5305 243.665C38.5273 243.532 38.5694 243.403 38.6499 243.297C38.7304 243.192 38.8446 243.117 38.9734 243.085L45.4292 241.477C45.5579 241.444 45.6942 241.456 45.8151 241.511C45.936 241.566 46.0343 241.661 46.0936 241.78L49.1831 247.922C50.5013 247.856 51.8226 247.882 53.1373 247.999L56.4483 241.962C56.5119 241.846 56.613 241.755 56.7351 241.704C56.8572 241.652 56.993 241.644 57.1205 241.68L63.5183 243.525C63.6455 243.562 63.7566 243.64 63.8332 243.748C63.9099 243.856 63.9476 243.986 63.9401 244.119L63.5368 250.978C64.7165 251.575 65.8529 252.254 66.9374 253.01L72.8186 249.444C72.9314 249.374 73.0646 249.345 73.196 249.362C73.3274 249.379 73.4491 249.44 73.5409 249.536L78.1646 254.326C78.2572 254.42 78.3144 254.544 78.3269 254.676C78.3393 254.808 78.3063 254.94 78.2332 255.051L74.453 260.808C75.1715 261.915 75.8119 263.07 76.3694 264.266L83.255 264.114C83.3853 264.114 83.5118 264.157 83.6144 264.238C83.7171 264.318 83.7901 264.43 83.8218 264.556L85.4298 271.015C85.4619 271.143 85.4494 271.279 85.3943 271.399C85.3392 271.519 85.2448 271.617 85.1266 271.677L78.9845 274.769C79.0499 276.087 79.0235 277.408 78.9054 278.723L84.9447 282.034C85.0611 282.097 85.1522 282.198 85.2031 282.321C85.2539 282.443 85.2614 282.579 85.2242 282.706L83.3789 289.104C83.3439 289.232 83.2657 289.344 83.1576 289.421C83.0495 289.498 82.9181 289.535 82.7858 289.526L75.9107 289.13C75.3138 290.309 74.6347 291.445 73.8783 292.528L77.4476 298.407C77.5166 298.52 77.545 298.653 77.5282 298.784C77.5115 298.916 77.4505 299.037 77.3554 299.129L72.5655 303.753C72.4702 303.845 72.3466 303.901 72.215 303.914C72.0834 303.926 71.9514 303.894 71.8406 303.821L66.0833 300.039C64.9759 300.757 63.8203 301.398 62.6247 301.958L62.7776 308.843C62.7804 308.975 62.7384 309.104 62.6584 309.209C62.5784 309.314 62.4652 309.388 62.3373 309.421L55.8788 311.031C55.8382 311.041 55.7967 311.048 55.755 311.05ZM52.4914 303.405C52.6005 303.404 52.7076 303.434 52.8007 303.491C52.8938 303.548 52.9693 303.629 53.0187 303.727L56.0713 309.79L61.6256 308.406L61.4727 301.602C61.4705 301.487 61.5017 301.375 61.5626 301.278C61.6235 301.181 61.7114 301.104 61.8154 301.056C63.1925 300.435 64.5152 299.7 65.7696 298.858C65.8652 298.795 65.977 298.762 66.0912 298.762C66.2054 298.762 66.3172 298.795 66.4128 298.858L72.1016 302.593L76.2192 298.62L72.6921 292.821C72.6317 292.723 72.6017 292.61 72.606 292.496C72.6102 292.381 72.6484 292.27 72.7158 292.178C73.6005 290.946 74.3808 289.643 75.0487 288.282C75.0973 288.177 75.1766 288.09 75.2761 288.032C75.3755 287.974 75.4902 287.948 75.605 287.957L82.3956 288.347L83.9773 282.846L78.0117 279.577C77.9112 279.522 77.8291 279.439 77.7757 279.338C77.7222 279.236 77.6998 279.122 77.7112 279.008C77.8676 277.5 77.8968 275.981 77.7982 274.468C77.7905 274.354 77.8169 274.239 77.8742 274.14C77.9314 274.041 78.0169 273.96 78.1198 273.909L84.1829 270.854L82.7989 265.302L75.9951 265.455C75.8802 265.458 75.7669 265.427 75.6698 265.366C75.5726 265.304 75.4959 265.215 75.4494 265.11C74.8276 263.734 74.0932 262.411 73.2535 261.156C73.1898 261.06 73.1558 260.948 73.1558 260.833C73.1558 260.718 73.1898 260.606 73.2535 260.51L76.9889 254.824L73.0136 250.706L67.2142 254.233C67.1165 254.293 67.0034 254.323 66.889 254.318C66.7746 254.314 66.664 254.276 66.571 254.21C65.3401 253.324 64.0368 252.543 62.6748 251.877C62.5718 251.826 62.4861 251.747 62.4284 251.648C62.3707 251.549 62.3436 251.435 62.3505 251.32L62.7433 244.527L57.2417 242.945L53.9729 248.911C53.9184 249.012 53.8348 249.095 53.7329 249.149C53.631 249.202 53.5153 249.224 53.4009 249.212C51.893 249.054 50.3743 249.025 48.8615 249.125C48.7468 249.133 48.6321 249.107 48.5324 249.05C48.4327 248.993 48.3526 248.907 48.3026 248.803L45.25 242.74L39.6957 244.124L39.8486 250.928C39.8513 251.042 39.8202 251.154 39.7592 251.251C39.6983 251.348 39.6101 251.424 39.5059 251.471C38.1299 252.094 36.8074 252.829 35.5517 253.669C35.4563 253.732 35.3445 253.766 35.2301 253.766C35.1157 253.766 35.0039 253.732 34.9085 253.669L29.2065 249.923L25.0889 253.877L28.6161 259.677C28.6764 259.774 28.7064 259.888 28.7022 260.002C28.6979 260.117 28.6597 260.227 28.5923 260.32C27.7071 261.55 26.9267 262.853 26.2594 264.214C26.2103 264.318 26.131 264.405 26.0317 264.463C25.9325 264.521 25.818 264.548 25.7031 264.541L18.9125 264.158L17.3308 269.66L23.2964 272.929C23.3971 272.984 23.4793 273.068 23.5327 273.17C23.5862 273.271 23.6085 273.386 23.5969 273.501C23.4418 275.008 23.4127 276.526 23.5099 278.038C23.5177 278.152 23.4916 278.266 23.4349 278.366C23.3781 278.466 23.2933 278.547 23.1909 278.599L17.1278 281.652L18.5118 287.203L25.3156 287.053C25.4302 287.05 25.5431 287.081 25.6402 287.142C25.7372 287.203 25.8141 287.291 25.8613 287.396C26.4829 288.772 27.2174 290.095 28.0572 291.35C28.121 291.445 28.1551 291.557 28.1551 291.672C28.1551 291.786 28.121 291.898 28.0572 291.993L24.3139 297.703L28.2892 301.821L34.0887 298.291C34.1866 298.232 34.2998 298.202 34.4142 298.207C34.5286 298.212 34.6391 298.25 34.7319 298.317C35.9627 299.202 37.2661 299.982 38.628 300.648C38.7305 300.699 38.8158 300.779 38.8734 300.879C38.931 300.978 38.9584 301.092 38.9523 301.206L38.5621 307.997L44.0611 309.579L47.3299 303.613C47.3849 303.512 47.4686 303.43 47.5704 303.376C47.6722 303.323 47.7876 303.301 47.9019 303.313C49.41 303.468 50.9284 303.497 52.4413 303.4L52.4914 303.405ZM50.6751 293.976C47.9298 293.975 45.2219 293.338 42.7646 292.114C40.3074 290.889 38.1679 289.111 36.5146 286.919C34.8613 284.728 33.7393 282.182 33.2369 279.483C32.7345 276.784 32.8654 274.005 33.6194 271.366C34.5298 268.204 36.3027 265.359 38.7395 263.149C41.1763 260.938 44.1806 259.451 47.4155 258.852C50.6504 258.254 53.9881 258.568 57.0544 259.76C60.1206 260.952 62.7942 262.975 64.7754 265.601C66.7566 268.228 67.967 271.354 68.2711 274.63C68.5751 277.905 67.9606 281.201 66.4966 284.147C65.0326 287.093 62.7768 289.573 59.9823 291.309C57.1878 293.045 53.965 293.969 50.6751 293.976ZM34.7424 271.687C33.6826 275.367 33.9315 279.3 35.4467 282.816C36.9618 286.333 39.6495 289.215 43.0516 290.972C46.4537 292.729 50.3599 293.252 54.1044 292.452C57.8488 291.651 61.2 289.577 63.5867 286.583C65.9734 283.589 67.2481 279.86 67.1934 276.031C67.1387 272.203 65.7582 268.511 63.287 265.587C60.8157 262.662 57.4068 260.684 53.641 259.991C49.8752 259.298 45.9856 259.932 42.635 261.786C38.8 263.913 35.9646 267.473 34.7503 271.687H34.7424Z" fill="#0D4C59"/>
<path d="M266.221 284.984C270.924 278.736 239.918 267.554 240.337 245.605C240.716 225.552 266.877 220.401 266.107 202.03C265.282 182.373 234.919 178.527 234.906 158.489C234.906 143.047 252.924 140.722 254.387 124.204C256.146 104.359 230.662 101.72 222.364 75.512C214.627 51.0356 232.42 39.2759 219.438 19.8898C217.745 17.3671 207.211 2.2937 192.285 2.07227C167.983 1.71903 136.576 40.7337 141.197 74.4892C145.088 102.912 171.605 106.342 173.155 136.536C174.473 162.13 155.77 166.411 161.854 186.264C169.056 209.757 197.65 211.605 203.534 238.082C206.615 251.95 199.74 255.815 205.379 265.624C217.279 286.344 261.038 291.872 266.221 284.984Z" fill="#E7F2F5"/>
<path d="M266.221 284.984C270.924 278.736 239.918 267.554 240.337 245.605C240.716 225.552 266.877 220.401 266.107 202.03C265.282 182.373 234.919 178.527 234.906 158.489C234.906 143.047 252.924 140.722 254.387 124.204C256.146 104.359 230.662 101.72 222.364 75.512C214.627 51.0356 232.42 39.2759 219.438 19.8898C217.745 17.3671 207.211 2.2937 192.285 2.07227C167.983 1.71903 136.576 40.7337 141.197 74.4892C145.088 102.912 171.605 106.342 173.155 136.536C174.473 162.13 155.77 166.411 161.854 186.264C169.056 209.757 197.65 211.605 203.534 238.082C206.615 251.95 199.74 255.815 205.379 265.624C217.279 286.344 261.038 291.872 266.221 284.984Z" fill="#09363F"/>
<path d="M255.078 288.379C253.953 288.379 252.759 288.34 251.506 288.263C237.424 287.393 213.385 280.721 204.873 265.917C201.739 260.46 202.356 256.719 203.068 252.383C203.677 248.692 204.365 244.511 202.965 238.208C199.923 224.516 190.575 217.399 181.517 210.529C173.285 204.263 164.773 197.786 161.298 186.448C158.109 176.043 161.525 169.904 165.479 162.791C169.101 156.28 173.206 148.899 172.573 136.578C171.782 121.056 164.454 112.879 156.704 104.225C149.726 96.4323 142.508 88.3736 140.623 74.5814C137.723 53.3896 148.679 32.298 159.901 19.6261C170.232 7.95866 182.045 1.35516 192.286 1.50806C207.214 1.72686 217.928 16.6051 219.926 19.584C226.993 30.1285 225.082 38.6405 223.057 47.6455C221.241 55.7279 219.367 64.087 222.923 75.3486C226.877 87.8781 234.828 94.9561 241.835 101.198C249.384 107.926 255.904 113.733 254.97 124.267C254.224 132.703 249.326 137.474 244.587 142.098C239.908 146.666 235.487 150.982 235.492 158.502C235.492 168.362 242.96 174.103 250.858 180.182C258.437 186.016 266.274 192.045 266.693 202.02C267.086 211.402 260.83 217.27 254.206 223.483C247.768 229.525 241.11 235.77 240.922 245.626C240.68 258.433 251.412 267.535 259.249 274.181C264.864 278.942 268.921 282.382 266.691 285.345C265.201 287.309 261.039 288.379 255.078 288.379ZM191.951 2.65478C182.25 2.65478 170.622 9.25827 160.771 20.3827C149.723 32.8621 138.928 53.5979 141.791 74.4075C143.636 87.8517 150.725 95.7601 157.584 103.429C165.131 111.864 172.934 120.563 173.754 136.504C174.402 149.157 170.211 156.694 166.513 163.342C162.688 170.22 159.395 176.162 162.427 186.09C165.79 197.069 173.78 203.148 182.237 209.583C191.463 216.595 200.983 223.844 204.117 237.953C205.564 244.474 204.858 248.777 204.233 252.57C203.529 256.854 202.97 260.238 205.899 265.331C214.182 279.738 237.762 286.241 251.591 287.095C258.853 287.546 264.284 286.6 265.768 284.631C267.336 282.545 263.438 279.242 258.505 275.056C250.489 268.26 239.525 258.952 239.765 245.592C239.963 235.24 246.804 228.824 253.418 222.616C259.842 216.592 265.908 210.898 265.544 202.054C265.148 192.622 257.867 187.028 250.162 181.091C242.388 175.107 234.345 168.92 234.345 158.487C234.345 150.475 239.146 145.783 243.793 141.249C248.38 136.768 253.122 132.144 253.829 124.148C254.709 114.2 248.393 108.572 241.078 102.055C233.96 95.71 225.889 88.5213 221.834 75.6939C218.178 64.1292 220.179 55.2323 221.942 47.3819C223.996 38.2477 225.767 30.3605 218.979 20.2298C217.039 17.3301 206.637 2.88148 192.291 2.66795L191.951 2.65478Z" fill="#0D6376"/>
<path d="M256.343 281.441C256.285 281.441 256.227 281.432 256.172 281.414C237.387 275.596 225.535 267.396 220.942 257.043C217.455 249.183 219.435 242.837 221.533 236.121C223.631 229.404 225.817 222.394 222.701 213.081C219.403 203.224 213.474 198.796 207.762 194.512C202.205 190.352 196.954 186.427 194.618 178.018C191.312 166.126 197.497 157.675 203.478 149.5C209.278 141.592 215.254 133.401 212.95 121.903C211.104 112.629 205.041 107.219 198.633 101.494C191.703 95.3014 183.847 88.2814 180.18 75.2115C177.446 65.4921 177.731 55.0899 181.026 44.3003C181.071 44.1524 181.173 44.0285 181.31 43.9558C181.446 43.8832 181.606 43.8677 181.754 43.9128C181.902 43.9579 182.026 44.0599 182.098 44.1963C182.171 44.3327 182.186 44.4925 182.141 44.6403C178.915 55.2138 178.633 65.3945 181.306 74.8951C184.888 87.6382 192.275 94.239 199.419 100.624C205.975 106.484 212.167 112.017 214.102 121.673C216.509 133.675 210.366 142.069 204.427 150.188C198.343 158.505 192.596 166.361 195.752 177.707C197.982 185.731 203.075 189.54 208.468 193.576C214.336 197.968 220.405 202.507 223.816 212.709C227.05 222.384 224.815 229.543 222.653 236.468C220.624 242.969 218.699 249.122 222.018 256.572C226.468 266.589 238.077 274.584 256.525 280.297C256.66 280.336 256.776 280.424 256.852 280.543C256.928 280.662 256.958 280.804 256.937 280.943C256.915 281.083 256.844 281.21 256.737 281.301C256.629 281.392 256.492 281.44 256.351 281.438L256.343 281.441Z" fill="#0D6376"/>
<path d="M277.382 370.268C279.491 365.438 252.621 358.221 230.024 324.207C216.343 303.611 211.078 283.5 206.299 264.63C194.476 217.915 204.19 208.76 191.639 187.023C176.587 160.925 157.607 170.974 136.183 144.107C109.761 110.968 129.527 84.2666 102.441 54.4283C87.6444 38.1212 61.3491 23.6173 38.2382 31.0538C24.2667 35.5537 9.63622 48.6657 9.25661 62.9509C8.88756 76.7273 22.0497 81.3273 32.3491 98.1036C50.7413 128.058 28.8061 146.005 40.521 176.362C56.4274 217.562 106.385 209.256 127.74 258.346C136.339 278.117 128.95 281.111 136.576 299.996C162.318 363.704 273.183 379.816 277.382 370.268Z" fill="#E7F2F5"/>
<path d="M277.382 370.268C279.491 365.438 252.621 358.221 230.024 324.207C216.343 303.611 211.078 283.5 206.299 264.63C194.476 217.915 204.19 208.76 191.639 187.023C176.587 160.925 157.607 170.974 136.183 144.107C109.761 110.968 129.527 84.2666 102.441 54.4283C87.6444 38.1212 61.3491 23.6173 38.2382 31.0538C24.2667 35.5537 9.63622 48.6657 9.25661 62.9509C8.88756 76.7273 22.0497 81.3273 32.3491 98.1036C50.7413 128.058 28.8061 146.005 40.521 176.362C56.4274 217.562 106.385 209.256 127.74 258.346C136.339 278.117 128.95 281.111 136.576 299.996C162.318 363.704 273.183 379.816 277.382 370.268Z" fill="#09363F"/>
<path d="M266.587 373.389C266.252 373.389 265.918 373.389 265.591 373.389C250.093 373.16 223.023 367.787 197.484 356.302C175.868 346.577 147.648 328.949 136.038 300.205C132.308 290.978 132.132 285.413 131.96 280.044C131.773 274.194 131.599 268.669 127.215 258.572C116.241 233.339 97.8172 223.467 80.0023 213.922C63.4105 205.03 47.7388 196.631 39.9886 176.56C34.5713 162.531 36.2716 151.106 37.9165 140.058C39.8752 126.898 41.7257 114.469 31.8535 98.4068C27.8281 91.8534 23.3651 87.1743 19.4294 83.0461C13.2899 76.6113 8.44205 71.5262 8.67139 62.9324C9.0589 48.4338 23.9187 35.0554 38.0589 30.5081C61.1672 23.0532 87.8448 37.478 102.871 54.025C116.692 69.2565 118.392 83.4362 120.193 98.4516C121.906 112.724 123.675 127.483 136.632 143.732C146.96 156.684 156.516 160.896 165.758 164.972C175.296 169.189 184.308 173.144 192.135 186.72C198.799 198.271 199.253 206.169 199.909 218.121C200.513 228.929 201.264 242.373 206.855 264.475C211.421 282.511 216.593 302.962 230.499 323.882C244.771 345.364 260.574 355.988 270.017 362.336C275.729 366.176 278.877 368.291 277.907 370.508C276.876 372.851 271.39 373.389 266.587 373.389ZM51.2158 29.6382C46.8702 29.617 42.5481 30.277 38.4069 31.5942C24.6516 36.0176 10.2003 48.9557 9.82864 62.9404C9.60984 71.0491 14.3101 75.9786 20.2624 82.2157C24.2403 86.3861 28.7481 91.1126 32.8367 97.7688C42.9278 114.2 41.0456 126.835 39.0554 140.21C37.4315 151.108 35.7549 162.375 41.0615 176.12C48.6535 195.788 64.1407 204.086 80.5374 212.873C98.529 222.513 117.132 232.48 128.27 258.085C132.751 268.387 132.936 274.284 133.118 279.986C133.286 285.258 133.458 290.699 137.114 299.757C157.125 349.316 231.88 371.723 265.599 372.213C273.141 372.324 276.336 371.159 276.829 370.03C277.409 368.712 274.032 366.443 269.358 363.3C259.844 356.905 243.919 346.2 229.521 324.526C215.504 303.437 210.303 282.875 205.716 264.759C200.099 242.553 199.342 229.043 198.736 218.184C198.077 206.398 197.642 198.611 191.118 187.3C183.473 174.061 175.037 170.341 165.284 166.037C156.35 162.098 146.222 157.633 135.717 144.457C122.555 127.95 120.765 113.024 119.033 98.5887C117.253 83.7631 115.574 69.76 102.003 54.8053C89.9537 41.5377 70.3251 29.6435 51.2237 29.6435L51.2158 29.6382Z" fill="#0D6376"/>
<path d="M258.039 367.974C257.961 367.974 257.884 367.958 257.812 367.929C235.742 358.671 218.088 347.739 205.337 335.442C195.014 325.48 187.638 314.34 183.415 302.332C178.994 289.763 178.496 277.869 178.011 266.365C177.286 249.148 176.603 232.886 162.906 216.434C153.258 204.835 143.162 200.259 133.4 195.822C122.521 190.879 112.245 186.211 105.193 172.06C100.285 162.217 100.185 154.311 100.095 145.156C99.9923 136.119 99.8763 125.875 95.416 110.823C91.0084 95.9209 83.8909 81.7386 74.3033 68.6581C74.2117 68.5333 74.1735 68.3773 74.1969 68.2243C74.2204 68.0712 74.3037 67.9338 74.4285 67.8422C74.5533 67.7506 74.7094 67.7124 74.8624 67.7359C75.0154 67.7594 75.1528 67.8427 75.2444 67.9675C84.9163 81.1481 92.0787 95.4596 96.5338 110.491C101.039 125.699 101.155 136.03 101.258 145.143C101.363 154.527 101.447 161.937 106.235 171.541C113.104 185.317 122.734 189.693 133.882 194.76C143.304 199.041 153.983 203.894 163.805 215.688C177.753 232.441 178.446 248.903 179.176 266.317C179.656 277.734 180.154 289.542 184.514 301.945C193.815 328.387 218.628 350.228 258.263 366.854C258.387 366.906 258.489 366.999 258.553 367.118C258.616 367.237 258.636 367.374 258.61 367.506C258.583 367.638 258.512 367.757 258.408 367.842C258.304 367.928 258.173 367.974 258.039 367.974Z" fill="#0D6376"/>
<path d="M227.792 0.282288H409.887C412.404 0.282288 414.818 1.28213 416.598 3.06186C418.377 4.84159 419.377 7.25542 419.377 9.77234V365.349C419.377 367.507 418.52 369.577 416.994 371.103C415.467 372.629 413.398 373.486 411.239 373.486H227.792V0.282288Z" fill="#0D6376"/>
<path d="M400.278 0.920181H223.9C219.702 0.920181 216.298 4.32397 216.298 8.52276V366.203C216.298 370.401 219.702 373.805 223.9 373.805H400.278C404.477 373.805 407.881 370.401 407.881 366.203V8.52276C407.881 4.32397 404.477 0.920181 400.278 0.920181Z" fill="#09363F"/>
<path d="M273.278 118.489H251.63C250.18 118.489 249.004 119.664 249.004 121.114V140.769C249.004 142.219 250.18 143.395 251.63 143.395H273.278C274.728 143.395 275.903 142.219 275.903 140.769V121.114C275.903 119.664 274.728 118.489 273.278 118.489Z" fill="#0D6376"/>
<path d="M307.411 118.489H285.478C284.028 118.489 282.853 119.664 282.853 121.114V140.769C282.853 142.219 284.028 143.395 285.478 143.395H307.411C308.861 143.395 310.036 142.219 310.036 140.769V121.114C310.036 119.664 308.861 118.489 307.411 118.489Z" fill="#0D6376"/>
<path d="M341.329 118.808H319.966C318.516 118.808 317.341 119.983 317.341 121.433V141.088C317.341 142.538 318.516 143.714 319.966 143.714H341.329C342.779 143.714 343.955 142.538 343.955 141.088V121.433C343.955 119.983 342.779 118.808 341.329 118.808Z" fill="#0D6376"/>
<path d="M374.858 118.808H353.495C352.045 118.808 350.87 119.983 350.87 121.433V141.088C350.87 142.538 352.045 143.714 353.495 143.714H374.858C376.308 143.714 377.484 142.538 377.484 141.088V121.433C377.484 119.983 376.308 118.808 374.858 118.808Z" fill="#0D6376"/>
<path d="M273.278 152.337H251.63C250.18 152.337 249.004 153.512 249.004 154.962V174.617C249.004 176.067 250.18 177.243 251.63 177.243H273.278C274.728 177.243 275.903 176.067 275.903 174.617V154.962C275.903 153.512 274.728 152.337 273.278 152.337Z" fill="#0D6376"/>
<path d="M307.411 152.337H285.478C284.028 152.337 282.853 153.512 282.853 154.962V174.617C282.853 176.067 284.028 177.243 285.478 177.243H307.411C308.861 177.243 310.036 176.067 310.036 174.617V154.962C310.036 153.512 308.861 152.337 307.411 152.337Z" fill="#0D6376"/>
<path d="M341.329 152.656H319.966C318.516 152.656 317.341 153.831 317.341 155.281V174.936C317.341 176.386 318.516 177.562 319.966 177.562H341.329C342.779 177.562 343.955 176.386 343.955 174.936V155.281C343.955 153.831 342.779 152.656 341.329 152.656Z" fill="#0D6376"/>
<path d="M374.858 152.656H353.495C352.045 152.656 350.87 153.831 350.87 155.281V174.936C350.87 176.386 352.045 177.562 353.495 177.562H374.858C376.308 177.562 377.484 176.386 377.484 174.936V155.281C377.484 153.831 376.308 152.656 374.858 152.656Z" fill="#0D6376"/>
<path d="M273.966 186.187H252.318C250.868 186.187 249.692 187.363 249.692 188.813V208.468C249.692 209.918 250.868 211.093 252.318 211.093H273.966C275.416 211.093 276.591 209.918 276.591 208.468V188.813C276.591 187.363 275.416 186.187 273.966 186.187Z" fill="#0D6376"/>
<path d="M307.523 186.187H285.591C284.141 186.187 282.965 187.363 282.965 188.813V208.468C282.965 209.918 284.141 211.093 285.591 211.093H307.523C308.974 211.093 310.149 209.918 310.149 208.468V188.813C310.149 187.363 308.974 186.187 307.523 186.187Z" fill="#0D6376"/>
<path d="M342.012 186.506H320.649C319.199 186.506 318.023 187.682 318.023 189.132V208.787C318.023 210.237 319.199 211.412 320.649 211.412H342.012C343.462 211.412 344.638 210.237 344.638 208.787V189.132C344.638 187.682 343.462 186.506 342.012 186.506Z" fill="#0D6376"/>
<path d="M375.541 186.506H354.178C352.728 186.506 351.552 187.682 351.552 189.132V208.787C351.552 210.237 352.728 211.412 354.178 211.412H375.541C376.991 211.412 378.167 210.237 378.167 208.787V189.132C378.167 187.682 376.991 186.506 375.541 186.506Z" fill="#0D6376"/>
<path d="M273.966 220.035H252.318C250.868 220.035 249.692 221.21 249.692 222.66V242.315C249.692 243.765 250.868 244.941 252.318 244.941H273.966C275.416 244.941 276.591 243.765 276.591 242.315V222.66C276.591 221.21 275.416 220.035 273.966 220.035Z" fill="#0D6376"/>
<path d="M308.106 220.035H286.173C284.723 220.035 283.548 221.21 283.548 222.66V242.315C283.548 243.765 284.723 244.941 286.173 244.941H308.106C309.556 244.941 310.732 243.765 310.732 242.315V222.66C310.732 221.21 309.556 220.035 308.106 220.035Z" fill="#0D6376"/>
<path d="M342.009 220.354H320.646C319.196 220.354 318.021 221.529 318.021 222.979V242.634C318.021 244.084 319.196 245.26 320.646 245.26H342.009C343.46 245.26 344.635 244.084 344.635 242.634V222.979C344.635 221.529 343.46 220.354 342.009 220.354Z" fill="#0D6376"/>
<path d="M375.539 220.354H354.175C352.725 220.354 351.55 221.529 351.55 222.979V242.634C351.55 244.084 352.725 245.26 354.175 245.26H375.539C376.989 245.26 378.164 244.084 378.164 242.634V222.979C378.164 221.529 376.989 220.354 375.539 220.354Z" fill="#0D6376"/>
<path d="M270.602 119.488H250.947C249.497 119.488 248.322 120.663 248.322 122.113V141.768C248.322 143.218 249.497 144.394 250.947 144.394H270.602C272.052 144.394 273.228 143.218 273.228 141.768V122.113C273.228 120.663 272.052 119.488 270.602 119.488Z" fill="white"/>
<path d="M270.602 144.979H250.947C250.096 144.978 249.28 144.64 248.678 144.039C248.077 143.437 247.738 142.622 247.736 141.771V122.113C247.738 121.263 248.078 120.448 248.679 119.847C249.281 119.246 250.097 118.909 250.947 118.908H270.602C271.453 118.909 272.269 119.247 272.871 119.848C273.473 120.45 273.811 121.265 273.813 122.116V141.774C273.811 142.624 273.472 143.439 272.87 144.04C272.268 144.641 271.452 144.978 270.602 144.979ZM250.947 120.073C250.406 120.073 249.886 120.288 249.503 120.671C249.12 121.053 248.905 121.572 248.904 122.113V141.771C248.905 142.312 249.12 142.831 249.503 143.214C249.886 143.596 250.406 143.811 250.947 143.811H270.602C271.143 143.811 271.663 143.596 272.046 143.214C272.429 142.831 272.644 142.312 272.645 141.771V122.113C272.644 121.572 272.429 121.053 272.046 120.671C271.663 120.288 271.143 120.073 270.602 120.073H250.947Z" fill="#0D6376"/>
<path d="M304.45 119.488H284.795C283.345 119.488 282.17 120.663 282.17 122.113V141.768C282.17 143.218 283.345 144.394 284.795 144.394H304.45C305.9 144.394 307.076 143.218 307.076 141.768V122.113C307.076 120.663 305.9 119.488 304.45 119.488Z" fill="white"/>
<path d="M304.45 144.979H284.795C283.946 144.975 283.134 144.635 282.536 144.034C281.937 143.433 281.601 142.619 281.6 141.771V122.113C281.601 121.266 281.938 120.453 282.537 119.852C283.135 119.251 283.947 118.912 284.795 118.908H304.45C305.301 118.909 306.117 119.247 306.718 119.848C307.32 120.45 307.659 121.265 307.661 122.116V141.774C307.658 142.624 307.319 143.439 306.718 144.04C306.116 144.641 305.3 144.978 304.45 144.979ZM284.795 120.073C284.253 120.073 283.734 120.288 283.351 120.671C282.968 121.053 282.753 121.572 282.752 122.113V141.771C282.753 142.312 282.968 142.831 283.351 143.214C283.734 143.596 284.253 143.811 284.795 143.811H304.45C304.991 143.811 305.51 143.596 305.893 143.214C306.277 142.831 306.492 142.312 306.493 141.771V122.113C306.492 121.572 306.277 121.053 305.893 120.671C305.51 120.288 304.991 120.073 304.45 120.073H284.795Z" fill="#0D6376"/>
<path d="M338.939 119.807H319.284C317.834 119.807 316.658 120.982 316.658 122.432V142.087C316.658 143.537 317.834 144.713 319.284 144.713H338.939C340.389 144.713 341.564 143.537 341.564 142.087V122.432C341.564 120.982 340.389 119.807 338.939 119.807Z" fill="white"/>
<path d="M338.938 145.298H319.296C318.445 145.297 317.63 144.959 317.028 144.358C316.426 143.756 316.087 142.941 316.085 142.09V122.432C316.087 121.581 316.426 120.766 317.028 120.164C317.63 119.563 318.445 119.225 319.296 119.224H338.951C339.802 119.225 340.617 119.563 341.219 120.165C341.82 120.766 342.159 121.582 342.159 122.432V142.09C342.159 142.512 342.075 142.93 341.913 143.32C341.751 143.71 341.514 144.064 341.214 144.362C340.915 144.66 340.56 144.896 340.169 145.057C339.779 145.218 339.36 145.3 338.938 145.298ZM319.296 120.392C318.755 120.392 318.236 120.607 317.853 120.989C317.47 121.372 317.254 121.891 317.253 122.432V142.09C317.254 142.631 317.47 143.15 317.853 143.533C318.236 143.915 318.755 144.13 319.296 144.13H338.951C339.493 144.13 340.012 143.915 340.395 143.533C340.778 143.15 340.994 142.631 340.994 142.09V122.432C340.994 121.891 340.778 121.372 340.395 120.989C340.012 120.607 339.493 120.392 338.951 120.392H319.296Z" fill="#0D6376"/>
<path d="M372.467 119.807H352.812C351.362 119.807 350.187 120.982 350.187 122.432V142.087C350.187 143.537 351.362 144.713 352.812 144.713H372.467C373.917 144.713 375.093 143.537 375.093 142.087V122.432C375.093 120.982 373.917 119.807 372.467 119.807Z" fill="white"/>
<path d="M372.467 145.298H352.812C351.963 145.295 351.15 144.955 350.55 144.354C349.951 143.753 349.613 142.939 349.612 142.09V122.432C349.613 121.581 349.952 120.766 350.554 120.164C351.156 119.563 351.972 119.225 352.823 119.224H372.478C373.328 119.225 374.144 119.563 374.746 120.164C375.348 120.766 375.687 121.581 375.688 122.432V142.09C375.688 142.512 375.604 142.93 375.441 143.32C375.279 143.71 375.042 144.064 374.742 144.362C374.443 144.66 374.088 144.896 373.698 145.056C373.308 145.217 372.889 145.299 372.467 145.298ZM352.812 120.392C352.271 120.392 351.751 120.607 351.368 120.989C350.985 121.372 350.77 121.891 350.769 122.432V142.09C350.77 142.631 350.985 143.15 351.368 143.533C351.751 143.915 352.271 144.13 352.812 144.13H372.467C373.008 144.13 373.528 143.915 373.911 143.533C374.294 143.15 374.509 142.631 374.51 142.09V122.432C374.509 121.891 374.294 121.372 373.911 120.989C373.528 120.607 373.008 120.392 372.467 120.392H352.812Z" fill="#0D6376"/>
<path d="M270.602 153.336H250.947C249.497 153.336 248.322 154.511 248.322 155.961V175.616C248.322 177.066 249.497 178.242 250.947 178.242H270.602C272.052 178.242 273.228 177.066 273.228 175.616V155.961C273.228 154.511 272.052 153.336 270.602 153.336Z" fill="white"/>
<path d="M270.602 178.827H250.947C250.096 178.826 249.28 178.488 248.678 177.887C248.077 177.285 247.738 176.47 247.736 175.619V155.961C247.738 155.11 248.077 154.295 248.678 153.693C249.28 153.092 250.096 152.754 250.947 152.753H270.602C271.453 152.754 272.268 153.092 272.87 153.694C273.471 154.295 273.81 155.111 273.81 155.961V175.619C273.81 176.469 273.471 177.285 272.87 177.887C272.268 178.488 271.453 178.826 270.602 178.827ZM250.947 153.921C250.406 153.921 249.886 154.136 249.503 154.518C249.12 154.901 248.905 155.42 248.904 155.961V175.619C248.905 176.16 249.12 176.68 249.503 177.063C249.886 177.446 250.405 177.661 250.947 177.662H270.602C271.144 177.661 271.663 177.446 272.046 177.063C272.429 176.68 272.644 176.16 272.645 175.619V155.961C272.644 155.42 272.429 154.901 272.046 154.518C271.663 154.136 271.143 153.921 270.602 153.921H250.947Z" fill="#0D6376"/>
<path d="M304.45 153.336H284.795C283.345 153.336 282.17 154.511 282.17 155.961V175.616C282.17 177.066 283.345 178.242 284.795 178.242H304.45C305.9 178.242 307.076 177.066 307.076 175.616V155.961C307.076 154.511 305.9 153.336 304.45 153.336Z" fill="white"/>
<path d="M304.45 178.827H284.795C283.944 178.826 283.128 178.488 282.526 177.887C281.924 177.285 281.585 176.47 281.584 175.619V155.961C281.585 155.11 281.924 154.295 282.526 153.693C283.128 153.092 283.944 152.754 284.795 152.753H304.45C305.3 152.754 306.116 153.092 306.717 153.694C307.319 154.295 307.657 155.111 307.658 155.961V175.619C307.657 176.469 307.319 177.285 306.717 177.887C306.116 178.488 305.3 178.826 304.45 178.827ZM284.795 153.921C284.253 153.921 283.734 154.136 283.351 154.518C282.968 154.901 282.753 155.42 282.752 155.961V175.619C282.752 176.16 282.968 176.68 283.351 177.063C283.734 177.446 284.253 177.661 284.795 177.662H304.45C304.991 177.661 305.511 177.446 305.894 177.063C306.277 176.68 306.492 176.16 306.493 175.619V155.961C306.492 155.42 306.276 154.901 305.893 154.518C305.51 154.136 304.991 153.921 304.45 153.921H284.795Z" fill="#0D6376"/>
<path d="M338.936 153.657H319.281C317.831 153.657 316.655 154.833 316.655 156.283V175.938C316.655 177.388 317.831 178.563 319.281 178.563H338.936C340.386 178.563 341.561 177.388 341.561 175.938V156.283C341.561 154.833 340.386 153.657 338.936 153.657Z" fill="white"/>
<path d="M338.939 179.146H319.281C318.43 179.145 317.615 178.807 317.013 178.206C316.412 177.604 316.074 176.788 316.073 175.938V156.283C316.074 155.432 316.412 154.616 317.013 154.014C317.615 153.412 318.43 153.073 319.281 153.072H338.939C339.79 153.073 340.605 153.412 341.207 154.014C341.808 154.616 342.146 155.432 342.147 156.283V175.938C342.146 176.788 341.808 177.604 341.206 178.206C340.605 178.807 339.789 179.145 338.939 179.146ZM319.281 154.232C318.74 154.233 318.221 154.448 317.838 154.831C317.456 155.214 317.241 155.734 317.241 156.275V175.93C317.241 176.471 317.456 176.991 317.838 177.374C318.221 177.757 318.74 177.972 319.281 177.973H338.939C339.48 177.972 339.999 177.757 340.382 177.374C340.764 176.991 340.979 176.471 340.979 175.93V156.283C340.979 155.742 340.764 155.222 340.382 154.839C339.999 154.456 339.48 154.241 338.939 154.24L319.281 154.232Z" fill="#0D6376"/>
<path d="M372.467 153.655H352.812C351.362 153.655 350.187 154.83 350.187 156.28V175.935C350.187 177.385 351.362 178.561 352.812 178.561H372.467C373.917 178.561 375.093 177.385 375.093 175.935V156.28C375.093 154.83 373.917 153.655 372.467 153.655Z" fill="white"/>
<path d="M372.467 179.146H352.812C351.961 179.145 351.146 178.807 350.544 178.206C349.942 177.604 349.603 176.789 349.602 175.938V156.28C349.603 155.429 349.942 154.614 350.544 154.012C351.146 153.411 351.961 153.073 352.812 153.072H372.467C373.318 153.073 374.134 153.411 374.735 154.013C375.337 154.614 375.675 155.43 375.675 156.28V175.938C375.675 176.788 375.337 177.604 374.735 178.206C374.134 178.807 373.318 179.145 372.467 179.146ZM352.812 154.232C352.271 154.232 351.752 154.447 351.369 154.829C350.986 155.212 350.77 155.731 350.769 156.272V175.93C350.77 176.471 350.986 176.99 351.369 177.373C351.752 177.755 352.271 177.97 352.812 177.97H372.467C373.008 177.97 373.527 177.754 373.909 177.372C374.292 176.989 374.507 176.471 374.508 175.93V156.28C374.507 155.739 374.292 155.221 373.909 154.838C373.527 154.456 373.008 154.241 372.467 154.24L352.812 154.232Z" fill="#0D6376"/>
<path d="M271.24 187.189H251.585C250.135 187.189 248.96 188.364 248.96 189.814V209.469C248.96 210.919 250.135 212.095 251.585 212.095H271.24C272.69 212.095 273.866 210.919 273.866 209.469V189.814C273.866 188.364 272.69 187.189 271.24 187.189Z" fill="white"/>
<path d="M271.24 212.677H251.585C250.734 212.677 249.918 212.339 249.317 211.737C248.715 211.136 248.377 210.32 248.376 209.469V189.82C248.377 188.969 248.715 188.153 249.317 187.551C249.918 186.949 250.734 186.61 251.585 186.609H271.24C272.09 186.61 272.906 186.949 273.507 187.551C274.109 188.153 274.447 188.969 274.448 189.82V209.475C274.446 210.324 274.107 211.139 273.505 211.739C272.904 212.339 272.089 212.677 271.24 212.677ZM251.585 187.771C251.043 187.772 250.524 187.988 250.141 188.37C249.758 188.753 249.542 189.273 249.542 189.814V209.469C249.542 210.011 249.758 210.53 250.141 210.913C250.524 211.296 251.043 211.512 251.585 211.512H271.24C271.781 211.512 272.3 211.296 272.683 210.913C273.066 210.53 273.282 210.011 273.283 209.469V189.82C273.282 189.278 273.066 188.759 272.683 188.376C272.3 187.993 271.781 187.777 271.24 187.777L251.585 187.771Z" fill="#0D6376"/>
<path d="M305.088 187.189H285.433C283.983 187.189 282.808 188.364 282.808 189.814V209.469C282.808 210.919 283.983 212.095 285.433 212.095H305.088C306.538 212.095 307.714 210.919 307.714 209.469V189.814C307.714 188.364 306.538 187.189 305.088 187.189Z" fill="white"/>
<path d="M305.088 212.677H285.433C284.583 212.677 283.767 212.339 283.166 211.737C282.564 211.136 282.226 210.32 282.225 209.469V189.82C282.226 188.969 282.564 188.153 283.165 187.551C283.767 186.949 284.582 186.61 285.433 186.609H305.088C305.939 186.61 306.755 186.949 307.357 187.551C307.959 188.153 308.298 188.968 308.299 189.82V209.475C308.296 210.325 307.957 211.139 307.355 211.739C306.753 212.339 305.938 212.677 305.088 212.677ZM285.433 187.771C284.892 187.772 284.372 187.988 283.989 188.37C283.606 188.753 283.391 189.273 283.39 189.814V209.469C283.391 210.011 283.606 210.53 283.989 210.913C284.372 211.296 284.892 211.512 285.433 211.512H305.088C305.63 211.512 306.149 211.296 306.532 210.913C306.915 210.53 307.13 210.011 307.131 209.469V189.82C307.13 189.278 306.915 188.759 306.532 188.376C306.149 187.993 305.63 187.777 305.088 187.777L285.433 187.771Z" fill="#0D6376"/>
<path d="M339.577 187.508H319.922C318.472 187.508 317.296 188.683 317.296 190.133V209.788C317.296 211.238 318.472 212.414 319.922 212.414H339.577C341.027 212.414 342.202 211.238 342.202 209.788V190.133C342.202 188.683 341.027 187.508 339.577 187.508Z" fill="white"/>
<path d="M339.576 212.999H319.921C319.07 212.998 318.254 212.659 317.652 212.057C317.051 211.455 316.712 210.639 316.71 209.788V190.133C316.712 189.282 317.051 188.466 317.652 187.864C318.254 187.263 319.07 186.924 319.921 186.923H339.576C340.427 186.924 341.243 187.263 341.844 187.865C342.446 188.467 342.784 189.282 342.784 190.133V209.788C342.784 210.639 342.446 211.455 341.844 212.057C341.243 212.659 340.427 212.998 339.576 212.999ZM319.921 188.09C319.38 188.091 318.86 188.307 318.477 188.689C318.094 189.072 317.879 189.592 317.878 190.133V209.788C317.879 210.33 318.094 210.849 318.477 211.232C318.86 211.615 319.38 211.831 319.921 211.831H339.576C340.118 211.831 340.637 211.615 341.02 211.232C341.403 210.849 341.619 210.33 341.619 209.788V190.133C341.619 189.592 341.403 189.072 341.02 188.689C340.637 188.307 340.118 188.091 339.576 188.09H319.921Z" fill="#0D6376"/>
<path d="M373.105 187.508H353.45C352 187.508 350.824 188.683 350.824 190.133V209.788C350.824 211.238 352 212.414 353.45 212.414H373.105C374.555 212.414 375.73 211.238 375.73 209.788V190.133C375.73 188.683 374.555 187.508 373.105 187.508Z" fill="white"/>
<path d="M373.106 212.996H353.451C352.6 212.996 351.784 212.658 351.183 212.056C350.581 211.455 350.243 210.639 350.242 209.788V190.133C350.243 189.282 350.581 188.467 351.183 187.865C351.784 187.263 352.6 186.924 353.451 186.923H373.106C373.956 186.924 374.772 187.263 375.373 187.865C375.975 188.467 376.313 189.282 376.314 190.133V209.788C376.313 210.639 375.975 211.455 375.373 212.056C374.772 212.658 373.956 212.996 373.106 212.996ZM353.451 188.09C352.909 188.091 352.39 188.307 352.007 188.689C351.624 189.072 351.408 189.592 351.408 190.133V209.788C351.408 210.33 351.624 210.849 352.007 211.232C352.39 211.615 352.909 211.831 353.451 211.831H373.106C373.647 211.831 374.166 211.615 374.549 211.232C374.932 210.849 375.148 210.33 375.149 209.788V190.133C375.148 189.592 374.932 189.072 374.549 188.689C374.166 188.307 373.647 188.091 373.106 188.09H353.451Z" fill="#0D6376"/>
<path d="M271.238 221.037H251.583C250.133 221.037 248.957 222.212 248.957 223.662V243.317C248.957 244.767 250.133 245.943 251.583 245.943H271.238C272.688 245.943 273.863 244.767 273.863 243.317V223.662C273.863 222.212 272.688 221.037 271.238 221.037Z" fill="white"/>
<path d="M271.24 246.528H251.582C250.732 246.527 249.916 246.188 249.315 245.586C248.713 244.984 248.375 244.168 248.374 243.317V223.662C248.375 222.811 248.713 221.995 249.315 221.394C249.916 220.792 250.732 220.453 251.582 220.451H271.24C272.091 220.453 272.907 220.792 273.508 221.394C274.109 221.995 274.447 222.811 274.448 223.662V243.317C274.447 244.168 274.109 244.984 273.508 245.586C272.907 246.188 272.091 246.527 271.24 246.528ZM251.582 221.619C251.041 221.62 250.522 221.835 250.14 222.219C249.757 222.602 249.542 223.121 249.542 223.662V243.317C249.542 243.859 249.757 244.378 250.14 244.761C250.522 245.144 251.041 245.359 251.582 245.36H271.24C271.782 245.359 272.301 245.144 272.684 244.761C273.067 244.378 273.282 243.859 273.283 243.317V223.662C273.282 223.121 273.067 222.601 272.684 222.218C272.301 221.835 271.782 221.62 271.24 221.619H251.582Z" fill="#0D6376"/>
<path d="M305.088 221.037H285.433C283.983 221.037 282.808 222.212 282.808 223.662V243.317C282.808 244.767 283.983 245.943 285.433 245.943H305.088C306.538 245.943 307.714 244.767 307.714 243.317V223.662C307.714 222.212 306.538 221.037 305.088 221.037Z" fill="white"/>
<path d="M305.088 246.528H285.433C284.582 246.527 283.766 246.188 283.164 245.586C282.562 244.984 282.224 244.168 282.222 243.317V223.662C282.224 222.811 282.562 221.995 283.164 221.393C283.766 220.792 284.582 220.453 285.433 220.451H305.088C305.939 220.453 306.754 220.792 307.356 221.394C307.957 221.995 308.295 222.811 308.296 223.662V243.317C308.295 244.168 307.957 244.984 307.356 245.586C306.754 246.188 305.939 246.527 305.088 246.528ZM285.433 221.619C284.891 221.62 284.372 221.835 283.989 222.218C283.606 222.601 283.391 223.121 283.39 223.662V243.317C283.391 243.859 283.606 244.378 283.989 244.761C284.372 245.144 284.891 245.359 285.433 245.36H305.088C305.63 245.359 306.149 245.144 306.532 244.761C306.915 244.378 307.13 243.859 307.131 243.317V223.662C307.13 223.121 306.915 222.601 306.532 222.218C306.149 221.835 305.63 221.62 305.088 221.619H285.433Z" fill="#0D6376"/>
<path d="M339.573 221.356H319.919C318.468 221.356 317.293 222.531 317.293 223.981V243.636C317.293 245.086 318.468 246.262 319.919 246.262H339.573C341.024 246.262 342.199 245.086 342.199 243.636V223.981C342.199 222.531 341.024 221.356 339.573 221.356Z" fill="white"/>
<path d="M339.576 246.847H319.919C319.068 246.846 318.252 246.507 317.651 245.905C317.049 245.303 316.711 244.487 316.71 243.636V223.981C316.711 223.131 317.049 222.315 317.651 221.713C318.252 221.112 319.068 220.774 319.919 220.773H339.576C340.427 220.774 341.242 221.112 341.844 221.713C342.445 222.315 342.784 223.131 342.784 223.981V243.636C342.784 244.487 342.446 245.303 341.844 245.905C341.243 246.507 340.427 246.846 339.576 246.847ZM319.919 221.938C319.377 221.939 318.858 222.154 318.476 222.537C318.093 222.921 317.878 223.44 317.878 223.981V243.636C317.878 244.178 318.093 244.697 318.476 245.08C318.858 245.463 319.377 245.678 319.919 245.679H339.576C340.118 245.678 340.637 245.463 341.019 245.08C341.402 244.697 341.617 244.178 341.617 243.636V223.981C341.617 223.44 341.402 222.921 341.019 222.537C340.637 222.154 340.118 221.939 339.576 221.938H319.919Z" fill="#0D6376"/>
<path d="M373.103 221.356H353.448C351.998 221.356 350.822 222.531 350.822 223.981V243.636C350.822 245.086 351.998 246.262 353.448 246.262H373.103C374.553 246.262 375.728 245.086 375.728 243.636V223.981C375.728 222.531 374.553 221.356 373.103 221.356Z" fill="white"/>
<path d="M373.105 246.847H353.448C352.597 246.846 351.781 246.507 351.18 245.905C350.579 245.303 350.24 244.487 350.24 243.636V223.981C350.24 223.13 350.579 222.314 351.18 221.712C351.781 221.111 352.597 220.772 353.448 220.77H373.105C373.956 220.772 374.772 221.111 375.373 221.712C375.975 222.314 376.313 223.13 376.314 223.981V243.636C376.313 244.487 375.975 245.303 375.373 245.905C374.772 246.507 373.956 246.846 373.105 246.847ZM353.448 221.938C352.907 221.939 352.388 222.154 352.005 222.537C351.622 222.921 351.408 223.44 351.408 223.981V243.636C351.408 244.178 351.622 244.697 352.005 245.08C352.388 245.463 352.907 245.678 353.448 245.679H373.105C373.647 245.678 374.166 245.463 374.549 245.08C374.932 244.697 375.148 244.178 375.148 243.636V223.981C375.148 223.44 374.932 222.92 374.549 222.537C374.166 222.154 373.647 221.939 373.105 221.938H353.448Z" fill="#0D6376"/>
<path d="M330.74 254.307H298.282C297.369 254.307 296.629 255.047 296.629 255.96V269.206C296.629 270.119 297.369 270.859 298.282 270.859H330.74C331.653 270.859 332.393 270.119 332.393 269.206V255.96C332.393 255.047 331.653 254.307 330.74 254.307Z" fill="white"/>
<path d="M330.74 271.442H298.284C297.691 271.441 297.122 271.205 296.702 270.786C296.283 270.366 296.047 269.797 296.046 269.204V255.96C296.047 255.367 296.283 254.798 296.702 254.378C297.122 253.959 297.691 253.723 298.284 253.722H330.74C331.334 253.723 331.902 253.959 332.322 254.378C332.742 254.798 332.978 255.367 332.978 255.96V269.204C332.978 269.797 332.742 270.366 332.322 270.786C331.902 271.205 331.334 271.441 330.74 271.442ZM298.284 254.89C298 254.89 297.728 255.002 297.527 255.203C297.327 255.404 297.214 255.676 297.214 255.96V269.204C297.214 269.488 297.327 269.76 297.527 269.962C297.728 270.163 298 270.276 298.284 270.277H330.74C331.024 270.276 331.296 270.163 331.497 269.962C331.698 269.76 331.81 269.488 331.81 269.204V255.96C331.81 255.676 331.698 255.404 331.497 255.203C331.296 255.002 331.024 254.89 330.74 254.89H298.284Z" fill="#0D6376"/>
<path d="M400.278 374.388H223.9C221.73 374.385 219.65 373.522 218.115 371.988C216.58 370.453 215.716 368.373 215.713 366.203V8.52282C215.716 6.35259 216.58 4.27228 218.115 2.73795C219.65 1.20361 221.73 0.340435 223.9 0.337646H400.278C402.449 0.339739 404.53 1.20269 406.065 2.73718C407.6 4.27167 408.463 6.35238 408.466 8.52282V366.203C408.463 368.373 407.6 370.454 406.065 371.988C404.53 373.523 402.449 374.386 400.278 374.388ZM223.9 1.50546C222.04 1.50755 220.256 2.24746 218.94 3.56294C217.624 4.87842 216.883 6.6621 216.88 8.52282V366.203C216.883 368.064 217.624 369.848 218.94 371.164C220.256 372.479 222.039 373.22 223.9 373.223H400.278C402.139 373.22 403.923 372.479 405.239 371.164C406.555 369.848 407.295 368.064 407.298 366.203V8.52282C407.295 6.6621 406.555 4.87842 405.239 3.56294C403.923 2.24746 402.139 1.50755 400.278 1.50546H223.9Z" fill="#0D6376"/>
<path d="M298.147 297.743H334.894C336.314 297.743 337.676 298.307 338.68 299.311C339.684 300.315 340.248 301.677 340.248 303.097V375.353C340.248 375.96 340.007 376.542 339.578 376.971C339.149 377.4 338.567 377.641 337.96 377.641H292.748C292.218 377.641 291.71 377.43 291.335 377.056C290.96 376.681 290.75 376.173 290.75 375.643V305.142C290.749 304.171 290.94 303.208 291.312 302.311C291.684 301.413 292.228 300.597 292.915 299.91C293.602 299.223 294.418 298.678 295.315 298.306C296.213 297.934 297.175 297.743 298.147 297.743Z" fill="white"/>
<path d="M337.96 378.226H292.748C292.064 378.225 291.408 377.953 290.924 377.469C290.44 376.986 290.168 376.33 290.167 375.645V305.142C290.17 303.026 291.011 300.998 292.507 299.501C294.003 298.005 296.031 297.163 298.147 297.16H334.895C336.469 297.162 337.979 297.788 339.092 298.902C340.205 300.015 340.832 301.525 340.834 303.099V375.353C340.833 376.115 340.53 376.845 339.991 377.384C339.453 377.922 338.722 378.225 337.96 378.226ZM298.155 298.328C296.348 298.33 294.616 299.049 293.339 300.326C292.061 301.603 291.343 303.336 291.341 305.142V375.645C291.341 376.02 291.491 376.38 291.756 376.645C292.022 376.91 292.381 377.058 292.756 377.058H337.96C338.413 377.058 338.847 376.879 339.166 376.559C339.486 376.239 339.666 375.805 339.666 375.353V303.099C339.665 301.834 339.161 300.621 338.267 299.727C337.372 298.832 336.16 298.329 334.895 298.328H298.155Z" fill="#0D6376"/>
<path d="M322.151 312.191H307.748C305.922 312.191 304.442 313.671 304.442 315.497V329.901C304.442 331.726 305.922 333.206 307.748 333.206H322.151C323.977 333.206 325.457 331.726 325.457 329.901V315.497C325.457 313.671 323.977 312.191 322.151 312.191Z" fill="#0D6376"/>
<path d="M376.977 22.6367H248.421C246.005 22.6367 244.045 24.5958 244.045 27.0126V102.561C244.045 104.978 246.005 106.937 248.421 106.937H376.977C379.394 106.937 381.353 104.978 381.353 102.561V27.0126C381.353 24.5958 379.394 22.6367 376.977 22.6367Z" fill="white"/>
<path d="M376.978 107.522H248.422C247.107 107.52 245.847 106.997 244.918 106.068C243.988 105.138 243.465 103.878 243.463 102.564V27.0153C243.465 25.7003 243.987 24.4397 244.917 23.5096C245.846 22.5796 247.107 22.0562 248.422 22.0541H376.978C378.293 22.0555 379.554 22.5786 380.484 23.5087C381.414 24.4388 381.937 25.6999 381.939 27.0153V102.564C381.937 103.879 381.413 105.139 380.483 106.069C379.553 106.998 378.292 107.521 376.978 107.522ZM248.422 23.2166C247.416 23.218 246.453 23.6182 245.742 24.3294C245.031 25.0405 244.632 26.0046 244.631 27.01V102.564C244.632 103.569 245.031 104.533 245.742 105.245C246.453 105.956 247.416 106.356 248.422 106.357H376.978C377.983 106.357 378.948 105.957 379.659 105.246C380.37 104.534 380.77 103.57 380.771 102.564V27.0153C380.771 26.5167 380.673 26.0231 380.483 25.5624C380.293 25.1017 380.013 24.683 379.661 24.3303C379.309 23.9775 378.89 23.6976 378.43 23.5066C377.97 23.3155 377.476 23.2169 376.978 23.2166H248.422Z" fill="#0D6376"/>
<path d="M274.79 74.0859C278.173 74.0859 280.916 71.343 280.916 67.9595C280.916 64.576 278.173 61.8332 274.79 61.8332C271.406 61.8332 268.663 64.576 268.663 67.9595C268.663 71.343 271.406 74.0859 274.79 74.0859Z" fill="#0D6376"/>
<path d="M294.044 73.7959C297.427 73.7959 300.17 71.0531 300.17 67.6696C300.17 64.2861 297.427 61.5432 294.044 61.5432C290.66 61.5432 287.917 64.2861 287.917 67.6696C287.917 71.0531 290.66 73.7959 294.044 73.7959Z" fill="#0D6376"/>
<path d="M313.591 73.5033C316.975 73.5033 319.718 70.7604 319.718 67.3769C319.718 63.9934 316.975 61.2506 313.591 61.2506C310.208 61.2506 307.465 63.9934 307.465 67.3769C307.465 70.7604 310.208 73.5033 313.591 73.5033Z" fill="#0D6376"/>
<path d="M332.845 73.2133C336.229 73.2133 338.972 70.4704 338.972 67.0869C338.972 63.7034 336.229 60.9606 332.845 60.9606C329.462 60.9606 326.719 63.7034 326.719 67.0869C326.719 70.4704 329.462 73.2133 332.845 73.2133Z" fill="#0D6376"/>
<path d="M351.808 72.6281C355.191 72.6281 357.934 69.8852 357.934 66.5017C357.934 63.1182 355.191 60.3754 351.808 60.3754C348.424 60.3754 345.681 63.1182 345.681 66.5017C345.681 69.8852 348.424 72.6281 351.808 72.6281Z" fill="#0D6376"/>
<path d="M244.884 453.835C244.732 453.842 244.583 453.788 244.47 453.686C244.357 453.584 244.288 453.442 244.279 453.29C244.269 453.138 244.319 452.989 244.418 452.873C244.518 452.758 244.658 452.686 244.81 452.673C295.729 446.315 350.374 404.521 350.93 404.1C351.053 404.014 351.205 403.979 351.353 404.002C351.501 404.025 351.635 404.104 351.727 404.223C351.819 404.341 351.861 404.491 351.846 404.64C351.83 404.79 351.758 404.927 351.644 405.025C351.096 405.447 296.196 447.43 244.965 453.83L244.884 453.835Z" fill="#0D6376"/>
<path d="M240.492 462.938C240.338 462.941 240.188 462.883 240.077 462.777C239.965 462.67 239.9 462.523 239.897 462.369C239.893 462.214 239.951 462.065 240.058 461.953C240.165 461.841 240.312 461.776 240.466 461.773C280.271 459.927 331.911 427.73 332.43 427.403C332.561 427.321 332.719 427.294 332.87 427.329C333.021 427.363 333.152 427.456 333.234 427.588C333.316 427.719 333.343 427.877 333.308 428.028C333.274 428.179 333.18 428.309 333.049 428.392C332.522 428.718 280.617 461.079 240.521 462.925L240.492 462.938Z" fill="#0D6376"/>
<path d="M235.995 459.495C234.91 459.495 233.869 459.069 233.095 458.309C232.404 457.634 231.97 456.739 231.866 455.779C231.761 454.818 231.995 453.851 232.525 453.044C233.055 452.236 233.85 451.638 234.773 451.352C235.696 451.066 236.689 451.109 237.583 451.475C238.478 451.841 239.217 452.506 239.675 453.357C240.132 454.208 240.28 455.192 240.092 456.139C239.904 457.087 239.393 457.94 238.646 458.552C237.898 459.164 236.961 459.498 235.995 459.495ZM233.886 457.476C234.31 457.891 234.847 458.17 235.429 458.28C236.012 458.389 236.614 458.324 237.159 458.091C237.704 457.858 238.168 457.469 238.492 456.973C238.817 456.476 238.986 455.895 238.98 455.302C238.974 454.71 238.792 454.132 238.457 453.643C238.123 453.153 237.651 452.774 237.101 452.553C236.551 452.332 235.947 452.279 235.367 452.401C234.787 452.522 234.256 452.813 233.841 453.237C233.289 453.809 232.986 454.576 232.999 455.371C233.011 456.165 233.339 456.923 233.91 457.476H233.886Z" fill="#0D6376"/>
<path d="M361.783 402.61H361.738C361.635 402.604 361.536 402.571 361.449 402.514C361.363 402.457 361.294 402.379 361.248 402.286L356.202 392.01C356.161 391.925 356.14 391.832 356.143 391.737C356.146 391.642 356.172 391.55 356.218 391.467C356.264 391.384 356.329 391.314 356.409 391.262C356.489 391.211 356.58 391.18 356.674 391.172L369.164 390.054C369.273 390.044 369.383 390.065 369.48 390.115C369.578 390.165 369.66 390.241 369.716 390.334C369.773 390.428 369.801 390.536 369.799 390.646C369.797 390.755 369.764 390.862 369.705 390.953L362.265 402.347C362.213 402.427 362.141 402.493 362.057 402.539C361.973 402.585 361.879 402.609 361.783 402.61ZM357.613 392.248L361.852 400.849L368.06 391.312L357.613 392.248Z" fill="#0D6376"/>
<path d="M431.627 106.988C431.512 106.987 431.4 106.952 431.305 106.888C431.209 106.823 431.135 106.732 431.091 106.626C431.047 106.52 431.036 106.403 431.058 106.29C431.08 106.177 431.135 106.073 431.216 105.991L433.251 103.953C433.361 103.844 433.509 103.782 433.664 103.782C433.819 103.782 433.967 103.844 434.076 103.953C434.186 104.063 434.247 104.211 434.247 104.366C434.247 104.521 434.186 104.669 434.076 104.778L432.041 106.816C431.987 106.871 431.922 106.914 431.851 106.943C431.78 106.973 431.704 106.988 431.627 106.988Z" fill="#0D6376"/>
<path d="M439.319 99.2956C439.243 99.2962 439.166 99.2813 439.095 99.2519C439.024 99.2225 438.96 99.179 438.906 99.1242C438.797 99.0146 438.735 98.8662 438.735 98.7116C438.735 98.557 438.797 98.4086 438.906 98.299L440.941 96.2636C441.05 96.1541 441.199 96.0927 441.354 96.0927C441.508 96.0927 441.657 96.1541 441.766 96.2636C441.876 96.373 441.937 96.5214 441.937 96.6762C441.937 96.831 441.876 96.9794 441.766 97.0888L439.731 99.1242C439.677 99.1788 439.613 99.2222 439.543 99.2516C439.472 99.281 439.396 99.296 439.319 99.2956Z" fill="#0D6376"/>
<path d="M441.349 106.988C441.194 106.987 441.046 106.926 440.935 106.816L438.9 104.781C438.841 104.728 438.793 104.663 438.76 104.591C438.726 104.519 438.708 104.441 438.705 104.362C438.703 104.282 438.717 104.203 438.746 104.129C438.776 104.055 438.82 103.988 438.876 103.932C438.932 103.875 438.999 103.831 439.073 103.801C439.147 103.772 439.226 103.758 439.305 103.76C439.385 103.762 439.463 103.78 439.535 103.813C439.607 103.846 439.672 103.894 439.725 103.953L441.761 105.991C441.842 106.073 441.896 106.177 441.919 106.29C441.941 106.403 441.929 106.519 441.885 106.626C441.841 106.732 441.767 106.823 441.672 106.888C441.577 106.952 441.464 106.987 441.349 106.988Z" fill="#0D6376"/>
<path d="M433.665 99.2956C433.588 99.2962 433.512 99.2813 433.441 99.2519C433.369 99.2225 433.305 99.179 433.251 99.1242L431.216 97.0888C431.106 96.9794 431.045 96.831 431.045 96.6762C431.045 96.5214 431.106 96.373 431.216 96.2636C431.325 96.1541 431.473 96.0927 431.628 96.0927C431.783 96.0927 431.931 96.1541 432.041 96.2636L434.076 98.299C434.185 98.4086 434.246 98.557 434.246 98.7116C434.246 98.8662 434.185 99.0146 434.076 99.1242C434.023 99.1788 433.959 99.2222 433.888 99.2516C433.817 99.281 433.741 99.296 433.665 99.2956Z" fill="#0D6376"/>
<path d="M12.0009 192.984C11.9172 192.984 11.8343 192.966 11.7584 192.931C11.6178 192.866 11.5084 192.749 11.4541 192.604C11.3998 192.46 11.4049 192.299 11.4684 192.158L12.6627 189.538C12.7383 189.417 12.8551 189.328 12.9913 189.288C13.1276 189.247 13.2739 189.258 13.4031 189.317C13.5322 189.376 13.6353 189.481 13.6932 189.611C13.751 189.741 13.7596 189.887 13.7173 190.023L12.523 192.643C12.4771 192.744 12.4036 192.829 12.3112 192.889C12.2188 192.949 12.1112 192.982 12.0009 192.984Z" fill="#0D6376"/>
<path d="M16.5084 183.09C16.4246 183.091 16.3418 183.073 16.2658 183.037C16.1962 183.006 16.1336 182.96 16.0815 182.904C16.0294 182.848 15.9888 182.782 15.9621 182.711C15.9354 182.639 15.9231 182.563 15.9259 182.486C15.9287 182.41 15.9466 182.335 15.9785 182.265L17.1702 179.644C17.1949 179.565 17.2363 179.491 17.2916 179.429C17.3469 179.367 17.4149 179.317 17.4909 179.284C17.567 179.25 17.6494 179.232 17.7326 179.233C17.8158 179.233 17.898 179.252 17.9736 179.286C18.0493 179.321 18.1166 179.372 18.1711 179.435C18.2257 179.498 18.2662 179.571 18.29 179.651C18.3137 179.731 18.3202 179.815 18.309 179.897C18.2977 179.98 18.269 180.059 18.2248 180.129L17.0331 182.747C16.9871 182.848 16.9134 182.934 16.8205 182.995C16.7276 183.056 16.6194 183.089 16.5084 183.09Z" fill="#0D6376"/>
<path d="M21.1094 189.58C21.0266 189.579 20.9449 189.561 20.8695 189.527L18.2487 188.333C18.1237 188.26 18.0303 188.144 17.9865 188.006C17.9428 187.868 17.9519 187.719 18.012 187.587C18.0722 187.456 18.1792 187.351 18.3121 187.294C18.445 187.237 18.5944 187.231 18.7312 187.278L21.3519 188.473C21.4745 188.527 21.5746 188.622 21.6353 188.742C21.6959 188.861 21.7135 188.998 21.685 189.129C21.6565 189.26 21.5837 189.377 21.4788 189.461C21.374 189.545 21.2435 189.59 21.1094 189.588V189.58Z" fill="#0D6376"/>
<path d="M11.2131 185.075C11.1295 185.074 11.047 185.056 10.9706 185.022L8.35251 183.828C8.2275 183.755 8.13403 183.638 8.09028 183.501C8.04653 183.363 8.05563 183.213 8.11581 183.082C8.17599 182.95 8.28294 182.846 8.41587 182.789C8.5488 182.732 8.69819 182.726 8.83499 182.773L11.4557 183.968C11.5758 184.024 11.6732 184.119 11.732 184.238C11.7907 184.357 11.8074 184.492 11.7792 184.622C11.751 184.752 11.6797 184.868 11.5768 184.951C11.474 185.035 11.3458 185.082 11.2131 185.083V185.075Z" fill="#0D6376"/>
<path d="M38.2064 224.962C37.3759 224.962 36.564 224.716 35.8734 224.254C35.1828 223.793 34.6446 223.137 34.3267 222.369C34.0089 221.602 33.9257 220.758 34.0878 219.943C34.2498 219.129 34.6497 218.38 35.237 217.793C35.8243 217.206 36.5726 216.806 37.3872 216.644C38.2018 216.482 39.0461 216.565 39.8134 216.883C40.5808 217.201 41.2366 217.739 41.6981 218.429C42.1595 219.12 42.4058 219.932 42.4058 220.762C42.4009 221.875 41.9569 222.94 41.1704 223.726C40.384 224.513 39.3187 224.957 38.2064 224.962ZM38.2064 217.731C37.6068 217.731 37.0207 217.909 36.5222 218.242C36.0236 218.575 35.6351 219.048 35.4056 219.602C35.1762 220.156 35.1162 220.766 35.2331 221.354C35.3501 221.942 35.6388 222.482 36.0628 222.906C36.4868 223.33 37.0269 223.619 37.615 223.736C38.2031 223.853 38.8126 223.793 39.3665 223.563C39.9205 223.334 40.3939 222.945 40.7271 222.447C41.0602 221.948 41.238 221.362 41.238 220.762C41.2373 219.959 40.9176 219.188 40.3493 218.62C39.7809 218.051 39.0102 217.732 38.2064 217.731Z" fill="#0D6376"/>
<path d="M235.17 243.088C235.17 243.088 260.761 260.315 272.724 257.059C289.556 252.496 296.976 209.609 297.691 205.808C298.405 202.006 301.645 182.699 305.022 175.492C308.185 168.725 310.107 161.784 311.122 157.538C311.733 154.97 313.494 153.728 315.216 153.992C316.739 154.224 317.749 155.418 316.892 159.246C315.904 163.675 315.021 168.127 314.211 171.915C313.948 173.107 313.471 174.235 314.312 173.386C316.265 171.414 319.423 169.218 322.613 168.151C324.013 167.681 335.171 155.592 338.137 157.079C340.791 158.397 325.665 174.976 326.274 176.955C327.772 181.837 326.915 188.364 324.545 194.256C320.509 204.273 314.061 203.158 312.946 207.88C311.831 212.601 306.016 272.499 301.347 283.463C294.654 299.232 230.467 287.723 230.467 287.723L235.17 243.088Z" fill="white"/>
<path d="M272.677 292.394C253.51 292.394 231.909 288.587 230.375 288.311C230.23 288.285 230.1 288.205 230.011 288.087C229.923 287.969 229.882 287.822 229.898 287.675L234.59 243.027C234.601 242.927 234.637 242.831 234.695 242.749C234.754 242.667 234.833 242.602 234.924 242.559C235.015 242.517 235.116 242.499 235.217 242.507C235.317 242.515 235.414 242.549 235.497 242.605C235.761 242.777 260.999 259.645 272.571 256.508C286.944 252.61 294.451 220.038 297.024 206.214L297.116 205.71C297.198 205.281 297.311 204.656 297.454 203.865C298.556 197.802 301.479 181.721 304.492 175.26C307.547 168.717 309.477 161.945 310.555 157.414C311.204 154.696 313.112 153.096 315.3 153.428C315.68 153.469 316.046 153.59 316.375 153.783C316.704 153.976 316.988 154.237 317.209 154.548C317.884 155.537 317.968 157.121 317.472 159.386C316.85 162.172 316.278 164.935 315.725 167.605C315.403 169.155 315.092 170.65 314.792 172.05C314.792 172.092 314.776 172.137 314.765 172.179C316.634 170.51 319.41 168.625 322.439 167.61C322.792 167.465 324.355 166.029 325.737 164.766C331.346 159.618 336.171 155.45 338.409 156.568C338.559 156.641 338.692 156.749 338.795 156.881C338.898 157.013 338.97 157.168 339.004 157.332C339.4 159.006 336.632 162.868 332.042 169.021C329.839 171.973 326.82 176.017 326.847 176.831C328.294 181.537 327.637 188.151 325.094 194.494C322.703 200.435 319.394 202.631 316.982 204.247C315.216 205.418 313.943 206.264 313.524 208.043C313.207 209.361 312.469 215.546 311.533 223.356C309.182 242.988 305.249 275.844 301.906 283.724C299.049 290.414 286.495 292.394 272.677 292.394ZM231.116 287.256C237.297 288.311 294.702 297.666 300.82 283.249C304.099 275.525 308.022 242.771 310.366 223.201C311.341 215.047 312.047 209.153 312.377 207.759C312.904 205.534 314.486 204.479 316.331 203.259C318.746 201.656 321.751 199.66 324.005 194.051C326.456 187.956 327.097 181.634 325.718 177.137C325.399 176.101 326.941 173.897 331.101 168.325C333.811 164.697 338.343 158.629 337.858 157.588C336.181 156.765 329.657 162.749 326.522 165.628C324.324 167.645 323.33 168.544 322.805 168.72C319.463 169.838 316.368 172.163 314.734 173.813C314.523 174.027 314.082 174.472 313.6 174.198C313.118 173.924 313.247 173.386 313.458 172.585C313.521 172.345 313.592 172.079 313.65 171.81C313.948 170.41 314.259 168.91 314.578 167.37C315.134 164.695 315.706 161.929 316.334 159.135C316.758 157.227 316.734 155.906 316.255 155.21C316.125 155.031 315.958 154.882 315.765 154.774C315.572 154.666 315.357 154.602 315.137 154.585C313.576 154.345 312.198 155.595 311.71 157.688C310.616 162.27 308.665 169.126 305.568 175.756C302.618 182.083 299.716 198.06 298.622 204.078C298.479 204.869 298.358 205.497 298.282 205.924L298.189 206.422C295.585 220.462 287.908 253.559 272.896 257.629C271.744 257.925 270.558 258.069 269.368 258.056C257.785 258.056 239.752 246.757 235.668 244.1L231.116 287.256Z" fill="#0D6376"/>
<path d="M127.461 219.782C158.303 206.019 217.933 208.871 259.76 253.759C264.679 259.031 250.47 298.837 237.804 296.111C226.608 293.691 217.482 290.889 216.628 297.371C215.447 306.334 223.482 378.089 211.785 398.334C190.894 434.492 128.584 429.093 96.5232 411.465C88.0559 406.812 96.9476 394.003 103.169 352.223C107.806 321.099 110.516 295.307 104.766 305.256C101.951 310.138 72.4738 280.776 75.5502 272.009C82.3092 252.778 94.1718 234.634 127.461 219.782Z" fill="#0D6376"/>
<path d="M290.932 209.651L315.637 213.002C317.314 269.942 311.891 310.87 237.803 296.111L247.799 243.151C275.426 262.432 285.71 238.981 290.932 209.651Z" fill="#0D6376"/>
<path d="M82.3932 257.808C46.3811 310.151 67.0826 417.183 115.893 417.982L114.638 371.712C110.552 366.543 108.491 315.471 116.22 299.266L82.3932 257.808Z" fill="#0D6376"/>
<path d="M94.3794 410.4C94.3267 410.4 94.2743 410.392 94.2239 410.376C94.15 410.356 94.0807 410.322 94.0203 410.275C93.9598 410.228 93.9092 410.169 93.8714 410.102C93.8337 410.036 93.8095 409.962 93.8003 409.886C93.7911 409.81 93.7971 409.733 93.8179 409.659C101.096 383.562 105.153 341.779 106.516 311.382C106.52 311.305 106.538 311.23 106.571 311.161C106.603 311.092 106.649 311.029 106.705 310.978C106.762 310.926 106.828 310.886 106.9 310.86C106.972 310.834 107.049 310.822 107.125 310.826C107.202 310.829 107.277 310.848 107.346 310.88C107.415 310.913 107.478 310.958 107.529 311.015C107.581 311.071 107.621 311.138 107.647 311.21C107.673 311.282 107.685 311.358 107.681 311.435C106.313 341.895 102.246 383.778 94.9409 409.973C94.9065 410.095 94.8331 410.203 94.7317 410.281C94.6304 410.358 94.5067 410.399 94.3794 410.4Z" fill="#0D4C59"/>
<path d="M146.148 215.068C146.48 213.843 158.614 203.783 155.435 181.168C155.435 181.168 139.023 158.856 144.013 149.007C149.003 139.159 148.584 124.618 165.349 124.491C182.115 124.365 191.974 131.893 195.839 141.671C199.703 151.448 200.724 161.249 201.082 166.941C201.346 171.159 200.782 180.569 200.468 185.18C200.416 185.954 200.126 186.693 199.636 187.295C199.146 187.896 198.482 188.331 197.734 188.538L192.668 189.959C191.866 190.184 191.162 190.668 190.666 191.336C190.169 192.004 189.909 192.818 189.926 193.65L190.126 202.737C190.917 224.88 183.75 221.798 178.493 222.995C165.062 226.035 144.39 221.559 146.148 215.068Z" fill="white"/>
<path d="M168.745 224.558C159.611 224.558 150.202 222.307 146.788 218.759C145.644 217.567 145.228 216.239 145.586 214.921C145.668 214.615 145.945 214.28 146.551 213.542C149.258 210.258 157.483 200.274 154.876 181.4C153.442 179.428 138.532 158.531 143.493 148.757C144.674 146.424 145.573 143.748 146.44 141.17C149.272 132.734 152.2 124.019 165.344 123.927C180.61 123.822 191.929 130.214 196.382 141.476C199.282 148.825 201.066 157.387 201.654 166.922C201.918 171.09 201.39 180.187 201.04 185.238C200.977 186.132 200.64 186.985 200.073 187.68C199.507 188.374 198.74 188.877 197.876 189.118L192.81 190.539C192.131 190.728 191.534 191.137 191.114 191.703C190.695 192.269 190.476 192.959 190.493 193.663L190.683 202.718C191.376 222.149 185.824 222.721 180.929 223.225C180.145 223.288 179.366 223.399 178.596 223.557C175.359 224.25 172.055 224.586 168.745 224.558ZM146.707 215.24C146.464 216.16 146.767 217.046 147.629 217.944C152.018 222.515 167.809 224.798 178.351 222.426C179.167 222.259 179.993 222.141 180.823 222.073C185.426 221.598 190.187 221.108 189.523 202.758L189.333 193.695C189.313 192.733 189.613 191.792 190.185 191.019C190.758 190.246 191.571 189.685 192.496 189.424L197.563 188.003C198.193 187.825 198.752 187.457 199.165 186.95C199.578 186.442 199.825 185.82 199.872 185.167C200.209 180.158 200.739 171.106 200.484 167.004C199.893 157.59 198.143 149.15 195.28 141.913C191.015 131.124 180.114 125.008 165.336 125.1C153.025 125.19 150.358 133.135 147.532 141.55C146.651 144.172 145.739 146.882 144.516 149.292C139.745 158.705 155.727 180.617 155.888 180.836C155.946 180.913 155.983 181.004 155.996 181.099C158.735 200.578 150.231 210.901 147.437 214.293C147.175 214.594 146.931 214.91 146.707 215.24Z" fill="#0D6376"/>
<path d="M190.148 156.805C191.141 156.387 191.992 155.69 192.597 154.798C193.201 153.906 193.534 152.858 193.554 151.78C193.606 149.144 192.001 143.081 195.847 141.684C206.181 137.93 202.174 125.506 196.016 120.911C189.858 116.317 165.772 108.685 153.587 115.31C153.587 115.31 148.766 119.351 149.847 123.35C149.847 123.35 140.148 123.632 137.881 130.818C135.614 138.004 131.795 164.392 155.978 184.358C160.403 184.735 164.859 184.363 169.159 183.256C171.133 182.716 172.904 181.605 174.248 180.062C175.593 178.519 176.451 176.612 176.714 174.583C177.574 168.238 180.141 158.502 181.91 155.632C181.91 155.632 180.79 151.15 183.312 149.98C184.949 149.229 186.942 151.127 187.828 152.695L190.148 156.805Z" fill="#0D6376"/>
<path d="M199.801 187.476H199.704C199.614 187.46 190.617 185.85 188.516 176.067C188.483 175.916 188.512 175.758 188.596 175.628C188.68 175.498 188.813 175.406 188.964 175.374C189.115 175.341 189.274 175.37 189.404 175.454C189.534 175.538 189.625 175.67 189.657 175.822C191.595 184.837 199.814 186.311 199.896 186.324C200.038 186.351 200.165 186.43 200.252 186.545C200.34 186.66 200.382 186.803 200.37 186.947C200.358 187.091 200.293 187.225 200.188 187.324C200.083 187.424 199.946 187.48 199.801 187.484V187.476Z" fill="#0D6376"/>
<path d="M188.423 166.785C188.115 166.785 180.845 166.464 178.91 153.605C178.898 153.529 178.902 153.451 178.921 153.377C178.939 153.303 178.972 153.233 179.018 153.171C179.064 153.11 179.121 153.058 179.187 153.018C179.253 152.979 179.325 152.953 179.401 152.942C179.477 152.93 179.554 152.934 179.629 152.953C179.703 152.971 179.773 153.004 179.835 153.05C179.896 153.096 179.948 153.153 179.988 153.219C180.027 153.285 180.053 153.357 180.064 153.433C181.841 165.272 188.184 165.623 188.452 165.631C188.601 165.642 188.739 165.71 188.839 165.82C188.939 165.93 188.993 166.073 188.991 166.222C188.989 166.37 188.931 166.513 188.828 166.62C188.725 166.727 188.585 166.791 188.437 166.798L188.423 166.785Z" fill="#0D6376"/>
<path d="M292.999 407.186L291.87 403.066L287.215 403.28C286.789 402.382 286.288 401.521 285.718 400.707L288.182 396.753L285.148 393.75L281.22 396.262C280.403 395.701 279.539 395.209 278.64 394.791L278.8 390.128L274.672 389.045L272.532 393.181C271.542 393.105 270.547 393.112 269.558 393.202L267.368 389.084L263.25 390.212L263.463 394.873C262.566 395.299 261.706 395.8 260.893 396.37L256.939 393.903L253.937 396.94L256.449 400.87C255.888 401.688 255.396 402.552 254.978 403.451L250.32 403.29L249.236 407.424L253.37 409.567C253.294 410.558 253.301 411.553 253.391 412.543L249.276 414.734L250.404 418.854L255.06 418.64C255.485 419.539 255.986 420.399 256.557 421.213L254.092 425.167L257.126 428.17L261.054 425.658C261.871 426.219 262.734 426.711 263.632 427.129L263.471 431.792L267.6 432.876L269.743 428.739C270.733 428.815 271.727 428.808 272.716 428.718L274.907 432.836L279.022 431.708L278.811 427.047C279.708 426.62 280.568 426.12 281.381 425.55L285.335 428.017L288.338 424.98L285.826 421.05C286.385 420.231 286.877 419.368 287.297 418.469L291.955 418.63L293.038 414.496L288.905 412.353C288.981 411.362 288.974 410.367 288.884 409.377L292.999 407.186ZM274.042 421.567C271.945 422.142 269.724 422.083 267.66 421.396C265.597 420.709 263.783 419.426 262.449 417.708C261.115 415.991 260.32 413.916 260.165 411.747C260.01 409.577 260.502 407.411 261.579 405.521C262.655 403.631 264.268 402.103 266.213 401.13C268.158 400.157 270.348 399.782 272.506 400.054C274.664 400.326 276.693 401.231 278.336 402.656C279.979 404.081 281.163 405.961 281.737 408.059C282.119 409.451 282.224 410.905 282.044 412.338C281.864 413.77 281.404 415.153 280.689 416.407C279.974 417.662 279.019 418.763 277.879 419.648C276.739 420.534 275.435 421.185 274.042 421.567Z" fill="url(#paint3_linear_17_124)"/>
<path d="M92.6924 124.742C114.139 124.742 131.525 107.356 131.525 85.9089C131.525 64.4621 114.139 47.0761 92.6924 47.0761C71.2456 47.0761 53.8596 64.4621 53.8596 85.9089C53.8596 107.356 71.2456 124.742 92.6924 124.742Z" fill="#0D6376"/>
<path d="M101.69 80.4363L101.495 68.1177C101.485 67.1151 101.275 66.1246 100.879 65.2036C100.482 64.2826 99.9072 63.4495 99.1864 62.7525C98.4656 62.0556 97.6136 61.5087 96.6798 61.1436C95.746 60.7785 94.749 60.6024 93.7466 60.6256C92.7442 60.6488 91.7564 60.8708 90.8405 61.2788C89.9246 61.6867 89.0988 62.2725 88.411 63.002C87.7233 63.7316 87.1872 64.5905 86.834 65.5288C86.4807 66.4672 86.3173 67.4663 86.3532 68.4683L86.4402 72.2881C86.4546 72.5968 86.4071 72.9053 86.3003 73.1953C86.1935 73.4853 86.0296 73.751 85.8184 73.9766C85.6071 74.2021 85.3528 74.3831 85.0704 74.5087C84.788 74.6343 84.4833 74.702 84.1743 74.7078C83.8653 74.7137 83.5583 74.6575 83.2714 74.5426C82.9845 74.4277 82.7235 74.2564 82.504 74.0389C82.2844 73.8215 82.1106 73.5622 81.993 73.2764C81.8753 72.9906 81.8162 72.6841 81.819 72.3751L81.7663 68.7451C81.7122 67.0659 82.0067 65.3938 82.6312 63.8341C83.2557 62.2744 84.1967 60.8611 85.3948 59.6833C86.5928 58.5055 88.022 57.5889 89.5922 56.9911C91.1623 56.3934 92.8392 56.1275 94.5173 56.2103C100.528 56.4555 106.024 61.7462 106.174 68.1784L106.33 80.6209L101.69 80.4363Z" fill="white"/>
<path d="M106.329 81.2113H106.297L101.658 81.0215C101.509 81.0155 101.369 80.9529 101.265 80.8465C101.161 80.7402 101.102 80.5981 101.099 80.4494L100.901 68.1308C100.861 66.3581 100.152 64.6663 98.9155 63.3949C97.6794 62.1236 96.0081 61.367 94.2372 61.2769C93.2813 61.2298 92.326 61.3819 91.432 61.7236C90.538 62.0653 89.7248 62.5892 89.0441 63.2619C88.3573 63.9371 87.8159 64.7456 87.4532 65.6378C87.0905 66.53 86.9142 67.487 86.9352 68.4498L87.0222 72.2722C87.0293 72.653 86.9613 73.0315 86.8221 73.386C86.6829 73.7405 86.4753 74.0642 86.2111 74.3384C85.9468 74.6127 85.6311 74.8323 85.282 74.9846C84.9329 75.1368 84.5573 75.2189 84.1765 75.226C83.7957 75.2331 83.4172 75.1651 83.0627 75.0259C82.7081 74.8868 82.3845 74.6791 82.1102 74.4149C81.8359 74.1506 81.6164 73.8349 81.4641 73.4858C81.3118 73.1367 81.2298 72.7611 81.2227 72.3803L81.17 68.753C81.1164 66.9945 81.4277 65.244 82.0841 63.6118C82.7405 61.9795 83.7279 60.5009 84.9839 59.2691C86.24 58.0373 87.7376 57.079 89.3823 56.4546C91.0271 55.8301 92.7833 55.5531 94.5404 55.6409H94.6274C101.06 55.9519 106.606 61.6723 106.754 68.1756L106.909 80.6234C106.91 80.7024 106.894 80.7806 106.864 80.8535C106.833 80.9264 106.789 80.9925 106.732 81.0478C106.624 81.1526 106.48 81.2112 106.329 81.2113ZM102.264 79.8774L105.739 80.0198L105.591 68.1941C105.454 62.2602 100.369 57.0407 94.4929 56.8008C94.4658 56.8035 94.4384 56.8035 94.4112 56.8008C92.8193 56.7324 91.2304 56.9935 89.7441 57.5679C88.2578 58.1423 86.9062 59.0174 85.7739 60.1385C84.6417 61.2597 83.7532 62.6026 83.1642 64.0831C82.5751 65.5636 82.2983 67.1499 82.3509 68.7424L82.401 72.3776C82.4081 72.8192 82.5837 73.2413 82.892 73.5574C83.2004 73.8736 83.6179 74.0598 84.0592 74.0779C84.2952 74.0882 84.5308 74.0497 84.7513 73.9649C84.9718 73.8802 85.1724 73.7509 85.3408 73.5852C85.5092 73.4196 85.6417 73.221 85.7301 73.0019C85.8184 72.7828 85.8607 72.5479 85.8544 72.3117L85.7674 68.492C85.7423 67.3664 85.9484 66.2476 86.3728 65.2048C86.7972 64.1619 87.4309 63.2172 88.2348 62.4289C89.0289 61.6426 89.9783 61.0305 91.0222 60.6315C92.0661 60.2326 93.1817 60.0556 94.2979 60.1118C96.3643 60.2157 98.3151 61.0974 99.7584 62.5799C101.202 64.0624 102.031 66.036 102.08 68.1045L102.264 79.8774Z" fill="#0D6376"/>
<path d="M96.5438 114.305L91.3454 114.511C84.1514 114.332 77.7905 105.733 78.4732 95.623L79.5646 79.4556L110.144 79.2104C110.799 79.2192 111.445 79.3599 112.044 79.6241C112.643 79.8884 113.183 80.2708 113.631 80.7484C114.08 81.2261 114.427 81.7892 114.652 82.4041C114.878 83.019 114.977 83.6731 114.944 84.3272L114 97.9823C113.702 102.409 111.733 106.558 108.493 109.588C105.252 112.618 100.981 114.305 96.5438 114.305Z" fill="white"/>
<path d="M91.5353 114.052C89.1375 114.052 86.7652 113.56 84.5657 112.605C82.3662 111.65 80.3864 110.253 78.7491 108.501C77.1117 106.75 75.8519 104.68 75.0476 102.421C74.2433 100.162 73.9118 97.7623 74.0736 95.3699L75.128 79.6955H107.463C107.815 79.6955 108.163 79.7677 108.486 79.9078C108.809 80.0478 109.1 80.2527 109.34 80.5098C109.581 80.7668 109.766 81.0705 109.884 81.4021C110.002 81.7336 110.051 82.0859 110.028 82.4371L108.994 97.7266C108.696 102.154 106.726 106.303 103.485 109.333C100.244 112.364 95.9727 114.051 91.5353 114.052Z" fill="white"/>
<path d="M91.5352 114.637C89.0573 114.637 86.6059 114.128 84.333 113.141C82.0601 112.154 80.0142 110.711 78.3223 108.901C76.6304 107.09 75.3285 104.952 74.4974 102.617C73.6663 100.283 73.3237 97.8026 73.4909 95.3304L74.5454 79.656C74.5554 79.5084 74.6212 79.3702 74.7294 79.2694C74.8376 79.1685 74.9801 79.1126 75.128 79.113H107.463C107.894 79.1143 108.321 79.2038 108.716 79.3761C109.112 79.5484 109.468 79.7999 109.763 80.1149C110.058 80.43 110.285 80.802 110.431 81.2082C110.576 81.6144 110.638 82.046 110.61 82.4767L109.577 97.7662C109.257 102.337 107.218 106.617 103.871 109.747C100.525 112.877 96.1173 114.624 91.5352 114.637ZM75.6737 80.2781L74.664 95.4095C74.5069 97.7216 74.8266 100.041 75.6033 102.225C76.38 104.408 77.597 106.409 79.179 108.102C80.761 109.795 82.6741 111.146 84.7996 112.069C86.9252 112.992 89.2178 113.469 91.5352 113.47C95.8199 113.456 99.9408 111.822 103.07 108.895C106.2 105.969 108.106 101.967 108.406 97.6924L109.44 82.4029C109.457 82.1322 109.418 81.8609 109.326 81.6057C109.234 81.3506 109.091 81.117 108.905 80.9194C108.719 80.7218 108.495 80.5643 108.246 80.4568C107.997 80.3492 107.729 80.2938 107.457 80.294L75.6737 80.2781Z" fill="#0D6376"/>
<path d="M91.1294 104.146C90.9323 104.147 90.737 104.108 90.5557 104.03C90.3744 103.953 90.2111 103.839 90.0759 103.695C89.9408 103.552 89.8368 103.382 89.7704 103.196C89.704 103.011 89.6767 102.813 89.6901 102.617L90.4809 90.4378C90.5051 90.0595 90.6784 89.7063 90.9629 89.4559C91.2475 89.2055 91.6198 89.0784 91.998 89.1026C92.3763 89.1267 92.7294 89.3001 92.9798 89.5846C93.2302 89.8691 93.3573 90.2414 93.3332 90.6196L92.5582 102.806C92.5354 103.17 92.3748 103.51 92.1093 103.759C91.8438 104.008 91.4933 104.146 91.1294 104.146Z" fill="#0D6376"/>
<path d="M91.6301 96.8039C94.5375 96.8039 96.8944 94.447 96.8944 91.5396C96.8944 88.6322 94.5375 86.2753 91.6301 86.2753C88.7226 86.2753 86.3657 88.6322 86.3657 91.5396C86.3657 94.447 88.7226 96.8039 91.6301 96.8039Z" fill="#0D6376"/>
<defs>
<linearGradient id="paint0_linear_17_124" x1="59.5606" y1="322.119" x2="59.5606" y2="439.15" gradientUnits="userSpaceOnUse">
<stop stop-color="#0D4C59"/>
<stop offset="1" stop-color="#0D4C59" stop-opacity="0"/>
</linearGradient>
<linearGradient id="paint1_linear_17_124" x1="151" y1="422" x2="151" y2="506" gradientUnits="userSpaceOnUse">
<stop stop-color="#0E4550"/>
<stop offset="1" stop-color="#0D4C59" stop-opacity="0"/>
</linearGradient>
<linearGradient id="paint2_linear_17_124" x1="50.6303" y1="242.221" x2="50.6303" y2="310.632" gradientUnits="userSpaceOnUse">
<stop stop-color="#0D4C59"/>
<stop offset="1" stop-color="#0D4C59" stop-opacity="0"/>
</linearGradient>
<linearGradient id="paint3_linear_17_124" x1="271.117" y1="389.168" x2="271.117" y2="432.976" gradientUnits="userSpaceOnUse">
<stop stop-color="#0D4C59"/>
<stop offset="1" stop-color="#0D4C59" stop-opacity="0"/>
</linearGradient>
</defs>
</svg>
