<svg width="1136" height="216" viewBox="0 0 1136 216" fill="none" xmlns="http://www.w3.org/2000/svg">
<path fill-rule="evenodd" clip-rule="evenodd" d="M1136 0H1116V20H1094V121.858H1053.13H1043.31H960.756V161.167V216.2H1002.03V161.167L1043.31 161.167L1043.31 194.58H1023.65V216.2L1043.31 216.2H1053.13H1094.41V216H1136V20V0ZM1062.96 100.238H1043.31V121.858H1062.96V100.238ZM984.342 80.5836H1004V100.238H984.342V80.5836ZM1023.65 60.9291H1004V80.5836H1023.65V60.9291ZM909.655 174.925H960.756V196.545H909.655V174.925ZM909.655 196.545H890V216.2H909.655V196.545Z" fill="url(#paint0_linear_212_452)"/>
<path fill-rule="evenodd" clip-rule="evenodd" d="M348.891 -405.329V-448.168H351.11V-405.329L398.891 -405.329V-448.168L401.11 -448.168V-405.329H448.891V-448.168L451.11 -448.168V-405.329H498.891V-448.167L501.11 -448.167V-405.329L548.891 -405.329V-448.168L551.11 -448.168V-405.329H598.891V-448.167L601.11 -448.167V-405.329H648.891V-448.168L651.11 -448.168V-405.329L698.891 -405.329V-448.168L701.11 -448.168V-405.329H748.891V-448.168L751.11 -448.168V-405.329H798.891V-448.168L801.11 -448.168V-405.329L848.891 -405.329V-448.168L851.109 -448.168V-405.329H898.891V-448.167L901.11 -448.167V-405.329H948.891V-448.168L951.109 -448.168V-405.329L998.891 -405.329V-448.167L1001.11 -448.167V-405.329H1048.89V-448.168L1051.11 -448.168V-405.329H1098.89V-448.167L1101.11 -448.167V-405.329L1148.89 -405.329V-448.168L1151.11 -448.168V-405.329H1200V-403.111H1151.11V-361.383H1200V-359.165H1151.11V-317.438H1200V-315.219H1151.11V-273.493H1200V-271.274H1151.11V-229.548H1200V-227.329H1151.11V-185.602H1200V-183.384H1151.11V-141.657H1200V-139.438H1151.11V-97.7115H1200V-95.4929H1151.11V-53.7663H1200V-51.5477H1151.11V-9.82108H1200V-7.60245H1151.11V34.1241H1200V36.3428H1151.11V78.0694H1200V80.288H1151.11V122.015H1200V124.233H1151.11V165.96H1200V168.179H1151.11V209.905H1200V212.124H1151.11V253.851H1200V256.069H1151.11V297.796H1200V300.015H1151.11V341.741H1200V343.96H1151.11V385.686H1200V387.905H1151.11V429.632H1200V431.85H1151.11V473.577H1200V475.795H1151.11V517.522H1200V519.741H1151.11V561.467H1200V563.686H1151.11V606.519H1148.89V563.686H1101.11V606.52H1098.89V563.686H1051.11V606.519H1048.89V563.686H1001.11V606.519H998.891V563.686L951.11 563.686V606.519H948.891V563.686H901.11V606.519H898.891V563.686H851.109V606.519H848.891V563.686H801.11V606.519H798.891V563.686H751.11V606.519H748.891V563.686H701.11V606.519H698.891V563.686H651.11V606.519H648.891V563.686H601.11V606.519H598.891V563.686H551.11V606.519H548.891V563.686H501.11V606.519H498.891V563.686H451.11V606.519H448.891V563.686H401.11V606.519H398.891V563.686H351.11V606.519H348.891V563.686H301.11V606.519H298.891V563.686H251.11V606.519H248.891V563.686H201.11V606.519H198.891V563.686H151.11V606.519H148.891V563.686H101.11V606.519H98.8914V563.686H51.1102L51.1102 606.519H48.8915L48.8915 563.686H4.40253e-05L0 561.467H48.8915L48.8915 519.741H0.000288166L0.000244141 517.522H48.8915V475.795H0.000288202L0.000244105 473.577H48.8915L48.8915 431.85H0.000532342L0.000488246 429.632H48.8915V387.905H0.000532307L0.000488281 385.686H48.8915V343.96H0.000532342L0.000488246 341.741H48.8915L48.8915 300.015H0.000288148L0.000244158 297.796H48.8915V256.069H0.000776429L0.00073244 253.851H48.8915L48.8915 212.124H0.000288148L0.000244158 209.905H48.8915V168.179H0.000288148L0.000244158 165.96H48.8915L48.8915 124.233H0.000532289L0.000488299 122.015H48.8915L48.8915 80.2881H4.40076e-05L1.7739e-08 78.0695H48.8915V36.3428H0.000532298L0.00048829 34.1242H48.8915L48.8915 -7.60242H0.000288157L0.00024415 -9.82104H48.8915L48.8915 -51.5477H0.000776438L0.000732431 -53.7663H48.8915L48.8915 -95.4929H0.000288157L0.00024415 -97.7115H48.8915V-139.438H0.000288157L0.00024415 -141.657H48.8915L48.8915 -183.383H0.000532296L0.000488292 -185.602H48.8915V-227.329H0.000288155L0.000244152 -229.547H48.8915L48.8915 -271.274H0.000532298L0.00048829 -273.493H48.8915L48.8915 -315.219H0.000532298L0.00048829 -317.438H48.8915V-359.165H0.000532289L0.000488299 -361.383H48.8915L48.8915 -403.11H0.000532289L0.000488299 -405.329H48.8915V-448.168L51.1101 -448.168V-405.329L98.8914 -405.329V-448.168L101.11 -448.168V-405.329H148.891V-448.168L151.11 -448.168V-405.329H198.891V-448.168L201.11 -448.168V-405.329L248.891 -405.329V-448.168L251.11 -448.168V-405.329H298.891V-448.167L301.11 -448.167V-405.329H348.891ZM348.891 -403.111H301.11V-361.383H348.891V-403.111ZM348.891 -359.165H301.11V-317.438H348.891V-359.165ZM351.11 -317.438V-359.165H398.891V-317.438H351.11ZM348.891 -315.219H301.11V-273.493H348.891V-315.219ZM351.11 -273.493V-315.219H398.891V-273.493H351.11ZM348.891 -271.274H301.11V-229.547H348.891V-271.274ZM351.11 -229.547V-271.274H398.891V-229.547H351.11ZM348.891 -227.329H301.11V-185.602H348.891V-227.329ZM351.11 -185.602V-227.329H398.891V-185.602H351.11ZM348.891 -183.383H301.11V-141.657H348.891V-183.383ZM351.11 -141.657V-183.383H398.891V-141.657H351.11ZM348.891 -139.438H301.11V-97.7115H348.891V-139.438ZM351.11 -97.7115V-139.438H398.891V-97.7115H351.11ZM348.891 -95.4929H301.11V-53.7663H348.891V-95.4929ZM351.11 -53.7663V-95.4929H398.891V-53.7663H351.11ZM348.891 -51.5477H301.11V-9.82104H348.891V-51.5477ZM351.11 -9.82104V-51.5477H398.891V-9.82104H351.11ZM348.891 -7.60242H301.11V34.1242H348.891V-7.60242ZM351.11 34.1242V-7.60242H398.891V34.1242H351.11ZM348.891 36.3428H301.11V78.0695H348.891V36.3428ZM351.11 78.0695V36.3428H398.891V78.0695H351.11ZM348.891 80.2881H301.11V122.015H348.891V80.2881ZM351.11 122.015V80.2881H398.891V122.015H351.11ZM348.891 124.233H301.11V165.96H348.891V124.233ZM351.11 165.96V124.233H398.891V165.96H351.11ZM348.891 168.179H301.11V209.905H348.891V168.179ZM351.11 209.905V168.179H398.891V209.905H351.11ZM348.891 212.124H301.11V253.851H348.891V212.124ZM351.11 253.851V212.124H398.891V253.851H351.11ZM348.891 256.069H301.11V297.796H348.891V256.069ZM351.11 297.796V256.069H398.891V297.796H351.11ZM348.891 300.015H301.11V341.741H348.891V300.015ZM351.11 341.741V300.015H398.891V341.741H351.11ZM348.891 343.96H301.11V385.686H348.891V343.96ZM351.11 385.686V343.96H398.891V385.686H351.11ZM348.891 387.905H301.11V429.632H348.891V387.905ZM351.11 429.632V387.905H398.891V429.632H351.11ZM348.891 431.85H301.11V473.577H348.891V431.85ZM351.11 473.577V431.85H398.891V473.577H351.11ZM348.891 475.795H301.11V517.522H348.891V475.795ZM351.11 517.522V475.795H398.891V517.522H351.11ZM348.891 519.741H301.11V561.467H348.891V519.741ZM351.11 561.467V519.741H398.891V561.467H351.11ZM401.11 561.467H448.891V519.741H401.11V561.467ZM401.11 517.522H448.891V475.795H401.11V517.522ZM401.11 473.577H448.891V431.85H401.11V473.577ZM401.11 429.632H448.891V387.905H401.11V429.632ZM401.11 385.686H448.891V343.96H401.11V385.686ZM401.11 341.741H448.891V300.015H401.11V341.741ZM401.11 297.796H448.891V256.069H401.11V297.796ZM401.11 253.851H448.891V212.124H401.11V253.851ZM401.11 209.905H448.891V168.179H401.11V209.905ZM401.11 165.96H448.891V124.233H401.11V165.96ZM401.11 122.015H448.891V80.2881H401.11V122.015ZM401.11 78.0695H448.891V36.3428H401.11V78.0695ZM401.11 34.1242H448.891V-7.60242H401.11V34.1242ZM401.11 -9.82104H448.891V-51.5477H401.11V-9.82104ZM401.11 -53.7663H448.891V-95.4929H401.11V-53.7663ZM401.11 -97.7115H448.891V-139.438H401.11V-97.7115ZM401.11 -141.657H448.891V-183.383H401.11V-141.657ZM401.11 -185.602H448.891V-227.329H401.11V-185.602ZM401.11 -229.547H448.891V-271.274H401.11V-229.547ZM401.11 -273.493H448.891V-315.219H401.11V-273.493ZM401.11 -317.438H448.891V-359.165H401.11V-317.438ZM401.11 -361.383H448.891V-403.111H401.11V-361.383ZM398.891 -403.111L351.11 -403.111V-361.383H398.891V-403.111ZM451.11 -403.111V-361.383H498.891V-403.111H451.11ZM501.11 -403.111V-361.383H548.891V-403.111L501.11 -403.111ZM551.11 -403.111V-361.383H598.891V-403.111H551.11ZM601.11 -403.111V-361.383L648.891 -361.383V-403.111H601.11ZM651.11 -403.111V-361.383H698.891V-403.111L651.11 -403.111ZM701.11 -403.111V-361.383H748.891V-403.111H701.11ZM751.11 -403.111V-361.383H798.891V-403.111H751.11ZM801.11 -403.111V-361.383H848.891V-403.111L801.11 -403.111ZM851.109 -403.111V-361.383H898.891V-403.111H851.109ZM901.11 -403.111V-361.383H948.891V-403.111H901.11ZM951.109 -403.111V-361.383H998.891V-403.111L951.109 -403.111ZM1001.11 -403.111V-361.383H1048.89V-403.111H1001.11ZM1051.11 -403.111V-361.383H1098.89V-403.111H1051.11ZM1101.11 -403.111V-361.383H1148.89V-403.111L1101.11 -403.111ZM1148.89 -359.165H1101.11V-317.438H1148.89V-359.165ZM1148.89 -315.219H1101.11V-273.493H1148.89V-315.219ZM1148.89 -271.274H1101.11V-229.548H1148.89V-271.274ZM1148.89 -227.329H1101.11V-185.602H1148.89V-227.329ZM1148.89 -183.384H1101.11V-141.657H1148.89V-183.384ZM1148.89 -139.438H1101.11V-97.7115H1148.89V-139.438ZM1148.89 -95.4929H1101.11V-53.7663H1148.89V-95.4929ZM1148.89 -51.5477H1101.11V-9.82108H1148.89V-51.5477ZM1148.89 -7.60245H1101.11V34.1241H1148.89V-7.60245ZM1148.89 36.3428H1101.11V78.0694H1148.89V36.3428ZM1148.89 80.288H1101.11V122.015H1148.89V80.288ZM1148.89 124.233H1101.11V165.96H1148.89V124.233ZM1148.89 168.179H1101.11V209.905H1148.89V168.179ZM1148.89 212.124H1101.11V253.851H1148.89V212.124ZM1148.89 256.069H1101.11V297.796H1148.89V256.069ZM1148.89 300.015H1101.11V341.741H1148.89V300.015ZM1148.89 343.96H1101.11V385.686H1148.89V343.96ZM1148.89 387.905H1101.11V429.632H1148.89V387.905ZM1148.89 431.85H1101.11V473.577H1148.89V431.85ZM1148.89 475.795H1101.11V517.522H1148.89V475.795ZM1148.89 519.741H1101.11V561.467H1148.89V519.741ZM1098.89 561.467V519.741H1051.11V561.467H1098.89ZM1048.89 561.467V519.741H1001.11V561.467H1048.89ZM998.891 561.467V519.741L951.11 519.741V561.467L998.891 561.467ZM948.891 561.467V519.741H901.11V561.467H948.891ZM898.891 561.467V519.741H851.109V561.467H898.891ZM848.891 561.467V519.741H801.11V561.467H848.891ZM798.891 561.467V519.741H751.11V561.467H798.891ZM748.891 561.467V519.741H701.11V561.467H748.891ZM698.891 561.467V519.741H651.11V561.467H698.891ZM648.891 561.467V519.741H601.11V561.467H648.891ZM598.891 561.467V519.741H551.11V561.467H598.891ZM548.891 561.467V519.741H501.11V561.467H548.891ZM498.891 561.467V519.741H451.11V561.467H498.891ZM451.11 517.522H498.891V475.795H451.11V517.522ZM451.11 473.577H498.891V431.85H451.11V473.577ZM451.11 429.632H498.891V387.905H451.11V429.632ZM451.11 385.686H498.891V343.96H451.11V385.686ZM451.11 341.741H498.891V300.015H451.11V341.741ZM451.11 297.796H498.891V256.069H451.11V297.796ZM451.11 253.851H498.891V212.124H451.11V253.851ZM451.11 209.905H498.891V168.179H451.11V209.905ZM451.11 165.96H498.891V124.233H451.11V165.96ZM451.11 122.015H498.891V80.2881H451.11V122.015ZM451.11 78.0695H498.891V36.3428L451.11 36.3428V78.0695ZM451.11 34.1242L498.891 34.1242V-7.60242L451.11 -7.60242V34.1242ZM451.11 -9.82104L498.891 -9.82104V-51.5477L451.11 -51.5477V-9.82104ZM451.11 -53.7663L498.891 -53.7663V-95.4929L451.11 -95.4929V-53.7663ZM451.11 -97.7115L498.891 -97.7115V-139.438L451.11 -139.438V-97.7115ZM451.11 -141.657L498.891 -141.657V-183.383L451.11 -183.383V-141.657ZM451.11 -185.602L498.891 -185.602V-227.329H451.11V-185.602ZM451.11 -229.547H498.891V-271.274H451.11V-229.547ZM451.11 -273.493H498.891V-315.219H451.11V-273.493ZM451.11 -317.438H498.891V-359.165H451.11V-317.438ZM501.11 -359.165V-317.438H548.891V-359.165H501.11ZM551.11 -359.165V-317.438H598.891V-359.165H551.11ZM601.11 -359.165V-317.438H648.891V-359.165L601.11 -359.165ZM651.11 -359.165V-317.438H698.891V-359.165H651.11ZM701.11 -359.165V-317.438L748.891 -317.438V-359.165H701.11ZM751.11 -359.165V-317.438H798.891V-359.165H751.11ZM801.11 -359.165V-317.438H848.891V-359.165H801.11ZM851.109 -359.165V-317.438H898.891V-359.165H851.109ZM901.11 -359.165V-317.438H948.891V-359.165H901.11ZM951.109 -359.165V-317.438H998.891V-359.165H951.109ZM1001.11 -359.165V-317.438H1048.89V-359.165H1001.11ZM1051.11 -359.165V-317.438H1098.89V-359.165H1051.11ZM1098.89 -315.219H1051.11V-273.493H1098.89V-315.219ZM1098.89 -271.274H1051.11V-229.548H1098.89V-271.274ZM1098.89 -227.329H1051.11V-185.602H1098.89V-227.329ZM1098.89 -183.384H1051.11V-141.657H1098.89V-183.384ZM1098.89 -139.438H1051.11V-97.7115H1098.89V-139.438ZM1098.89 -95.4929H1051.11V-53.7663H1098.89V-95.4929ZM1098.89 -51.5477H1051.11V-9.82108H1098.89V-51.5477ZM1098.89 -7.60245H1051.11V34.1241H1098.89V-7.60245ZM1098.89 36.3428H1051.11V78.0694H1098.89V36.3428ZM1098.89 80.288H1051.11V122.015H1098.89V80.288ZM1098.89 124.233H1051.11V165.96H1098.89V124.233ZM1098.89 168.179H1051.11V209.905H1098.89V168.179ZM1098.89 212.124H1051.11V253.851H1098.89V212.124ZM1098.89 256.069H1051.11V297.796H1098.89V256.069ZM1098.89 300.015H1051.11V341.741H1098.89V300.015ZM1098.89 343.96H1051.11V385.686H1098.89V343.96ZM1098.89 387.905H1051.11V429.632H1098.89V387.905ZM1098.89 431.85H1051.11V473.577H1098.89V431.85ZM1098.89 475.795H1051.11V517.522H1098.89V475.795ZM1048.89 517.522V475.795H1001.11V517.522H1048.89ZM998.891 517.522V475.795L951.11 475.795V517.522L998.891 517.522ZM948.891 517.522V475.795H901.11V517.522H948.891ZM898.891 517.522V475.795H851.109V517.522H898.891ZM848.891 517.522V475.795H801.11V517.522H848.891ZM798.891 517.522V475.795H751.11V517.522H798.891ZM748.891 517.522V475.795H701.11V517.522H748.891ZM698.891 517.522V475.795H651.11V517.522H698.891ZM648.891 517.522V475.795H601.11V517.522H648.891ZM598.891 517.522V475.795H551.11V517.522H598.891ZM548.891 517.522V475.795H501.11V517.522H548.891ZM501.11 473.577H548.891V431.85H501.11V473.577ZM501.11 429.632H548.891V387.905H501.11V429.632ZM501.11 385.686H548.891V343.96H501.11V385.686ZM501.11 341.741H548.891V300.015H501.11V341.741ZM501.11 297.796H548.891V256.069H501.11V297.796ZM501.11 253.851H548.891V212.124H501.11V253.851ZM501.11 209.905H548.891V168.179H501.11V209.905ZM501.11 165.96H548.891V124.233H501.11V165.96ZM501.11 122.015H548.891V80.2881H501.11V122.015ZM501.11 78.0695H548.891V36.3428H501.11V78.0695ZM501.11 34.1242H548.891V-7.60242H501.11V34.1242ZM501.11 -9.82104H548.891V-51.5477H501.11V-9.82104ZM501.11 -53.7663H548.891V-95.4929H501.11V-53.7663ZM501.11 -97.7115H548.891V-139.438H501.11V-97.7115ZM501.11 -141.657H548.891V-183.383H501.11V-141.657ZM501.11 -185.602H548.891V-227.329H501.11V-185.602ZM501.11 -229.547H548.891V-271.274H501.11V-229.547ZM501.11 -273.493H548.891V-315.219H501.11V-273.493ZM551.11 -315.219V-273.493H598.891V-315.219H551.11ZM601.11 -315.219V-273.493H648.891V-315.219H601.11ZM651.11 -315.219V-273.493H698.891V-315.219H651.11ZM701.11 -315.219V-273.493L748.891 -273.493V-315.219L701.11 -315.219ZM751.11 -315.219V-273.493H798.891V-315.219H751.11ZM801.11 -315.219V-273.493H848.891V-315.219H801.11ZM851.109 -315.219V-273.493H898.891V-315.219H851.109ZM901.11 -315.219V-273.493H948.891V-315.219H901.11ZM951.109 -315.219V-273.493H998.891V-315.219H951.109ZM1001.11 -315.219V-273.493H1048.89V-315.219H1001.11ZM1048.89 -271.274H1001.11V-229.548H1048.89V-271.274ZM1048.89 -227.329H1001.11V-185.602H1048.89V-227.329ZM1048.89 -183.384H1001.11V-141.657H1048.89V-183.384ZM1048.89 -139.438H1001.11V-97.7115H1048.89V-139.438ZM1048.89 -95.4929H1001.11V-53.7663H1048.89V-95.4929ZM1048.89 -51.5477H1001.11V-9.82108H1048.89V-51.5477ZM1048.89 -7.60245H1001.11V34.1241H1048.89V-7.60245ZM1048.89 36.3428H1001.11V78.0694H1048.89V36.3428ZM1048.89 80.288H1001.11V122.015H1048.89V80.288ZM1048.89 124.233H1001.11V165.96H1048.89V124.233ZM1048.89 168.179H1001.11V209.905H1048.89V168.179ZM1048.89 212.124H1001.11V253.851H1048.89V212.124ZM1048.89 256.069H1001.11V297.796H1048.89V256.069ZM1048.89 300.015H1001.11V341.741H1048.89V300.015ZM1048.89 343.96H1001.11V385.686H1048.89V343.96ZM1048.89 387.905H1001.11V429.632H1048.89V387.905ZM1048.89 431.85H1001.11V473.577H1048.89V431.85ZM998.891 473.577V431.85L951.11 431.85V473.577L998.891 473.577ZM948.891 473.577V431.85H901.11V473.577H948.891ZM898.891 473.577V431.85H851.109V473.577H898.891ZM848.891 473.577V431.85H801.11V473.577H848.891ZM798.891 473.577V431.85H751.11V473.577H798.891ZM748.891 473.577V431.85H701.11V473.577H748.891ZM698.891 473.577V431.85H651.11V473.577H698.891ZM648.891 473.577V431.85H601.11V473.577H648.891ZM598.891 473.577V431.85H551.11V473.577H598.891ZM551.11 429.632H598.891V387.905H551.11V429.632ZM551.11 385.686H598.891V343.96H551.11V385.686ZM551.11 341.741H598.891V300.015H551.11V341.741ZM551.11 297.796H598.891V256.069H551.11V297.796ZM551.11 253.851H598.891V212.124H551.11V253.851ZM551.11 209.905H598.891V168.179H551.11V209.905ZM551.11 165.96H598.891V124.233H551.11V165.96ZM551.11 122.015H598.891V80.2881H551.11V122.015ZM551.11 78.0695H598.891V36.3428H551.11V78.0695ZM551.11 34.1242H598.891V-7.60242H551.11V34.1242ZM551.11 -9.82104H598.891V-51.5477H551.11V-9.82104ZM551.11 -53.7663H598.891V-95.4929H551.11V-53.7663ZM551.11 -97.7115H598.891V-139.438H551.11V-97.7115ZM551.11 -141.657H598.891V-183.383H551.11V-141.657ZM551.11 -185.602H598.891V-227.329H551.11V-185.602ZM551.11 -229.547H598.891V-271.274H551.11V-229.547ZM601.11 -271.274V-229.547H648.891V-271.274H601.11ZM651.11 -271.274V-229.547H698.891V-271.274H651.11ZM701.11 -271.274V-229.547L748.891 -229.547V-271.274L701.11 -271.274ZM751.11 -271.274V-229.547H798.891V-271.274H751.11ZM801.11 -271.274V-229.547H848.891V-271.274H801.11ZM851.109 -271.274V-229.547H898.891V-271.274H851.109ZM901.11 -271.274V-229.548H948.891V-271.274H901.11ZM951.109 -271.274V-229.548H998.891V-271.274H951.109ZM998.891 -227.329H951.109V-185.602H998.891V-227.329ZM998.891 -183.384H951.109V-141.657H998.891V-183.384ZM998.891 -139.438H951.109V-97.7115H998.891V-139.438ZM998.891 -95.4929H951.109V-53.7663H998.891V-95.4929ZM998.891 -51.5477H951.109V-9.82108H998.891V-51.5477ZM998.891 -7.60245H951.109V34.1241H998.891V-7.60245ZM998.891 36.3428H951.109V78.0694L998.891 78.0694V36.3428ZM998.891 80.288L951.11 80.288V122.015L998.891 122.015V80.288ZM998.891 124.233L951.11 124.233V165.96L998.891 165.96V124.233ZM998.891 168.179L951.11 168.179V209.905L998.891 209.905V168.179ZM998.891 212.124L951.11 212.124V253.851L998.891 253.851V212.124ZM998.891 256.069L951.11 256.069V297.796L998.891 297.796V256.069ZM998.891 300.015L951.11 300.015V341.741L998.891 341.741V300.015ZM998.891 343.96L951.11 343.96V385.686L998.891 385.686V343.96ZM998.891 387.905L951.11 387.905V429.632L998.891 429.632V387.905ZM948.891 429.632V387.905H901.11V429.632H948.891ZM898.891 429.632V387.905H851.109V429.632H898.891ZM848.891 429.632V387.905H801.11V429.632H848.891ZM798.891 429.632V387.905H751.11V429.632H798.891ZM748.891 429.632V387.905H701.11V429.632H748.891ZM698.891 429.632V387.905H651.11V429.632H698.891ZM648.891 429.632V387.905H601.11V429.632H648.891ZM601.11 385.686H648.891V343.96H601.11V385.686ZM601.11 341.741H648.891V300.015H601.11V341.741ZM601.11 297.796H648.891V256.069H601.11V297.796ZM601.11 253.851H648.891V212.124H601.11V253.851ZM601.11 209.905H648.891V168.179H601.11V209.905ZM601.11 165.96H648.891V124.233H601.11V165.96ZM601.11 122.015H648.891V80.288H601.11V122.015ZM601.11 78.0694H648.891V36.3428H601.11V78.0694ZM601.11 34.1241H648.891V-7.60245H601.11V34.1241ZM601.11 -9.82108H648.891V-51.5477H601.11V-9.82108ZM601.11 -53.7663H648.891V-95.4929H601.11V-53.7663ZM601.11 -97.7115H648.891V-139.438H601.11V-97.7115ZM601.11 -141.657H648.891V-183.384H601.11V-141.657ZM601.11 -185.602H648.891V-227.329H601.11V-185.602ZM651.11 -227.329V-185.602H698.891V-227.329H651.11ZM701.11 -227.329V-185.602H748.891V-227.329L701.11 -227.329ZM751.11 -227.329V-185.602H798.891V-227.329H751.11ZM801.11 -227.329V-185.602H848.891V-227.329H801.11ZM851.109 -227.329V-185.602H898.891V-227.329H851.109ZM901.11 -227.329V-185.602H948.891V-227.329H901.11ZM948.891 -183.384H901.11V-141.657H948.891V-183.384ZM948.891 -139.438H901.11V-97.7115H948.891V-139.438ZM948.891 -95.4929H901.11V-53.7663H948.891V-95.4929ZM948.891 -51.5477H901.11V-9.82108H948.891V-51.5477ZM948.891 -7.60245H901.11V34.1241H948.891V-7.60245ZM948.891 36.3428H901.11V78.0694H948.891V36.3428ZM948.891 80.288H901.11V122.015H948.891V80.288ZM948.891 124.233H901.11V165.96H948.891V124.233ZM948.891 168.179H901.11V209.905H948.891V168.179ZM948.891 212.124H901.11V253.851H948.891V212.124ZM948.891 256.069H901.11V297.796H948.891V256.069ZM948.891 300.015H901.11V341.741H948.891V300.015ZM948.891 343.96H901.11V385.686H948.891V343.96ZM898.891 385.686V343.96H851.109V385.686H898.891ZM848.891 385.686V343.96H801.11V385.686H848.891ZM798.891 385.686V343.96H751.11V385.686H798.891ZM748.891 385.686V343.96H701.11V385.686H748.891ZM698.891 385.686V343.96H651.11V385.686H698.891ZM651.11 341.741H698.891V300.015H651.11V341.741ZM651.11 297.796H698.891V256.069H651.11V297.796ZM651.11 253.851H698.891V212.124H651.11V253.851ZM651.11 209.905H698.891V168.179H651.11V209.905ZM651.11 165.96H698.891V124.233H651.11V165.96ZM651.11 122.015H698.891V80.288H651.11V122.015ZM651.11 78.0694H698.891V36.3428H651.11V78.0694ZM651.11 34.1241H698.891V-7.60245H651.11V34.1241ZM651.11 -9.82108H698.891V-51.5477H651.11V-9.82108ZM651.11 -53.7663H698.891V-95.4929H651.11V-53.7663ZM651.11 -97.7115H698.891V-139.438H651.11V-97.7115ZM651.11 -141.657H698.891V-183.384H651.11V-141.657ZM701.11 -183.384V-141.657H748.891V-183.384H701.11ZM751.11 -183.384V-141.657H798.891V-183.384H751.11ZM801.11 -183.384V-141.657H848.891V-183.384H801.11ZM851.109 -183.384V-141.657H898.891V-183.384H851.109ZM898.891 -139.438H851.109V-97.7115H898.891V-139.438ZM898.891 -95.4929H851.109V-53.7663H898.891V-95.4929ZM898.891 -51.5477H851.109V-9.82108H898.891V-51.5477ZM898.891 -7.60245H851.109V34.1241H898.891V-7.60245ZM898.891 36.3428H851.109V78.0694H898.891V36.3428ZM898.891 80.288H851.109V122.015H898.891V80.288ZM898.891 124.233H851.109V165.96H898.891V124.233ZM898.891 168.179H851.109V209.905H898.891V168.179ZM898.891 212.124H851.109V253.851H898.891V212.124ZM898.891 256.069H851.109V297.796H898.891V256.069ZM898.891 300.015H851.109V341.741H898.891V300.015ZM848.891 341.741V300.015H801.11V341.741H848.891ZM798.891 341.741V300.015H751.11V341.741H798.891ZM748.891 341.741V300.015H701.11V341.741H748.891ZM701.11 297.796H748.891V256.069H701.11V297.796ZM701.11 253.851H748.891V212.124H701.11V253.851ZM701.11 209.905H748.891V168.179H701.11V209.905ZM701.11 165.96H748.891V124.233H701.11V165.96ZM701.11 122.015H748.891V80.288H701.11V122.015ZM701.11 78.0694H748.891V36.3428H701.11V78.0694ZM701.11 34.1241H748.891V-7.60245H701.11V34.1241ZM701.11 -9.82108H748.891V-51.5477H701.11V-9.82108ZM701.11 -53.7663H748.891V-95.4929H701.11V-53.7663ZM701.11 -97.7115H748.891V-139.438H701.11V-97.7115ZM751.11 -139.438V-97.7115H798.891V-139.438H751.11ZM801.11 -139.438V-97.7115H848.891V-139.438H801.11ZM848.891 -95.4929H801.11V-53.7663H848.891V-95.4929ZM848.891 -51.5477H801.11V-9.82108H848.891V-51.5477ZM848.891 -7.60245H801.11V34.1241H848.891V-7.60245ZM848.891 36.3428H801.11V78.0694H848.891V36.3428ZM848.891 80.288H801.11V122.015H848.891V80.288ZM848.891 124.233H801.11V165.96H848.891V124.233ZM848.891 168.179H801.11V209.905H848.891V168.179ZM848.891 212.124H801.11V253.851H848.891V212.124ZM848.891 256.069H801.11V297.796H848.891V256.069ZM798.891 297.796V256.069H751.11V297.796H798.891ZM751.11 253.851H798.891V212.124H751.11V253.851ZM751.11 209.905H798.891V168.179H751.11V209.905ZM751.11 165.96H798.891V124.233H751.11V165.96ZM751.11 122.015H798.891V80.288H751.11V122.015ZM751.11 78.0694H798.891V36.3428H751.11V78.0694ZM751.11 34.1241H798.891V-7.60245H751.11V34.1241ZM751.11 -9.82108H798.891V-51.5477H751.11V-9.82108ZM751.11 -53.7663H798.891V-95.4929H751.11V-53.7663ZM298.891 561.467V519.741H251.11V561.467H298.891ZM248.891 561.467V519.741H201.11V561.467H248.891ZM198.891 561.467V519.741H151.11V561.467H198.891ZM148.891 561.467V519.741H101.11V561.467H148.891ZM98.8914 561.467V519.741H51.1102L51.1102 561.467H98.8914ZM51.1102 517.522H98.8914L98.8914 475.795H51.1102V517.522ZM51.1102 473.577H98.8914V431.85H51.1102L51.1102 473.577ZM51.1102 429.632H98.8914L98.8914 387.905H51.1102V429.632ZM51.1102 385.686H98.8914V343.96H51.1102V385.686ZM51.1102 341.741H98.8914V300.015H51.1102L51.1102 341.741ZM51.1102 297.796H98.8914L98.8914 256.069H51.1102V297.796ZM51.1102 253.851H98.8914V212.124H51.1102L51.1102 253.851ZM51.1102 209.905H98.8914V168.179H51.1102V209.905ZM51.1102 165.96H98.8914L98.8914 124.233H51.1102L51.1102 165.96ZM51.1102 122.015H98.8914V80.2881H51.1102L51.1102 122.015ZM51.1102 78.0695H98.8914V36.3428H51.1102V78.0695ZM51.1102 34.1242H98.8914V-7.60242H51.1102L51.1102 34.1242ZM51.1102 -9.82104H98.8914V-51.5477H51.1102L51.1102 -9.82104ZM51.1102 -53.7663H98.8914L98.8914 -95.4929H51.1101L51.1102 -53.7663ZM51.1101 -97.7115H98.8914L98.8914 -139.438H51.1101V-97.7115ZM51.1101 -141.657H98.8914V-183.383H51.1101L51.1101 -141.657ZM51.1101 -185.602H98.8914V-227.329H51.1101V-185.602ZM51.1101 -229.547H98.8914V-271.274H51.1101L51.1101 -229.547ZM51.1101 -273.493H98.8914V-315.219H51.1101L51.1101 -273.493ZM51.1101 -317.438H98.8914L98.8914 -359.165H51.1101V-317.438ZM51.1101 -361.383H98.8914V-403.111L51.1101 -403.11L51.1101 -361.383ZM101.11 -403.111V-361.383H148.891V-403.111H101.11ZM151.11 -403.111V-361.383H198.891V-403.111H151.11ZM201.11 -403.111V-361.383H248.891V-403.111L201.11 -403.111ZM251.11 -403.111V-361.383H298.891V-403.111H251.11ZM298.891 -359.165H251.11V-317.438H298.891V-359.165ZM298.891 -315.219H251.11V-273.493H298.891V-315.219ZM298.891 -271.274H251.11V-229.547H298.891V-271.274ZM298.891 -227.329H251.11L251.11 -185.602H298.891V-227.329ZM298.891 -183.383H251.11V-141.657H298.891V-183.383ZM298.891 -139.438H251.11V-97.7115H298.891V-139.438ZM298.891 -95.4929H251.11V-53.7663H298.891V-95.4929ZM298.891 -51.5477H251.11V-9.82104H298.891V-51.5477ZM298.891 -7.60242H251.11V34.1242H298.891V-7.60242ZM298.891 36.3428H251.11V78.0695H298.891V36.3428ZM298.891 80.2881H251.11V122.015H298.891V80.2881ZM298.891 124.233H251.11V165.96H298.891V124.233ZM298.891 168.179H251.11V209.905H298.891V168.179ZM298.891 212.124H251.11V253.851H298.891V212.124ZM298.891 256.069H251.11L251.11 297.796H298.891V256.069ZM298.891 300.015H251.11V341.741H298.891V300.015ZM298.891 343.96H251.11V385.686H298.891V343.96ZM298.891 387.905H251.11V429.632H298.891V387.905ZM298.891 431.85H251.11V473.577H298.891V431.85ZM298.891 475.795H251.11V517.522H298.891V475.795ZM248.891 517.522V475.795H201.11V517.522H248.891ZM198.891 517.522V475.795H151.11V517.522H198.891ZM148.891 517.522V475.795H101.11L101.11 517.522H148.891ZM101.11 473.577H148.891V431.85H101.11V473.577ZM101.11 429.632H148.891V387.905H101.11L101.11 429.632ZM101.11 385.686H148.891V343.96H101.11V385.686ZM101.11 341.741H148.891V300.015H101.11V341.741ZM101.11 297.796H148.891L148.891 256.069H101.11L101.11 297.796ZM101.11 253.851H148.891V212.124H101.11V253.851ZM101.11 209.905H148.891V168.179H101.11V209.905ZM101.11 165.96H148.891V124.233H101.11L101.11 165.96ZM101.11 122.015H148.891V80.2881H101.11V122.015ZM101.11 78.0695H148.891V36.3428H101.11V78.0695ZM101.11 34.1242H148.891V-7.60242H101.11V34.1242ZM101.11 -9.82104H148.891V-51.5477H101.11V-9.82104ZM101.11 -53.7663H148.891V-95.4929H101.11L101.11 -53.7663ZM101.11 -97.7115H148.891V-139.438H101.11L101.11 -97.7115ZM101.11 -141.657H148.891V-183.383H101.11V-141.657ZM101.11 -185.602H148.891L148.891 -227.329H101.11V-185.602ZM101.11 -229.547H148.891V-271.274H101.11V-229.547ZM101.11 -273.493H148.891V-315.219H101.11V-273.493ZM101.11 -317.438H148.891V-359.165H101.11L101.11 -317.438ZM151.11 -359.165V-317.438H198.891V-359.165H151.11ZM201.11 -359.165V-317.438H248.891V-359.165H201.11ZM248.891 -315.219H201.11V-273.493H248.891V-315.219ZM248.891 -271.274H201.11V-229.547L248.891 -229.547V-271.274ZM248.891 -227.329L201.11 -227.329L201.11 -185.602H248.891L248.891 -227.329ZM248.891 -183.383H201.11V-141.657H248.891V-183.383ZM248.891 -139.438H201.11V-97.7115H248.891V-139.438ZM248.891 -95.4929H201.11V-53.7663H248.891V-95.4929ZM248.891 -51.5477H201.11V-9.82104H248.891V-51.5477ZM248.891 -7.60242H201.11V34.1242H248.891V-7.60242ZM248.891 36.3428H201.11V78.0695H248.891V36.3428ZM248.891 80.2881H201.11V122.015H248.891V80.2881ZM248.891 124.233H201.11V165.96H248.891V124.233ZM248.891 168.179H201.11V209.905H248.891V168.179ZM248.891 212.124H201.11V253.851H248.891V212.124ZM248.891 256.069H201.11L201.11 297.796H248.891L248.891 256.069ZM248.891 300.015H201.11V341.741H248.891V300.015ZM248.891 343.96H201.11V385.686H248.891V343.96ZM248.891 387.905H201.11V429.632H248.891V387.905ZM248.891 431.85H201.11V473.577H248.891V431.85ZM198.891 473.577V431.85H151.11V473.577H198.891ZM151.11 429.632H198.891V387.905H151.11V429.632ZM151.11 385.686H198.891V343.96H151.11V385.686ZM151.11 341.741H198.891V300.015H151.11V341.741ZM151.11 297.796H198.891L198.891 256.069H151.11L151.11 297.796ZM151.11 253.851H198.891V212.124H151.11V253.851ZM151.11 209.905H198.891V168.179H151.11V209.905ZM151.11 165.96H198.891V124.233H151.11V165.96ZM151.11 122.015H198.891V80.2881H151.11V122.015ZM151.11 78.0695H198.891V36.3428H151.11V78.0695ZM151.11 34.1242H198.891V-7.60242H151.11V34.1242ZM151.11 -9.82104H198.891V-51.5477H151.11V-9.82104ZM151.11 -53.7663H198.891V-95.4929H151.11V-53.7663ZM151.11 -97.7115H198.891V-139.438H151.11V-97.7115ZM151.11 -141.657H198.891V-183.383H151.11V-141.657ZM151.11 -185.602H198.891L198.891 -227.329H151.11L151.11 -185.602ZM151.11 -229.547H198.891V-271.274H151.11V-229.547ZM151.11 -273.493H198.891V-315.219H151.11V-273.493Z" fill="url(#paint1_radial_212_452)"/>
<g opacity="0.6" filter="url(#filter0_f_212_452)">
<path opacity="0.4" d="M778.536 147.551C783.673 148.643 788.722 145.364 789.814 140.227C790.905 135.091 787.627 130.041 782.49 128.95C777.353 127.858 772.304 131.137 771.213 136.273C770.121 141.41 773.4 146.459 778.536 147.551Z" fill="white"/>
<path d="M814.661 108.057L761.597 96.7776C738.203 91.8051 729.554 97.4214 724.582 120.815L722.326 131.428C717.353 154.822 722.97 163.471 746.364 168.443L799.428 179.722C822.822 184.695 831.471 179.079 836.443 155.685L838.699 145.072C843.671 121.678 838.055 113.029 814.661 108.057ZM776.85 155.482C767.321 153.456 761.267 144.059 763.281 134.587C765.294 125.116 774.646 118.993 784.175 121.018C793.704 123.044 799.757 132.441 797.744 141.913C795.731 151.384 786.378 157.507 776.85 155.482Z" fill="white"/>
<path d="M760.272 96.5554L761.691 89.8795C765.245 73.1613 772.345 63.0415 795.454 67.9535C818.563 72.8654 820.934 84.9984 817.38 101.717L815.961 108.392C818.859 109.068 821.46 109.74 823.84 110.604L825.368 103.415C828.643 88.0087 829.276 66.7934 797.152 59.9653C765.028 53.1371 756.977 72.7757 753.703 88.1816L752.187 95.3139C754.644 95.538 757.362 95.9368 760.272 96.5554Z" fill="white"/>
</g>
<path opacity="0.4" d="M778.536 147.551C783.673 148.643 788.722 145.364 789.814 140.227C790.905 135.091 787.627 130.041 782.49 128.95C777.353 127.858 772.304 131.137 771.213 136.273C770.121 141.41 773.4 146.459 778.536 147.551Z" fill="white"/>
<path d="M814.661 108.057L761.597 96.7776C738.203 91.8051 729.554 97.4214 724.582 120.815L722.326 131.428C717.353 154.822 722.97 163.471 746.364 168.443L799.428 179.722C822.822 184.695 831.471 179.079 836.443 155.685L838.699 145.072C843.671 121.678 838.055 113.029 814.661 108.057ZM776.85 155.482C767.321 153.456 761.267 144.059 763.281 134.587C765.294 125.116 774.646 118.993 784.175 121.018C793.704 123.044 799.757 132.441 797.744 141.913C795.731 151.384 786.378 157.507 776.85 155.482Z" fill="white"/>
<path d="M760.272 96.5554L761.691 89.8795C765.245 73.1613 772.345 63.0415 795.454 67.9535C818.563 72.8654 820.934 84.9984 817.38 101.717L815.961 108.392C818.859 109.068 821.46 109.74 823.84 110.604L825.368 103.415C828.643 88.0087 829.276 66.7934 797.152 59.9653C765.028 53.1371 756.977 72.7757 753.703 88.1816L752.187 95.3139C754.644 95.538 757.362 95.9368 760.272 96.5554Z" fill="white"/>
<g filter="url(#filter1_f_212_452)">
<rect x="839.51" y="55.0894" width="19.1174" height="7.5043" rx="3.75215" transform="rotate(-17.5268 839.51 55.0894)" fill="white"/>
<rect x="822" y="53.1858" width="19.4008" height="7.5043" rx="3.75215" transform="rotate(-56.6667 822 53.1858)" fill="white"/>
</g>
<rect x="839.51" y="55.0894" width="19.1174" height="7.5043" rx="3.75215" transform="rotate(-17.5268 839.51 55.0894)" fill="white"/>
<rect x="822" y="53.1858" width="19.4008" height="7.5043" rx="3.75215" transform="rotate(-56.6667 822 53.1858)" fill="white"/>
<defs>
<filter id="filter0_f_212_452" x="690" y="22" width="190.048" height="190.048" filterUnits="userSpaceOnUse" color-interpolation-filters="sRGB">
<feFlood flood-opacity="0" result="BackgroundImageFix"/>
<feBlend mode="normal" in="SourceGraphic" in2="BackgroundImageFix" result="shape"/>
<feGaussianBlur stdDeviation="6" result="effect1_foregroundBlur_212_452"/>
</filter>
<filter id="filter1_f_212_452" x="819.444" y="34.4208" width="43.6011" height="30.8698" filterUnits="userSpaceOnUse" color-interpolation-filters="sRGB">
<feFlood flood-opacity="0" result="BackgroundImageFix"/>
<feBlend mode="normal" in="SourceGraphic" in2="BackgroundImageFix" result="shape"/>
<feGaussianBlur stdDeviation="2" result="effect1_foregroundBlur_212_452"/>
</filter>
<linearGradient id="paint0_linear_212_452" x1="1013" y1="0" x2="1013" y2="216.2" gradientUnits="userSpaceOnUse">
<stop stop-color="white"/>
<stop offset="1" stop-color="white" stop-opacity="0"/>
</linearGradient>
<radialGradient id="paint1_radial_212_452" cx="0" cy="0" r="1" gradientUnits="userSpaceOnUse" gradientTransform="translate(765.5 117.5) rotate(20.2012) scale(179.545 176.038)">
<stop stop-color="white" stop-opacity="0.12"/>
<stop offset="1" stop-color="white" stop-opacity="0"/>
</radialGradient>
</defs>
</svg>
