<svg width="1200" height="216" viewBox="0 0 1200 216" fill="none" xmlns="http://www.w3.org/2000/svg">
<path fill-rule="evenodd" clip-rule="evenodd" d="M1200 0H1180V20H1158V121.858H1117.13H1107.31H1024.76V161.167V216.2H1066.03V161.167L1107.31 161.167L1107.31 194.58H1087.65V216.2L1107.31 216.2H1117.13H1158.41V216H1200V20V0ZM1126.96 100.238H1107.31V121.858H1126.96V100.238ZM1048.34 80.5836H1068V100.238H1048.34V80.5836ZM1087.65 60.9291H1068V80.5836H1087.65V60.9291ZM973.655 174.925H1024.76V196.545H973.655V174.925ZM973.655 196.545H954V216.2H973.655V196.545Z" fill="url(#paint0_linear_211_450)"/>
<path fill-rule="evenodd" clip-rule="evenodd" d="M0 216.2H20V196.2H42V94.342H82.8673H92.6945H175.244V55.0329V0.000213623H133.969V55.0329L92.6945 55.0329L92.6945 21.6201H112.349V0.000152588L92.6945 0.000167847H82.8673H41.5928V0.200195H0V196.2V216.2ZM73.04 115.962H92.6945V94.342H73.04V115.962ZM151.658 135.617H132.004V115.962H151.658V135.617ZM112.349 155.271H132.004V135.617H112.349V155.271ZM226.345 41.2748H175.244V19.6548H226.345V41.2748ZM226.345 19.6547H246V0.000198364H226.345V19.6547Z" fill="url(#paint1_linear_211_450)"/>
<path fill-rule="evenodd" clip-rule="evenodd" d="M412.891 -396.161V-439H415.11V-396.161L462.891 -396.161V-439L465.11 -439V-396.161H512.891V-439L515.11 -439V-396.161H562.891V-439L565.11 -439V-396.161L612.891 -396.161V-439L615.11 -439V-396.161H662.891V-439L665.11 -439V-396.161H712.891V-439L715.11 -439V-396.161L762.891 -396.161V-439L765.11 -439V-396.161H812.891V-439L815.11 -439V-396.161H862.891V-439L865.11 -439V-396.161L912.891 -396.161V-439L915.109 -439V-396.161H962.891V-439L965.11 -439V-396.161H1012.89V-439L1015.11 -439V-396.161L1062.89 -396.161V-439L1065.11 -439V-396.161H1112.89V-439L1115.11 -439V-396.161H1162.89V-438.999L1165.11 -438.999V-396.161L1212.89 -396.161V-439L1215.11 -439V-396.161H1264V-393.943H1215.11V-352.215H1264V-349.997H1215.11V-308.27H1264V-306.051H1215.11V-264.325H1264V-262.106H1215.11V-220.38H1264V-218.161H1215.11V-176.434H1264V-174.216H1215.11V-132.489H1264V-130.27H1215.11V-88.5436H1264V-86.325H1215.11V-44.5984H1264V-42.3797H1215.11V-0.653107H1264V1.56552H1215.11V43.2921H1264V45.5107H1215.11V87.2374H1264V89.456H1215.11V131.183H1264V133.401H1215.11V175.128H1264V177.347H1215.11V219.073H1264V221.292H1215.11V263.019H1264V265.237H1215.11V306.964H1264V309.183H1215.11V350.909H1264V353.128H1215.11V394.854H1264V397.073H1215.11V438.8H1264V441.018H1215.11V482.745H1264V484.963H1215.11V526.69H1264V528.909H1215.11V570.635H1264V572.854H1215.11V615.687H1212.89V572.854H1165.11V615.688H1162.89V572.854H1115.11V615.687H1112.89V572.854H1065.11V615.687H1062.89V572.854L1015.11 572.854V615.687H1012.89V572.854H965.11V615.687H962.891V572.854H915.109V615.687H912.891V572.854H865.11V615.687H862.891V572.854H815.11V615.687H812.891V572.854H765.11V615.687H762.891V572.854H715.11V615.687H712.891V572.854H665.11V615.687H662.891V572.854H615.11V615.687H612.891V572.854H565.11V615.687H562.891V572.854H515.11V615.687H512.891V572.854H465.11V615.687H462.891V572.854H415.11V615.687H412.891V572.854H365.11V615.687H362.891V572.854H315.11V615.687H312.891V572.854H265.11V615.687H262.891V572.854H215.11V615.687H212.891V572.854H165.11V615.687H162.891V572.854H115.11V615.687H112.892V572.854H64L64 570.635H112.892L112.892 528.909H64.0004L64.0004 526.69H112.892V484.963H64.0003L64.0002 482.745H112.892L112.892 441.018H64.0005L64.0005 438.8H112.892V397.073H64.0005L64.0005 394.854H112.892V353.128H64.0005L64.0005 350.909H112.892L112.892 309.183H64.0003L64.0002 306.964H112.892V265.237H64.0008L64.0007 263.019H112.892L112.892 221.292H64.0003L64.0002 219.073H112.892V177.347H64.0003L64.0002 175.128H112.892L112.892 133.401H64.0005L64.0005 131.183H112.892V89.4561H64L64 87.2374H112.892V45.5108H64.0005L64.0005 43.2921H112.892L112.892 1.56555H64.0003L64.0002 -0.653076H112.892V-42.3797H64.0008L64.0007 -44.5983H112.892L112.892 -86.3249H64.0003L64.0002 -88.5435H112.892V-130.27H64.0003L64.0002 -132.489H112.892L112.892 -174.216H64.0005L64.0005 -176.434H112.892V-218.161H64.0003L64.0002 -220.38H112.892L112.892 -262.106H64.0005L64.0005 -264.325H112.892L112.892 -306.051H64.0005L64.0005 -308.27H112.892V-349.997H64.0005L64.0005 -352.215H112.892L112.892 -393.943H64.0005L64.0005 -396.161H112.892V-439L115.11 -439V-396.161L162.891 -396.161V-439L165.11 -439V-396.161H212.891V-439L215.11 -439V-396.161H262.891V-439L265.11 -439V-396.161L312.891 -396.161V-439L315.11 -439V-396.161H362.891V-439L365.11 -439V-396.161H412.891ZM412.891 -393.943H365.11V-352.215H412.891V-393.943ZM412.891 -349.997H365.11V-308.27H412.891V-349.997ZM415.11 -308.27V-349.997H462.891V-308.27H415.11ZM412.891 -306.051H365.11V-264.325H412.891V-306.051ZM415.11 -264.325V-306.051H462.891V-264.325H415.11ZM412.891 -262.106H365.11V-220.38H412.891V-262.106ZM415.11 -220.38V-262.106H462.891V-220.38H415.11ZM412.891 -218.161H365.11V-176.434H412.891V-218.161ZM415.11 -176.434V-218.161H462.891V-176.434H415.11ZM412.891 -174.216H365.11V-132.489H412.891V-174.216ZM415.11 -132.489V-174.216H462.891V-132.489H415.11ZM412.891 -130.27H365.11V-88.5435H412.891V-130.27ZM415.11 -88.5435V-130.27H462.891V-88.5435H415.11ZM412.891 -86.3249H365.11V-44.5983H412.891V-86.3249ZM415.11 -44.5983V-86.3249H462.891V-44.5983H415.11ZM412.891 -42.3797H365.11V-0.653076H412.891V-42.3797ZM415.11 -0.653076V-42.3797H462.891V-0.653076H415.11ZM412.891 1.56555H365.11V43.2921H412.891V1.56555ZM415.11 43.2921V1.56555H462.891V43.2921H415.11ZM412.891 45.5108H365.11V87.2374H412.891V45.5108ZM415.11 87.2374V45.5108H462.891V87.2374H415.11ZM412.891 89.4561H365.11V131.183H412.891V89.4561ZM415.11 131.183V89.4561H462.891V131.183H415.11ZM412.891 133.401H365.11V175.128H412.891V133.401ZM415.11 175.128V133.401H462.891V175.128H415.11ZM412.891 177.347H365.11V219.073H412.891V177.347ZM415.11 219.073V177.347H462.891V219.073H415.11ZM412.891 221.292H365.11V263.019H412.891V221.292ZM415.11 263.019V221.292H462.891V263.019H415.11ZM412.891 265.237H365.11V306.964H412.891V265.237ZM415.11 306.964V265.237H462.891V306.964H415.11ZM412.891 309.183H365.11V350.909H412.891V309.183ZM415.11 350.909V309.183H462.891V350.909H415.11ZM412.891 353.128H365.11V394.854H412.891V353.128ZM415.11 394.854V353.128H462.891V394.854H415.11ZM412.891 397.073H365.11V438.8H412.891V397.073ZM415.11 438.8V397.073H462.891V438.8H415.11ZM412.891 441.018H365.11V482.745H412.891V441.018ZM415.11 482.745V441.018H462.891V482.745H415.11ZM412.891 484.963H365.11V526.69H412.891V484.963ZM415.11 526.69V484.963H462.891V526.69H415.11ZM412.891 528.909H365.11V570.635H412.891V528.909ZM415.11 570.635V528.909H462.891V570.635H415.11ZM465.11 570.635H512.891V528.909H465.11V570.635ZM465.11 526.69H512.891V484.963H465.11V526.69ZM465.11 482.745H512.891V441.018H465.11V482.745ZM465.11 438.8H512.891V397.073H465.11V438.8ZM465.11 394.854H512.891V353.128H465.11V394.854ZM465.11 350.909H512.891V309.183H465.11V350.909ZM465.11 306.964H512.891V265.237H465.11V306.964ZM465.11 263.019H512.891V221.292H465.11V263.019ZM465.11 219.073H512.891V177.347H465.11V219.073ZM465.11 175.128H512.891V133.401H465.11V175.128ZM465.11 131.183H512.891V89.4561H465.11V131.183ZM465.11 87.2374H512.891V45.5108H465.11V87.2374ZM465.11 43.2921H512.891V1.56555H465.11V43.2921ZM465.11 -0.653076H512.891V-42.3797H465.11V-0.653076ZM465.11 -44.5983H512.891V-86.3249H465.11V-44.5983ZM465.11 -88.5435H512.891V-130.27H465.11V-88.5435ZM465.11 -132.489H512.891V-174.216H465.11V-132.489ZM465.11 -176.434H512.891V-218.161H465.11V-176.434ZM465.11 -220.38H512.891V-262.106H465.11V-220.38ZM465.11 -264.325H512.891V-306.051H465.11V-264.325ZM465.11 -308.27H512.891V-349.997H465.11V-308.27ZM465.11 -352.215H512.891V-393.943H465.11V-352.215ZM462.891 -393.943L415.11 -393.943V-352.215H462.891V-393.943ZM515.11 -393.943V-352.215H562.891V-393.943H515.11ZM565.11 -393.943V-352.215H612.891V-393.943L565.11 -393.943ZM615.11 -393.943V-352.215H662.891V-393.943H615.11ZM665.11 -393.943V-352.215L712.891 -352.215V-393.943H665.11ZM715.11 -393.943V-352.215H762.891V-393.943L715.11 -393.943ZM765.11 -393.943V-352.215H812.891V-393.943H765.11ZM815.11 -393.943V-352.215H862.891V-393.943H815.11ZM865.11 -393.943V-352.215H912.891V-393.943L865.11 -393.943ZM915.109 -393.943V-352.215H962.891V-393.943H915.109ZM965.11 -393.943V-352.215H1012.89V-393.943H965.11ZM1015.11 -393.943V-352.215H1062.89V-393.943L1015.11 -393.943ZM1065.11 -393.943V-352.215H1112.89V-393.943H1065.11ZM1115.11 -393.943V-352.215H1162.89V-393.943H1115.11ZM1165.11 -393.943V-352.215H1212.89V-393.943L1165.11 -393.943ZM1212.89 -349.997H1165.11V-308.27H1212.89V-349.997ZM1212.89 -306.051H1165.11V-264.325H1212.89V-306.051ZM1212.89 -262.106H1165.11V-220.38H1212.89V-262.106ZM1212.89 -218.161H1165.11V-176.434H1212.89V-218.161ZM1212.89 -174.216H1165.11V-132.489H1212.89V-174.216ZM1212.89 -130.27H1165.11V-88.5436H1212.89V-130.27ZM1212.89 -86.325H1165.11V-44.5984H1212.89V-86.325ZM1212.89 -42.3797H1165.11V-0.653107H1212.89V-42.3797ZM1212.89 1.56552H1165.11V43.2921H1212.89V1.56552ZM1212.89 45.5107H1165.11V87.2374H1212.89V45.5107ZM1212.89 89.456H1165.11V131.183H1212.89V89.456ZM1212.89 133.401H1165.11V175.128H1212.89V133.401ZM1212.89 177.347H1165.11V219.073H1212.89V177.347ZM1212.89 221.292H1165.11V263.019H1212.89V221.292ZM1212.89 265.237H1165.11V306.964H1212.89V265.237ZM1212.89 309.183H1165.11V350.909H1212.89V309.183ZM1212.89 353.128H1165.11V394.854H1212.89V353.128ZM1212.89 397.073H1165.11V438.8H1212.89V397.073ZM1212.89 441.018H1165.11V482.745H1212.89V441.018ZM1212.89 484.963H1165.11V526.69H1212.89V484.963ZM1212.89 528.909H1165.11V570.635H1212.89V528.909ZM1162.89 570.635V528.909H1115.11V570.635H1162.89ZM1112.89 570.635V528.909H1065.11V570.635H1112.89ZM1062.89 570.635V528.909L1015.11 528.909V570.635L1062.89 570.635ZM1012.89 570.635V528.909H965.11V570.635H1012.89ZM962.891 570.635V528.909H915.109V570.635H962.891ZM912.891 570.635V528.909H865.11V570.635H912.891ZM862.891 570.635V528.909H815.11V570.635H862.891ZM812.891 570.635V528.909H765.11V570.635H812.891ZM762.891 570.635V528.909H715.11V570.635H762.891ZM712.891 570.635V528.909H665.11V570.635H712.891ZM662.891 570.635V528.909H615.11V570.635H662.891ZM612.891 570.635V528.909H565.11V570.635H612.891ZM562.891 570.635V528.909H515.11V570.635H562.891ZM515.11 526.69H562.891V484.963H515.11V526.69ZM515.11 482.745H562.891V441.018H515.11V482.745ZM515.11 438.8H562.891V397.073H515.11V438.8ZM515.11 394.854H562.891V353.128H515.11V394.854ZM515.11 350.909H562.891V309.183H515.11V350.909ZM515.11 306.964H562.891V265.237H515.11V306.964ZM515.11 263.019H562.891V221.292H515.11V263.019ZM515.11 219.073H562.891V177.347H515.11V219.073ZM515.11 175.128H562.891V133.401H515.11V175.128ZM515.11 131.183H562.891V89.4561H515.11V131.183ZM515.11 87.2374H562.891V45.5108L515.11 45.5108V87.2374ZM515.11 43.2921L562.891 43.2921V1.56555L515.11 1.56555V43.2921ZM515.11 -0.653076L562.891 -0.653076V-42.3797L515.11 -42.3797V-0.653076ZM515.11 -44.5983L562.891 -44.5983V-86.3249L515.11 -86.3249V-44.5983ZM515.11 -88.5435L562.891 -88.5435V-130.27L515.11 -130.27V-88.5435ZM515.11 -132.489L562.891 -132.489V-174.216L515.11 -174.216V-132.489ZM515.11 -176.434L562.891 -176.434V-218.161H515.11V-176.434ZM515.11 -220.38H562.891V-262.106H515.11V-220.38ZM515.11 -264.325H562.891V-306.051H515.11V-264.325ZM515.11 -308.27H562.891V-349.997H515.11V-308.27ZM565.11 -349.997V-308.27H612.891V-349.997H565.11ZM615.11 -349.997V-308.27H662.891V-349.997H615.11ZM665.11 -349.997V-308.27H712.891V-349.997L665.11 -349.997ZM715.11 -349.997V-308.27H762.891V-349.997H715.11ZM765.11 -349.997V-308.27L812.891 -308.27V-349.997H765.11ZM815.11 -349.997V-308.27H862.891V-349.997H815.11ZM865.11 -349.997V-308.27H912.891V-349.997H865.11ZM915.109 -349.997V-308.27H962.891V-349.997H915.109ZM965.11 -349.997V-308.27H1012.89V-349.997H965.11ZM1015.11 -349.997V-308.27H1062.89V-349.997H1015.11ZM1065.11 -349.997V-308.27H1112.89V-349.997H1065.11ZM1115.11 -349.997V-308.27H1162.89V-349.997H1115.11ZM1162.89 -306.051H1115.11V-264.325H1162.89V-306.051ZM1162.89 -262.106H1115.11V-220.38H1162.89V-262.106ZM1162.89 -218.161H1115.11V-176.434H1162.89V-218.161ZM1162.89 -174.216H1115.11V-132.489H1162.89V-174.216ZM1162.89 -130.27H1115.11V-88.5436H1162.89V-130.27ZM1162.89 -86.325H1115.11V-44.5984H1162.89V-86.325ZM1162.89 -42.3797H1115.11V-0.653107H1162.89V-42.3797ZM1162.89 1.56552H1115.11V43.2921H1162.89V1.56552ZM1162.89 45.5107H1115.11V87.2374H1162.89V45.5107ZM1162.89 89.456H1115.11V131.183H1162.89V89.456ZM1162.89 133.401H1115.11V175.128H1162.89V133.401ZM1162.89 177.347H1115.11V219.073H1162.89V177.347ZM1162.89 221.292H1115.11V263.019H1162.89V221.292ZM1162.89 265.237H1115.11V306.964H1162.89V265.237ZM1162.89 309.183H1115.11V350.909H1162.89V309.183ZM1162.89 353.128H1115.11V394.854H1162.89V353.128ZM1162.89 397.073H1115.11V438.8H1162.89V397.073ZM1162.89 441.018H1115.11V482.745H1162.89V441.018ZM1162.89 484.963H1115.11V526.69H1162.89V484.963ZM1112.89 526.69V484.963H1065.11V526.69H1112.89ZM1062.89 526.69V484.963L1015.11 484.963V526.69L1062.89 526.69ZM1012.89 526.69V484.963H965.11V526.69H1012.89ZM962.891 526.69V484.963H915.109V526.69H962.891ZM912.891 526.69V484.963H865.11V526.69H912.891ZM862.891 526.69V484.963H815.11V526.69H862.891ZM812.891 526.69V484.963H765.11V526.69H812.891ZM762.891 526.69V484.963H715.11V526.69H762.891ZM712.891 526.69V484.963H665.11V526.69H712.891ZM662.891 526.69V484.963H615.11V526.69H662.891ZM612.891 526.69V484.963H565.11V526.69H612.891ZM565.11 482.745H612.891V441.018H565.11V482.745ZM565.11 438.8H612.891V397.073H565.11V438.8ZM565.11 394.854H612.891V353.128H565.11V394.854ZM565.11 350.909H612.891V309.183H565.11V350.909ZM565.11 306.964H612.891V265.237H565.11V306.964ZM565.11 263.019H612.891V221.292H565.11V263.019ZM565.11 219.073H612.891V177.347H565.11V219.073ZM565.11 175.128H612.891V133.401H565.11V175.128ZM565.11 131.183H612.891V89.4561H565.11V131.183ZM565.11 87.2374H612.891V45.5108H565.11V87.2374ZM565.11 43.2921H612.891V1.56555H565.11V43.2921ZM565.11 -0.653076H612.891V-42.3797H565.11V-0.653076ZM565.11 -44.5983H612.891V-86.3249H565.11V-44.5983ZM565.11 -88.5435H612.891V-130.27H565.11V-88.5435ZM565.11 -132.489H612.891V-174.216H565.11V-132.489ZM565.11 -176.434H612.891V-218.161H565.11V-176.434ZM565.11 -220.38H612.891V-262.106H565.11V-220.38ZM565.11 -264.325H612.891V-306.051H565.11V-264.325ZM615.11 -306.051V-264.325H662.891V-306.051H615.11ZM665.11 -306.051V-264.325H712.891V-306.051H665.11ZM715.11 -306.051V-264.325H762.891V-306.051H715.11ZM765.11 -306.051V-264.325L812.891 -264.325V-306.051L765.11 -306.051ZM815.11 -306.051V-264.325H862.891V-306.051H815.11ZM865.11 -306.051V-264.325H912.891V-306.051H865.11ZM915.109 -306.051V-264.325H962.891V-306.051H915.109ZM965.11 -306.051V-264.325H1012.89V-306.051H965.11ZM1015.11 -306.051V-264.325H1062.89V-306.051H1015.11ZM1065.11 -306.051V-264.325H1112.89V-306.051H1065.11ZM1112.89 -262.106H1065.11V-220.38H1112.89V-262.106ZM1112.89 -218.161H1065.11V-176.434H1112.89V-218.161ZM1112.89 -174.216H1065.11V-132.489H1112.89V-174.216ZM1112.89 -130.27H1065.11V-88.5436H1112.89V-130.27ZM1112.89 -86.325H1065.11V-44.5984H1112.89V-86.325ZM1112.89 -42.3797H1065.11V-0.653107H1112.89V-42.3797ZM1112.89 1.56552H1065.11V43.2921H1112.89V1.56552ZM1112.89 45.5107H1065.11V87.2374H1112.89V45.5107ZM1112.89 89.456H1065.11V131.183H1112.89V89.456ZM1112.89 133.401H1065.11V175.128H1112.89V133.401ZM1112.89 177.347H1065.11V219.073H1112.89V177.347ZM1112.89 221.292H1065.11V263.019H1112.89V221.292ZM1112.89 265.237H1065.11V306.964H1112.89V265.237ZM1112.89 309.183H1065.11V350.909H1112.89V309.183ZM1112.89 353.128H1065.11V394.854H1112.89V353.128ZM1112.89 397.073H1065.11V438.8H1112.89V397.073ZM1112.89 441.018H1065.11V482.745H1112.89V441.018ZM1062.89 482.745V441.018L1015.11 441.018V482.745L1062.89 482.745ZM1012.89 482.745V441.018H965.11V482.745H1012.89ZM962.891 482.745V441.018H915.109V482.745H962.891ZM912.891 482.745V441.018H865.11V482.745H912.891ZM862.891 482.745V441.018H815.11V482.745H862.891ZM812.891 482.745V441.018H765.11V482.745H812.891ZM762.891 482.745V441.018H715.11V482.745H762.891ZM712.891 482.745V441.018H665.11V482.745H712.891ZM662.891 482.745V441.018H615.11V482.745H662.891ZM615.11 438.8H662.891V397.073H615.11V438.8ZM615.11 394.854H662.891V353.128H615.11V394.854ZM615.11 350.909H662.891V309.183H615.11V350.909ZM615.11 306.964H662.891V265.237H615.11V306.964ZM615.11 263.019H662.891V221.292H615.11V263.019ZM615.11 219.073H662.891V177.347H615.11V219.073ZM615.11 175.128H662.891V133.401H615.11V175.128ZM615.11 131.183H662.891V89.4561H615.11V131.183ZM615.11 87.2374H662.891V45.5108H615.11V87.2374ZM615.11 43.2921H662.891V1.56555H615.11V43.2921ZM615.11 -0.653076H662.891V-42.3797H615.11V-0.653076ZM615.11 -44.5983H662.891V-86.3249H615.11V-44.5983ZM615.11 -88.5435H662.891V-130.27H615.11V-88.5435ZM615.11 -132.489H662.891V-174.216H615.11V-132.489ZM615.11 -176.434H662.891V-218.161H615.11V-176.434ZM615.11 -220.38H662.891V-262.106H615.11V-220.38ZM665.11 -262.106V-220.38H712.891V-262.106H665.11ZM715.11 -262.106V-220.38H762.891V-262.106H715.11ZM765.11 -262.106V-220.38L812.891 -220.38V-262.106L765.11 -262.106ZM815.11 -262.106V-220.38H862.891V-262.106H815.11ZM865.11 -262.106V-220.38H912.891V-262.106H865.11ZM915.109 -262.106V-220.38H962.891V-262.106H915.109ZM965.11 -262.106V-220.38H1012.89V-262.106H965.11ZM1015.11 -262.106V-220.38H1062.89V-262.106H1015.11ZM1062.89 -218.161H1015.11V-176.434H1062.89V-218.161ZM1062.89 -174.216H1015.11V-132.489H1062.89V-174.216ZM1062.89 -130.27H1015.11V-88.5436H1062.89V-130.27ZM1062.89 -86.325H1015.11V-44.5984H1062.89V-86.325ZM1062.89 -42.3797H1015.11V-0.653107H1062.89V-42.3797ZM1062.89 1.56552H1015.11V43.2921H1062.89V1.56552ZM1062.89 45.5107H1015.11V87.2374L1062.89 87.2374V45.5107ZM1062.89 89.456L1015.11 89.456V131.183L1062.89 131.183V89.456ZM1062.89 133.401L1015.11 133.401V175.128L1062.89 175.128V133.401ZM1062.89 177.347L1015.11 177.347V219.073L1062.89 219.073V177.347ZM1062.89 221.292L1015.11 221.292V263.019L1062.89 263.019V221.292ZM1062.89 265.237L1015.11 265.237V306.964L1062.89 306.964V265.237ZM1062.89 309.183L1015.11 309.183V350.909L1062.89 350.909V309.183ZM1062.89 353.128L1015.11 353.128V394.854L1062.89 394.854V353.128ZM1062.89 397.073L1015.11 397.073V438.8L1062.89 438.8V397.073ZM1012.89 438.8V397.073H965.11V438.8H1012.89ZM962.891 438.8V397.073H915.109V438.8H962.891ZM912.891 438.8V397.073H865.11V438.8H912.891ZM862.891 438.8V397.073H815.11V438.8H862.891ZM812.891 438.8V397.073H765.11V438.8H812.891ZM762.891 438.8V397.073H715.11V438.8H762.891ZM712.891 438.8V397.073H665.11V438.8H712.891ZM665.11 394.854H712.891V353.128H665.11V394.854ZM665.11 350.909H712.891V309.183H665.11V350.909ZM665.11 306.964H712.891V265.237H665.11V306.964ZM665.11 263.019H712.891V221.292H665.11V263.019ZM665.11 219.073H712.891V177.347H665.11V219.073ZM665.11 175.128H712.891V133.401H665.11V175.128ZM665.11 131.183H712.891V89.456H665.11V131.183ZM665.11 87.2374H712.891V45.5107H665.11V87.2374ZM665.11 43.2921H712.891V1.56552H665.11V43.2921ZM665.11 -0.653107H712.891V-42.3797H665.11V-0.653107ZM665.11 -44.5984H712.891V-86.325H665.11V-44.5984ZM665.11 -88.5436H712.891V-130.27H665.11V-88.5436ZM665.11 -132.489H712.891V-174.216H665.11V-132.489ZM665.11 -176.434H712.891V-218.161H665.11V-176.434ZM715.11 -218.161V-176.434H762.891V-218.161H715.11ZM765.11 -218.161V-176.434H812.891V-218.161L765.11 -218.161ZM815.11 -218.161V-176.434H862.891V-218.161H815.11ZM865.11 -218.161V-176.434H912.891V-218.161H865.11ZM915.109 -218.161V-176.434H962.891V-218.161H915.109ZM965.11 -218.161V-176.434H1012.89V-218.161H965.11ZM1012.89 -174.216H965.11V-132.489H1012.89V-174.216ZM1012.89 -130.27H965.11V-88.5436H1012.89V-130.27ZM1012.89 -86.325H965.11V-44.5984H1012.89V-86.325ZM1012.89 -42.3797H965.11V-0.653107H1012.89V-42.3797ZM1012.89 1.56552H965.11V43.2921H1012.89V1.56552ZM1012.89 45.5107H965.11V87.2374H1012.89V45.5107ZM1012.89 89.456H965.11V131.183H1012.89V89.456ZM1012.89 133.401H965.11V175.128H1012.89V133.401ZM1012.89 177.347H965.11V219.073H1012.89V177.347ZM1012.89 221.292H965.11V263.019H1012.89V221.292ZM1012.89 265.237H965.11V306.964H1012.89V265.237ZM1012.89 309.183H965.11V350.909H1012.89V309.183ZM1012.89 353.128H965.11V394.854H1012.89V353.128ZM962.891 394.854V353.128H915.109V394.854H962.891ZM912.891 394.854V353.128H865.11V394.854H912.891ZM862.891 394.854V353.128H815.11V394.854H862.891ZM812.891 394.854V353.128H765.11V394.854H812.891ZM762.891 394.854V353.128H715.11V394.854H762.891ZM715.11 350.909H762.891V309.183H715.11V350.909ZM715.11 306.964H762.891V265.237H715.11V306.964ZM715.11 263.019H762.891V221.292H715.11V263.019ZM715.11 219.073H762.891V177.347H715.11V219.073ZM715.11 175.128H762.891V133.401H715.11V175.128ZM715.11 131.183H762.891V89.456H715.11V131.183ZM715.11 87.2374H762.891V45.5107H715.11V87.2374ZM715.11 43.2921H762.891V1.56552H715.11V43.2921ZM715.11 -0.653107H762.891V-42.3797H715.11V-0.653107ZM715.11 -44.5984H762.891V-86.325H715.11V-44.5984ZM715.11 -88.5436H762.891V-130.27H715.11V-88.5436ZM715.11 -132.489H762.891V-174.216H715.11V-132.489ZM765.11 -174.216V-132.489H812.891V-174.216H765.11ZM815.11 -174.216V-132.489H862.891V-174.216H815.11ZM865.11 -174.216V-132.489H912.891V-174.216H865.11ZM915.109 -174.216V-132.489H962.891V-174.216H915.109ZM962.891 -130.27H915.109V-88.5436H962.891V-130.27ZM962.891 -86.325H915.109V-44.5984H962.891V-86.325ZM962.891 -42.3797H915.109V-0.653107H962.891V-42.3797ZM962.891 1.56552H915.109V43.2921H962.891V1.56552ZM962.891 45.5107H915.109V87.2374H962.891V45.5107ZM962.891 89.456H915.109V131.183H962.891V89.456ZM962.891 133.401H915.109V175.128H962.891V133.401ZM962.891 177.347H915.109V219.073H962.891V177.347ZM962.891 221.292H915.109V263.019H962.891V221.292ZM962.891 265.237H915.109V306.964H962.891V265.237ZM962.891 309.183H915.109V350.909H962.891V309.183ZM912.891 350.909V309.183H865.11V350.909H912.891ZM862.891 350.909V309.183H815.11V350.909H862.891ZM812.891 350.909V309.183H765.11V350.909H812.891ZM765.11 306.964H812.891V265.237H765.11V306.964ZM765.11 263.019H812.891V221.292H765.11V263.019ZM765.11 219.073H812.891V177.347H765.11V219.073ZM765.11 175.128H812.891V133.401H765.11V175.128ZM765.11 131.183H812.891V89.456H765.11V131.183ZM765.11 87.2374H812.891V45.5107H765.11V87.2374ZM765.11 43.2921H812.891V1.56552H765.11V43.2921ZM765.11 -0.653107H812.891V-42.3797H765.11V-0.653107ZM765.11 -44.5984H812.891V-86.325H765.11V-44.5984ZM765.11 -88.5436H812.891V-130.27H765.11V-88.5436ZM815.11 -130.27V-88.5436H862.891V-130.27H815.11ZM865.11 -130.27V-88.5436H912.891V-130.27H865.11ZM912.891 -86.325H865.11V-44.5984H912.891V-86.325ZM912.891 -42.3797H865.11V-0.653107H912.891V-42.3797ZM912.891 1.56552H865.11V43.2921H912.891V1.56552ZM912.891 45.5107H865.11V87.2374H912.891V45.5107ZM912.891 89.456H865.11V131.183H912.891V89.456ZM912.891 133.401H865.11V175.128H912.891V133.401ZM912.891 177.347H865.11V219.073H912.891V177.347ZM912.891 221.292H865.11V263.019H912.891V221.292ZM912.891 265.237H865.11V306.964H912.891V265.237ZM862.891 306.964V265.237H815.11V306.964H862.891ZM815.11 263.019H862.891V221.292H815.11V263.019ZM815.11 219.073H862.891V177.347H815.11V219.073ZM815.11 175.128H862.891V133.401H815.11V175.128ZM815.11 131.183H862.891V89.456H815.11V131.183ZM815.11 87.2374H862.891V45.5107H815.11V87.2374ZM815.11 43.2921H862.891V1.56552H815.11V43.2921ZM815.11 -0.653107H862.891V-42.3797H815.11V-0.653107ZM815.11 -44.5984H862.891V-86.325H815.11V-44.5984ZM362.891 570.635V528.909H315.11V570.635H362.891ZM312.891 570.635V528.909H265.11V570.635H312.891ZM262.891 570.635V528.909H215.11V570.635H262.891ZM212.891 570.635V528.909H165.11V570.635H212.891ZM162.891 570.635V528.909H115.11L115.11 570.635H162.891ZM115.11 526.69H162.891L162.891 484.963H115.11V526.69ZM115.11 482.745H162.891V441.018H115.11L115.11 482.745ZM115.11 438.8H162.891V397.073H115.11V438.8ZM115.11 394.854H162.891V353.128H115.11V394.854ZM115.11 350.909H162.891V309.183H115.11L115.11 350.909ZM115.11 306.964H162.891L162.891 265.237H115.11V306.964ZM115.11 263.019H162.891V221.292H115.11L115.11 263.019ZM115.11 219.073H162.891V177.347H115.11V219.073ZM115.11 175.128H162.891L162.891 133.401H115.11L115.11 175.128ZM115.11 131.183H162.891V89.4561H115.11V131.183ZM115.11 87.2374H162.891V45.5108H115.11V87.2374ZM115.11 43.2921H162.891V1.56555H115.11L115.11 43.2921ZM115.11 -0.653076H162.891V-42.3797H115.11V-0.653076ZM115.11 -44.5983H162.891L162.891 -86.3249H115.11L115.11 -44.5983ZM115.11 -88.5435H162.891L162.891 -130.27H115.11V-88.5435ZM115.11 -132.489H162.891V-174.216H115.11L115.11 -132.489ZM115.11 -176.434H162.891V-218.161H115.11V-176.434ZM115.11 -220.38H162.891V-262.106H115.11L115.11 -220.38ZM115.11 -264.325H162.891V-306.051H115.11L115.11 -264.325ZM115.11 -308.27H162.891L162.891 -349.997H115.11V-308.27ZM115.11 -352.215H162.891V-393.943L115.11 -393.943L115.11 -352.215ZM165.11 -393.943V-352.215H212.891V-393.943H165.11ZM215.11 -393.943V-352.215H262.891V-393.943H215.11ZM265.11 -393.943V-352.215H312.891V-393.943L265.11 -393.943ZM315.11 -393.943V-352.215H362.891V-393.943H315.11ZM362.891 -349.997H315.11V-308.27H362.891V-349.997ZM362.891 -306.051H315.11V-264.325H362.891V-306.051ZM362.891 -262.106H315.11V-220.38H362.891V-262.106ZM362.891 -218.161H315.11V-176.434H362.891V-218.161ZM362.891 -174.216H315.11V-132.489H362.891V-174.216ZM362.891 -130.27H315.11V-88.5435H362.891V-130.27ZM362.891 -86.3249H315.11V-44.5983H362.891V-86.3249ZM362.891 -42.3797H315.11V-0.653076H362.891V-42.3797ZM362.891 1.56555H315.11V43.2921H362.891V1.56555ZM362.891 45.5108H315.11V87.2374H362.891V45.5108ZM362.891 89.4561H315.11V131.183H362.891V89.4561ZM362.891 133.401H315.11V175.128H362.891V133.401ZM362.891 177.347H315.11V219.073H362.891V177.347ZM362.891 221.292H315.11V263.019H362.891V221.292ZM362.891 265.237H315.11L315.11 306.964H362.891V265.237ZM362.891 309.183H315.11V350.909H362.891V309.183ZM362.891 353.128H315.11V394.854H362.891V353.128ZM362.891 397.073H315.11V438.8H362.891V397.073ZM362.891 441.018H315.11V482.745H362.891V441.018ZM362.891 484.963H315.11V526.69H362.891V484.963ZM312.891 526.69V484.963H265.11V526.69H312.891ZM262.891 526.69V484.963H215.11V526.69H262.891ZM212.891 526.69V484.963H165.11L165.11 526.69H212.891ZM165.11 482.745H212.891V441.018H165.11V482.745ZM165.11 438.8H212.891V397.073H165.11V438.8ZM165.11 394.854H212.891V353.128H165.11V394.854ZM165.11 350.909H212.891V309.183H165.11V350.909ZM165.11 306.964H212.891L212.891 265.237H165.11L165.11 306.964ZM165.11 263.019H212.891V221.292H165.11V263.019ZM165.11 219.073H212.891V177.347H165.11V219.073ZM165.11 175.128H212.891V133.401H165.11L165.11 175.128ZM165.11 131.183H212.891V89.4561H165.11V131.183ZM165.11 87.2374H212.891V45.5108H165.11V87.2374ZM165.11 43.2921H212.891V1.56555H165.11V43.2921ZM165.11 -0.653076H212.891V-42.3797H165.11V-0.653076ZM165.11 -44.5983H212.891V-86.3249H165.11L165.11 -44.5983ZM165.11 -88.5435H212.891V-130.27H165.11L165.11 -88.5435ZM165.11 -132.489H212.891V-174.216H165.11V-132.489ZM165.11 -176.434H212.891L212.891 -218.161H165.11V-176.434ZM165.11 -220.38H212.891V-262.106H165.11V-220.38ZM165.11 -264.325H212.891V-306.051H165.11V-264.325ZM165.11 -308.27H212.891V-349.997H165.11L165.11 -308.27ZM215.11 -349.997V-308.27H262.891V-349.997H215.11ZM265.11 -349.997V-308.27H312.891V-349.997H265.11ZM312.891 -306.051H265.11V-264.325H312.891V-306.051ZM312.891 -262.106H265.11V-220.38L312.891 -220.38V-262.106ZM312.891 -218.161L265.11 -218.161V-176.434H312.891V-218.161ZM312.891 -174.216H265.11V-132.489H312.891V-174.216ZM312.891 -130.27H265.11V-88.5435H312.891V-130.27ZM312.891 -86.3249H265.11V-44.5983H312.891V-86.3249ZM312.891 -42.3797H265.11V-0.653076H312.891V-42.3797ZM312.891 1.56555H265.11V43.2921H312.891V1.56555ZM312.891 45.5108H265.11V87.2374H312.891V45.5108ZM312.891 89.4561H265.11V131.183H312.891V89.4561ZM312.891 133.401H265.11V175.128H312.891V133.401ZM312.891 177.347H265.11V219.073H312.891V177.347ZM312.891 221.292H265.11V263.019H312.891V221.292ZM312.891 265.237H265.11L265.11 306.964H312.891L312.891 265.237ZM312.891 309.183H265.11V350.909H312.891V309.183ZM312.891 353.128H265.11V394.854H312.891V353.128ZM312.891 397.073H265.11V438.8H312.891V397.073ZM312.891 441.018H265.11V482.745H312.891V441.018ZM262.891 482.745V441.018H215.11V482.745H262.891ZM215.11 438.8H262.891V397.073H215.11V438.8ZM215.11 394.854H262.891V353.128H215.11V394.854ZM215.11 350.909H262.891V309.183H215.11V350.909ZM215.11 306.964H262.891L262.891 265.237H215.11L215.11 306.964ZM215.11 263.019H262.891V221.292H215.11V263.019ZM215.11 219.073H262.891V177.347H215.11V219.073ZM215.11 175.128H262.891V133.401H215.11V175.128ZM215.11 131.183H262.891V89.4561H215.11V131.183ZM215.11 87.2374H262.891V45.5108H215.11V87.2374ZM215.11 43.2921H262.891V1.56555H215.11V43.2921ZM215.11 -0.653076H262.891V-42.3797H215.11V-0.653076ZM215.11 -44.5983H262.891V-86.3249H215.11V-44.5983ZM215.11 -88.5435H262.891V-130.27H215.11V-88.5435ZM215.11 -132.489H262.891V-174.216H215.11V-132.489ZM215.11 -176.434H262.891V-218.161H215.11L215.11 -176.434ZM215.11 -220.38H262.891V-262.106H215.11V-220.38ZM215.11 -264.325H262.891V-306.051H215.11V-264.325Z" fill="url(#paint2_radial_211_450)"/>
<defs>
<linearGradient id="paint0_linear_211_450" x1="893" y1="-60" x2="1200" y2="216" gradientUnits="userSpaceOnUse">
<stop stop-color="white"/>
<stop offset="1" stop-color="white" stop-opacity="0"/>
</linearGradient>
<linearGradient id="paint1_linear_211_450" x1="465.5" y1="439.5" x2="-1.04696e-05" y2="-3.08657e-05" gradientUnits="userSpaceOnUse">
<stop stop-color="white"/>
<stop offset="1" stop-color="white" stop-opacity="0"/>
</linearGradient>
<radialGradient id="paint2_radial_211_450" cx="0" cy="0" r="1" gradientUnits="userSpaceOnUse" gradientTransform="translate(610.5 128.5) rotate(15.1305) scale(342.887 336.19)">
<stop stop-color="white" stop-opacity="0.1"/>
<stop offset="1" stop-color="white" stop-opacity="0"/>
</radialGradient>
</defs>
</svg>
