<svg width="308" height="111" viewBox="0 0 308 111" fill="none" xmlns="http://www.w3.org/2000/svg">
<path d="M88.5408 47.9872L88.5367 30.1594L50.1994 11.0828V11.0776L50.1953 11.0807L50.1901 11.0776V11.0828L11.8529 30.1594L11.8488 47.9872L25.11 47.9851V38.3076L50.1953 25.8108L75.2806 38.3076V47.9851L88.5408 47.9872Z" fill="white"/>
<path d="M75.262 61.7534C75.262 75.2173 63.7209 86.1683 50.1932 86.1683C36.6656 86.1683 25.11 75.2194 25.11 61.7534H11.8488C11.8488 82.8393 29.0128 99.923 50.1932 99.923C71.3737 99.923 88.5377 82.8393 88.5377 61.7534H75.262Z" fill="white"/>
<path opacity="0.8" d="M64.3921 64.2918L59.1801 59.1817C58.1957 58.2076 57.6357 56.8871 57.621 55.5054C57.6063 54.1238 58.1381 52.7918 59.1016 51.7971L64.2568 46.5873C64.4912 46.3504 64.6214 46.0306 64.6189 45.6981C64.6164 45.3656 64.4813 45.0478 64.2434 44.8144L61.1676 41.7989C60.9297 41.5656 60.6083 41.436 60.2743 41.4385C59.9404 41.441 59.621 41.5755 59.3866 41.8123L53.9826 47.278C52.9812 48.1438 51.6895 48.6032 50.3637 48.5651C49.0379 48.527 47.7749 47.9942 46.8254 47.0725L41.601 41.95C41.3629 41.717 41.0416 41.5875 40.7077 41.59C40.3738 41.5925 40.0545 41.7268 39.82 41.9634L36.7927 45.0169C36.5586 45.2539 36.4285 45.5737 36.4311 45.9061C36.4336 46.2385 36.5685 46.5563 36.8061 46.7898L42.1844 52.0623C43.061 53.0024 43.5621 54.2292 43.5932 55.5115C43.6244 56.7938 43.1836 58.0432 42.3537 59.0245L36.9404 64.4964C36.706 64.7333 36.5758 65.0531 36.5783 65.3856C36.5808 65.7181 36.7159 66.0359 36.9538 66.2693L40.0296 69.2848C40.1472 69.4004 40.2867 69.4918 40.4399 69.5537C40.5931 69.6156 40.757 69.6468 40.9223 69.6455C41.0877 69.6443 41.2511 69.6106 41.4034 69.5464C41.5556 69.4822 41.6936 69.3888 41.8096 69.2714L46.972 64.0513C47.9303 63.1043 49.2164 62.5583 50.5664 62.5255C51.9163 62.4926 53.2277 62.9753 54.2314 63.8746L59.6003 69.1347C59.8383 69.3677 60.1594 69.4971 60.4931 69.4946C60.8269 69.4921 61.146 69.3579 61.3803 69.1214L64.4076 66.0606C64.6409 65.8239 64.7703 65.5047 64.7674 65.1731C64.7645 64.8414 64.6295 64.5245 64.3921 64.2918Z" fill="white"/>
<path d="M66.1916 52.0984H58.8765C57.4877 52.0929 56.1569 51.5436 55.1716 50.5693C54.1863 49.5951 53.6257 48.2741 53.6108 46.8917V39.5791C53.6108 39.2465 53.4781 38.9276 53.2418 38.6924C53.0056 38.4573 52.6852 38.3252 52.3511 38.3252H48.0384C47.7044 38.3252 47.384 38.4573 47.1478 38.6924C46.9115 38.9276 46.7788 39.2465 46.7788 39.5791V47.2453C46.6757 48.5616 46.0793 49.7912 45.1079 50.6902C44.1365 51.5892 42.8611 52.0919 41.5348 52.0984H34.2042C33.8704 52.0984 33.5502 52.2304 33.3142 52.4654C33.0782 52.7004 32.9456 53.019 32.9456 53.3513V57.6464C32.9456 57.9787 33.0782 58.2973 33.3142 58.5323C33.5502 58.7673 33.8704 58.8992 34.2042 58.8992H41.7516C43.0391 58.9568 44.2611 59.4809 45.1874 60.3729C46.1137 61.2648 46.6804 62.4631 46.7809 63.7421V71.4217C46.7809 71.7542 46.9136 72.0732 47.1498 72.3083C47.386 72.5435 47.7064 72.6756 48.0405 72.6756H52.3573C52.6914 72.6756 53.0118 72.5435 53.248 72.3083C53.4843 72.0732 53.617 71.7542 53.617 71.4217V64.0957C53.6317 62.7516 54.1629 61.4641 55.1015 60.4977C56.0401 59.5313 57.3148 58.9593 58.6638 58.8992H66.1937C66.359 58.8992 66.5226 58.8668 66.6753 58.8039C66.828 58.7409 66.9668 58.6486 67.0836 58.5323C67.2005 58.416 67.2932 58.2778 67.3565 58.1258C67.4197 57.9738 67.4523 57.8109 67.4523 57.6464V53.3513C67.4523 53.1866 67.4197 53.0235 67.3563 52.8714C67.2929 52.7192 67.2 52.581 67.0829 52.4647C66.9658 52.3483 66.8268 52.2561 66.6739 52.1932C66.521 52.1304 66.3571 52.0982 66.1916 52.0984Z" fill="white"/>
<path d="M125.168 33.5749C125.168 38.7981 121.156 42.4076 116.18 42.4076H108.695V50.4726H103.223V24.7422H116.185C121.234 24.7422 125.168 28.5059 125.168 33.5749ZM115.755 37.2235C117.916 37.2235 119.613 35.8031 119.613 33.5749C119.613 31.4628 117.877 30.0424 115.755 30.0424H108.695V37.2235H115.755Z" fill="white"/>
<path d="M141.718 31.3478H146.888V50.4726H141.718V47.9381H141.525C140.329 49.7049 138.13 51.0102 135.314 51.0482C130.106 51.0482 126.171 46.9782 126.171 40.9482C126.171 35.0344 129.913 30.7331 135.353 30.7732C138.13 30.7732 140.329 32.0785 141.525 33.8072H141.718V31.3478ZM141.718 40.9061C141.718 37.9492 139.596 35.6829 136.588 35.6829C133.54 35.6829 131.418 37.9111 131.418 40.9061C131.418 43.901 133.54 46.1293 136.588 46.1293C139.674 46.1334 141.718 43.752 141.718 40.9061Z" fill="white"/>
<path d="M166.409 31.3477V36.3406H155.992C155.884 36.3348 155.776 36.3517 155.676 36.3901C155.575 36.4286 155.483 36.4877 155.407 36.5638C155.331 36.6398 155.271 36.7309 155.232 36.8313C155.194 36.9317 155.177 37.039 155.183 37.1464C155.182 37.3354 155.247 37.5188 155.366 37.6657C155.486 37.8127 155.653 37.9142 155.838 37.9532L163.052 39.4126C165.943 40.0293 167.802 42.0242 167.802 44.7119C167.802 48.0912 165.063 50.4725 161.552 50.4725H150.433V45.4416H161.471C161.583 45.4472 161.696 45.4291 161.802 45.3887C161.907 45.3482 162.003 45.2862 162.083 45.2066C162.163 45.127 162.225 45.0316 162.266 44.9265C162.307 44.8215 162.325 44.7092 162.319 44.5967C162.323 44.4027 162.26 44.2134 162.14 44.0598C162.021 43.9062 161.853 43.7976 161.664 43.7519L154.333 42.1774C151.555 41.6018 149.626 39.5658 149.626 36.9932C149.626 33.69 152.327 31.3477 155.837 31.3477H166.409Z" fill="white"/>
<path d="M186.157 31.3477V36.3406H175.746C175.638 36.3347 175.53 36.3514 175.429 36.3898C175.328 36.4282 175.236 36.4873 175.16 36.5634C175.083 36.6394 175.024 36.7306 174.985 36.8311C174.946 36.9315 174.929 37.039 174.935 37.1464C174.935 37.3354 175 37.5188 175.119 37.6657C175.238 37.8127 175.405 37.9142 175.591 37.9532L182.805 39.4126C185.696 40.0293 187.554 42.0242 187.554 44.7119C187.554 48.0912 184.815 50.4725 181.305 50.4725H170.19V45.4416H181.223C181.336 45.4472 181.449 45.4291 181.554 45.3887C181.66 45.3482 181.756 45.2862 181.836 45.2066C181.916 45.127 181.978 45.0316 182.019 44.9265C182.059 44.8215 182.077 44.7092 182.072 44.5967C182.075 44.4027 182.012 44.2134 181.893 44.0598C181.774 43.9062 181.606 43.7976 181.416 43.7519L174.086 42.1774C171.308 41.6018 169.378 39.5658 169.378 36.9932C169.378 33.69 172.079 31.3477 175.59 31.3477H186.157Z" fill="white"/>
<path d="M212.241 31.3477H217.642L211.508 50.4725H206.531L202.79 38.2985L199.009 50.4725H194.032L187.898 31.3477H193.299L196.849 43.2915L200.436 31.3477H205.103L208.769 43.2915L212.241 31.3477Z" fill="white"/>
<path d="M217.835 40.9056C217.835 35.222 221.885 30.7676 228.174 30.7676C234.463 30.7676 238.513 35.222 238.513 40.9056C238.513 46.6272 234.424 51.0436 228.174 51.0436C221.925 51.0436 217.835 46.6313 217.835 40.9056ZM233.305 40.9056C233.305 38.0638 231.26 35.7595 228.174 35.7595C225.088 35.7595 223.043 38.0638 223.043 40.9056C223.043 43.7474 225.088 46.0136 228.174 46.0136C231.222 46.0177 233.305 43.7515 233.305 40.9056Z" fill="white"/>
<path d="M254.948 31.3477V36.5318H250.627C248.119 36.5318 246.344 38.2985 246.344 40.9512V50.4756H241.136V31.3477H246.075V34.3436H246.268C246.962 32.4618 248.659 31.3477 250.897 31.3477H254.948Z" fill="white"/>
<path d="M271.497 23H276.667V50.6472H271.497V48.1538H271.343C270.147 49.8826 267.909 51.1878 265.132 51.2259C259.692 51.2259 255.95 46.9637 255.95 41.0509C255.95 35.0209 259.885 30.9118 265.093 30.9509C267.909 30.9509 270.109 32.2942 271.343 34.0609H271.497V23ZM266.366 46.311C269.376 46.311 271.497 44.0448 271.497 41.0879C271.497 38.2461 269.453 35.8647 266.366 35.8647C263.319 35.8647 261.197 38.0929 261.197 41.0879C261.197 44.0828 263.319 46.311 266.366 46.311Z" fill="white"/>
<path d="M130.107 73.2805C130.647 81.6908 125.048 88.1422 116.642 88.1422C108.579 88.1422 103.22 82.1903 103.22 74.7811C103.22 67.4468 108.466 61.3018 116.683 61.3018C123.242 61.3018 128.144 65.2577 129.53 70.7111H123.438C122.358 68.3297 119.888 66.64 116.647 66.7171C111.748 66.7942 108.817 70.4038 108.817 74.705C108.817 79.0443 111.826 82.7309 116.767 82.769C120.393 82.808 123.055 80.9642 124.019 78.1994H116.343V73.2805H130.107Z" fill="white"/>
<path d="M151.942 79.7686H137.436C137.746 81.7214 139.442 83.3781 142.104 83.4932C143.879 83.5703 145.615 82.7635 146.309 81.5353H151.749C150.476 85.7975 146.656 88.1789 142.104 88.1789C135.623 88.1789 132.113 83.4172 132.113 78.0399C132.113 72.3562 136.243 67.9019 142.143 67.9019C148.547 67.9019 152.637 73.0099 151.942 79.7686ZM137.474 75.7366H146.656C146.078 73.7396 144.342 72.5505 142.104 72.5505C139.829 72.5484 138.016 73.8157 137.474 75.7366Z" fill="white"/>
<path d="M173.392 76.5414V87.6013H168.184V77.3102C168.184 74.5445 166.409 73.0089 164.249 73.0089C161.896 73.0089 159.89 74.8137 159.89 77.6936V87.6013H154.681V68.4775H159.735V70.7818H159.932C161.205 69.015 163.365 67.9399 165.757 67.9399C170.421 67.9358 173.392 71.05 173.392 76.5414Z" fill="white"/>
<path d="M195.656 79.7686H181.147C181.456 81.7214 183.153 83.3781 185.814 83.4932C187.588 83.5703 189.325 82.7635 190.019 81.5353H195.459C194.186 85.7975 190.367 88.1789 185.814 88.1789C179.332 88.1789 175.822 83.4172 175.822 78.0399C175.822 72.3562 179.952 67.9019 185.853 67.9019C192.257 67.9019 196.346 73.0099 195.656 79.7686ZM181.189 75.7366H190.371C189.792 73.7396 188.056 72.5505 185.819 72.5505C183.538 72.5484 181.725 73.8157 181.185 75.7366H181.189Z" fill="white"/>
<path d="M212.202 68.478V73.6621H207.881C205.374 73.6621 203.599 75.4289 203.599 78.0816V87.605H198.391V68.478H203.329V71.473H203.522C204.217 69.5911 205.914 68.478 208.151 68.478H212.202Z" fill="white"/>
<path d="M228.752 68.4781H233.921V87.602H228.752V85.0675H228.558C227.363 86.8342 225.164 88.1395 222.348 88.1786C217.14 88.1786 213.204 84.1075 213.204 78.0786C213.204 72.1648 216.947 67.8635 222.386 67.9036C225.164 67.9036 227.363 69.2099 228.558 70.9376H228.752V68.4781ZM228.752 78.0365C228.752 75.0795 226.63 72.8143 223.621 72.8143C220.573 72.8143 218.451 75.0415 218.451 78.0365C218.451 81.0314 220.573 83.2596 223.621 83.2596C226.707 83.2627 228.752 80.8865 228.752 78.0395V78.0365Z" fill="white"/>
<path d="M252.361 73.47H244.454V81.1126C244.454 82.0376 245.073 82.572 245.996 82.572H252.361V87.6019H245.031C241.52 87.6019 239.249 85.4518 239.249 81.9954V73.47H236.543V68.4781H239.243V61.8726H244.452V68.4781H252.359L252.361 73.47Z" fill="white"/>
<path d="M253.905 78.0399C253.905 72.3562 257.955 67.9019 264.244 67.9019C270.533 67.9019 274.582 72.3562 274.582 78.0399C274.582 83.7625 270.494 88.1789 264.244 88.1789C257.994 88.1789 253.905 83.7646 253.905 78.0399ZM269.375 78.0399C269.375 75.1981 267.33 72.8948 264.244 72.8948C261.158 72.8948 259.113 75.1981 259.113 78.0399C259.113 80.8817 261.157 83.1479 264.244 83.1479C267.291 83.1479 269.376 80.8868 269.376 78.0399H269.375Z" fill="white"/>
<path d="M291.018 68.478V73.6621H286.697C284.189 73.6621 282.414 75.4289 282.414 78.0816V87.605H277.206V68.478H282.144V71.473H282.338C283.031 69.5911 284.729 68.478 286.966 68.478H291.018Z" fill="white"/>
</svg>
