<svg width="333" height="48" viewBox="0 0 333 48" fill="none" xmlns="http://www.w3.org/2000/svg">
<path d="M41.5282 19.941L41.5259 10.3092L20.7666 0.00277653V0L20.7638 0.00166575L20.7616 0V0.00277653L0.00223639 10.3092L0 19.941L7.18087 19.9398V14.7114L20.7638 7.95984L34.3473 14.7114V19.9398L41.5282 19.941Z" fill="#0D6376"/>
<path d="M34.34 27.3783C34.34 34.6524 28.0906 40.5688 20.7655 40.5688C13.4404 40.5688 7.18087 34.6535 7.18087 27.3783H0C0 38.7703 9.29309 48 20.7632 48C32.2334 48 41.5265 38.7703 41.5265 27.3783H34.34Z" fill="#0D6376"/>
<path d="M28.4509 28.7498L25.6286 25.989C25.0956 25.4627 24.7923 24.7493 24.7844 24.0028C24.7764 23.2564 25.0644 22.5367 25.5861 21.9994L28.3776 19.1847C28.5045 19.0567 28.5751 18.8839 28.5737 18.7043C28.5723 18.5246 28.4992 18.3529 28.3704 18.2268L26.7049 16.5977C26.576 16.4716 26.402 16.4016 26.2212 16.4029C26.0403 16.4043 25.8674 16.4769 25.7404 16.6049L22.8142 19.5578C22.272 20.0256 21.5725 20.2738 20.8546 20.2532C20.1367 20.2326 19.4528 19.9448 18.9386 19.4468L16.1097 16.6793C15.9807 16.5534 15.8068 16.4834 15.626 16.4848C15.4452 16.4862 15.2723 16.5587 15.1453 16.6865L13.506 18.3362C13.3793 18.4643 13.3088 18.6371 13.3102 18.8166C13.3116 18.9962 13.3846 19.1679 13.5133 19.2941L16.4256 22.1426C16.9002 22.6505 17.1716 23.3133 17.1885 24.0061C17.2053 24.6989 16.9666 25.3739 16.5172 25.904L13.586 28.8603C13.4591 28.9883 13.3886 29.1611 13.3899 29.3407C13.3913 29.5203 13.4644 29.6921 13.5932 29.8182L15.2588 31.4473C15.3225 31.5098 15.398 31.5591 15.4809 31.5926C15.5639 31.626 15.6527 31.6429 15.7422 31.6422C15.8317 31.6416 15.9202 31.6234 16.0027 31.5887C16.0851 31.554 16.1598 31.5035 16.2226 31.4401L19.018 28.6199C19.537 28.1082 20.2334 27.8133 20.9644 27.7955C21.6953 27.7777 22.4055 28.0385 22.9489 28.5244L25.8562 31.3663C25.985 31.4921 26.1589 31.562 26.3396 31.5607C26.5203 31.5593 26.6931 31.4868 26.82 31.359L28.4593 29.7054C28.5856 29.5775 28.6557 29.4051 28.6541 29.2259C28.6525 29.0467 28.5795 28.8755 28.4509 28.7498Z" fill="#FA9EAA"/>
<path d="M29.4252 22.162H25.4641C24.7121 22.159 23.9915 21.8622 23.458 21.3359C22.9245 20.8095 22.6209 20.0958 22.6128 19.349V15.3982C22.6128 15.2186 22.5409 15.0463 22.413 14.9192C22.2851 14.7922 22.1116 14.7208 21.9307 14.7208H19.5954C19.4145 14.7208 19.241 14.7922 19.1131 14.9192C18.9852 15.0463 18.9133 15.2186 18.9133 15.3982V19.54C18.8575 20.2512 18.5346 20.9155 18.0086 21.4012C17.4826 21.8869 16.7919 22.1585 16.0737 22.162H12.1043C11.9235 22.162 11.7502 22.2333 11.6223 22.3603C11.4945 22.4872 11.4227 22.6594 11.4227 22.8389V25.1594C11.4227 25.3389 11.4945 25.5111 11.6223 25.638C11.7502 25.7649 11.9235 25.8362 12.1043 25.8362H16.1912C16.8883 25.8673 17.55 26.1505 18.0516 26.6324C18.5532 27.1143 18.86 27.7617 18.9144 28.4527V32.6017C18.9144 32.7814 18.9863 32.9537 19.1142 33.0807C19.2421 33.2077 19.4156 33.2791 19.5965 33.2791H21.9341C22.115 33.2791 22.2884 33.2077 22.4164 33.0807C22.5443 32.9537 22.6161 32.7814 22.6161 32.6017V28.6437C22.6241 27.9175 22.9118 27.222 23.42 26.6998C23.9282 26.1777 24.6185 25.8687 25.3489 25.8362H29.4263C29.5158 25.8362 29.6045 25.8187 29.6871 25.7847C29.7698 25.7507 29.845 25.7008 29.9082 25.638C29.9715 25.5751 30.0217 25.5005 30.056 25.4184C30.0902 25.3363 30.1079 25.2483 30.1079 25.1594V22.8389C30.1079 22.7499 30.0902 22.6618 30.0559 22.5796C30.0216 22.4974 29.9713 22.4227 29.9079 22.3599C29.8444 22.297 29.7692 22.2472 29.6864 22.2132C29.6036 22.1793 29.5148 22.1619 29.4252 22.162Z" fill="#F65167"/>
<path d="M69.9843 21.4589C69.9843 25.4086 66.9756 28.1382 63.2438 28.1382H57.6315V34.2369H53.5281V14.7796H63.2477C67.0337 14.7796 69.9843 17.6257 69.9843 21.4589ZM62.9256 24.218C64.5461 24.218 65.8181 23.1439 65.8181 21.4589C65.8181 19.8618 64.5167 18.7877 62.9256 18.7877H57.6315V24.218H62.9256Z" fill="#111111"/>
<path d="M82.3945 19.7746H86.2711V34.2368H82.3945V32.3202H82.2497C81.3532 33.6562 79.7041 34.6433 77.592 34.672C73.6868 34.672 70.7362 31.5943 70.7362 27.0345C70.7362 22.5625 73.542 19.3099 77.6214 19.3402C79.7041 19.3402 81.3532 20.3272 82.2497 21.6345H82.3945V19.7746ZM82.3945 27.0026C82.3945 24.7666 80.8035 23.0529 78.5474 23.0529C76.2619 23.0529 74.6708 24.7378 74.6708 27.0026C74.6708 29.2674 76.2619 30.9523 78.5474 30.9523C80.8615 30.9555 82.3945 29.1547 82.3945 27.0026Z" fill="#111111"/>
<path d="M100.909 19.7747V23.5503H93.0981C93.0172 23.546 92.9364 23.5587 92.8607 23.5878C92.7851 23.6169 92.7165 23.6616 92.6592 23.7191C92.6019 23.7766 92.5574 23.8455 92.5284 23.9214C92.4995 23.9973 92.4867 24.0785 92.4911 24.1597C92.4907 24.3026 92.5394 24.4413 92.6289 24.5524C92.7185 24.6635 92.8434 24.7403 92.9827 24.7698L98.3923 25.8734C100.56 26.3397 101.954 27.8483 101.954 29.8806C101.954 32.4361 99.8997 34.2369 97.2673 34.2369H88.9297V30.4325H97.2061C97.2908 30.4367 97.3755 30.4231 97.4546 30.3924C97.5337 30.3618 97.6056 30.3149 97.6655 30.2547C97.7255 30.1946 97.7722 30.1224 97.8027 30.043C97.8332 29.9636 97.8468 29.8786 97.8426 29.7936C97.8451 29.6469 97.7978 29.5037 97.7084 29.3876C97.6191 29.2714 97.493 29.1893 97.3509 29.1547L91.8539 27.9641C89.7705 27.5288 88.3242 25.9892 88.3242 24.0439C88.3242 21.5459 90.3496 19.7747 92.982 19.7747H100.909Z" fill="#111111"/>
<path d="M115.718 19.7747V23.5503H107.911C107.83 23.5458 107.749 23.5585 107.673 23.5876C107.597 23.6166 107.529 23.6613 107.471 23.7188C107.414 23.7763 107.369 23.8452 107.34 23.9212C107.311 23.9972 107.299 24.0784 107.303 24.1597C107.303 24.3026 107.351 24.4413 107.441 24.5524C107.53 24.6635 107.655 24.7403 107.795 24.7698L113.204 25.8734C115.372 26.3397 116.766 27.8483 116.766 29.8806C116.766 32.4361 114.712 34.2369 112.079 34.2369H103.745V30.4325H112.018C112.103 30.4367 112.187 30.4231 112.266 30.3924C112.346 30.3618 112.417 30.3149 112.477 30.2547C112.537 30.1946 112.584 30.1224 112.615 30.043C112.645 29.9636 112.659 29.8786 112.654 29.7936C112.657 29.6469 112.61 29.5037 112.52 29.3876C112.431 29.2714 112.305 29.1893 112.163 29.1547L106.666 27.9641C104.583 27.5288 103.136 25.9892 103.136 24.0439C103.136 21.5459 105.161 19.7747 107.794 19.7747H115.718Z" fill="#111111"/>
<path d="M135.277 19.7747H139.327L134.728 34.2369H130.996L128.19 25.0309L125.355 34.2369H121.623L117.023 19.7747H121.073L123.735 28.8065L126.425 19.7747H129.925L132.674 28.8065L135.277 19.7747Z" fill="#111111"/>
<path d="M139.472 27.0027C139.472 22.7048 142.51 19.3364 147.225 19.3364C151.941 19.3364 154.978 22.7048 154.978 27.0027C154.978 31.3294 151.912 34.669 147.225 34.669C142.539 34.669 139.472 31.3325 139.472 27.0027ZM151.073 27.0027C151.073 24.8537 149.54 23.1113 147.225 23.1113C144.911 23.1113 143.377 24.8537 143.377 27.0027C143.377 29.1517 144.911 30.8654 147.225 30.8654C149.511 30.8685 151.073 29.1548 151.073 27.0027Z" fill="#111111"/>
<path d="M167.302 19.7747V23.6949H164.061C162.181 23.6949 160.85 25.0309 160.85 27.0369V34.2392H156.945V19.7747H160.648V22.0402H160.793C161.313 20.6172 162.586 19.7747 164.264 19.7747H167.302Z" fill="#111111"/>
<path d="M179.712 13.3279H183.588V34.2346H179.712V32.3491H179.596C178.699 33.6563 177.021 34.6434 174.939 34.6721C170.859 34.6721 168.053 31.4491 168.053 26.9778C168.053 22.418 171.004 19.3107 174.909 19.3403C177.021 19.3403 178.67 20.3561 179.596 21.6921H179.712V13.3279ZM175.864 30.9556C178.121 30.9556 179.712 29.2418 179.712 27.0058C179.712 24.8569 178.179 23.0561 175.864 23.0561C173.579 23.0561 171.988 24.7411 171.988 27.0058C171.988 29.2706 173.579 30.9556 175.864 30.9556Z" fill="#111111"/>
<path d="M211.827 23.4066C212.234 29.7664 208.019 34.6449 201.692 34.6449C195.623 34.6449 191.588 30.1441 191.588 24.5413C191.588 18.9952 195.537 14.3483 201.723 14.3483C206.66 14.3483 210.35 17.3397 211.393 21.4636H206.807C205.994 19.6628 204.135 18.3851 201.696 18.4434C198.008 18.5017 195.801 21.2312 195.801 24.4838C195.801 27.7651 198.066 30.5529 201.786 30.5817C204.515 30.6112 206.519 29.2169 207.245 27.1263H201.466V23.4066H211.827Z" fill="#111111"/>
<path d="M228.263 28.3123H217.344C217.578 29.789 218.855 31.0418 220.858 31.1289C222.194 31.1872 223.501 30.577 224.024 29.6483H228.118C227.16 32.8713 224.285 34.6721 220.858 34.6721C215.98 34.6721 213.337 31.0713 213.337 27.005C213.337 22.7071 216.446 19.3387 220.888 19.3387C225.708 19.3387 228.786 23.2014 228.263 28.3123ZM217.373 25.2633H224.285C223.85 23.7532 222.542 22.854 220.858 22.854C219.145 22.8524 217.78 23.8107 217.373 25.2633Z" fill="#111111"/>
<path d="M244.41 25.8726V34.2361H240.49V26.454C240.49 24.3625 239.154 23.2014 237.528 23.2014C235.757 23.2014 234.247 24.5662 234.247 26.7439V34.2361H230.326V19.7747H234.13V21.5172H234.279C235.237 20.1812 236.863 19.3682 238.664 19.3682C242.174 19.3651 244.41 21.72 244.41 25.8726Z" fill="#111111"/>
<path d="M261.169 28.3123H250.247C250.48 29.789 251.757 31.0418 253.761 31.1289C255.096 31.1872 256.403 30.577 256.926 29.6483H261.021C260.062 32.8713 257.188 34.6721 253.761 34.6721C248.882 34.6721 246.239 31.0713 246.239 27.005C246.239 22.7071 249.348 19.3387 253.79 19.3387C258.611 19.3387 261.688 23.2014 261.169 28.3123ZM250.279 25.2633H257.191C256.755 23.7532 255.448 22.854 253.764 22.854C252.047 22.8524 250.682 23.8107 250.276 25.2633H250.279Z" fill="#111111"/>
<path d="M273.624 19.7748V23.695H270.371C268.484 23.695 267.148 25.031 267.148 27.037V34.2385H263.228V19.7748H266.945V22.0396H267.09C267.613 20.6165 268.891 19.7748 270.575 19.7748H273.624Z" fill="#111111"/>
<path d="M286.082 19.7748H289.974V34.2361H286.082V32.3196H285.937C285.037 33.6556 283.381 34.6426 281.262 34.6722C277.342 34.6722 274.379 31.5937 274.379 27.0346C274.379 22.5626 277.196 19.31 281.291 19.3403C283.381 19.3403 285.037 20.3281 285.937 21.6346H286.082V19.7748ZM286.082 27.0027C286.082 24.7667 284.485 23.0538 282.22 23.0538C279.926 23.0538 278.329 24.738 278.329 27.0027C278.329 29.2675 279.926 30.9525 282.22 30.9525C284.543 30.9548 286.082 29.1579 286.082 27.0051V27.0027Z" fill="#111111"/>
<path d="M303.854 23.5496H297.902V29.3289C297.902 30.0284 298.368 30.4325 299.063 30.4325H303.854V34.2362H298.336C295.694 34.2362 293.984 32.6102 293.984 29.9965V23.5496H291.947V19.7748H293.979V14.7797H297.9V19.7748H303.853L303.854 23.5496Z" fill="#111111"/>
<path d="M305.016 27.005C305.016 22.7071 308.065 19.3387 312.799 19.3387C317.533 19.3387 320.581 22.7071 320.581 27.005C320.581 31.3325 317.504 34.6721 312.799 34.6721C308.095 34.6721 305.016 31.334 305.016 27.005ZM316.661 27.005C316.661 24.8561 315.122 23.1144 312.799 23.1144C310.476 23.1144 308.936 24.8561 308.936 27.005C308.936 29.154 310.475 30.8677 312.799 30.8677C315.093 30.8677 316.662 29.1579 316.662 27.005H316.661Z" fill="#111111"/>
<path d="M332.952 19.7748V23.695H329.7C327.812 23.695 326.476 25.031 326.476 27.037V34.2385H322.556V19.7748H326.273V22.0396H326.418C326.941 20.6165 328.218 19.7748 329.903 19.7748H332.952Z" fill="#111111"/>
</svg>
