<svg width="48" height="48" viewBox="0 0 48 48" fill="none" xmlns="http://www.w3.org/2000/svg">
<path d="M29.6666 25.275V31.225C29.6666 36.1833 27.6833 38.1667 22.7249 38.1667H16.7749C11.8166 38.1667 9.83325 36.1833 9.83325 31.225V25.275C9.83325 20.3167 11.8166 18.3333 16.7749 18.3333H22.7249C27.6833 18.3333 29.6666 20.3167 29.6666 25.275Z" stroke="#292D32" stroke-width="2" stroke-linecap="round" stroke-linejoin="round"/>
<path d="M38.1666 16.775V22.725C38.1666 27.6833 36.1833 29.6667 31.2249 29.6667H29.6666V25.275C29.6666 20.3167 27.6833 18.3333 22.7249 18.3333H18.3333V16.775C18.3333 11.8167 20.3166 9.83334 25.2749 9.83334H31.2249C36.1833 9.83334 38.1666 11.8167 38.1666 16.775Z" stroke="#292D32" stroke-width="2" stroke-linecap="round" stroke-linejoin="round"/>
</svg>
