<svg width="32" height="32" viewBox="0 0 32 32" fill="none" xmlns="http://www.w3.org/2000/svg">
<circle cx="16" cy="16" r="16" fill="#8DA2A5"/>
<g clip-path="url(#clip0_83_749)">
<path d="M16.003 12.4063C14.0155 12.4063 12.4124 14.0095 12.4124 15.997C12.4124 17.9845 14.0155 19.5876 16.003 19.5876C17.9905 19.5876 19.5937 17.9845 19.5937 15.997C19.5937 14.0095 17.9905 12.4063 16.003 12.4063ZM16.003 18.3313C14.7187 18.3313 13.6687 17.2845 13.6687 15.997C13.6687 14.7095 14.7155 13.6626 16.003 13.6626C17.2905 13.6626 18.3374 14.7095 18.3374 15.997C18.3374 17.2845 17.2874 18.3313 16.003 18.3313ZM20.578 12.2595C20.578 12.7251 20.203 13.097 19.7405 13.097C19.2749 13.097 18.903 12.722 18.903 12.2595C18.903 11.797 19.278 11.422 19.7405 11.422C20.203 11.422 20.578 11.797 20.578 12.2595ZM22.9562 13.1095C22.903 11.9876 22.6468 10.9938 21.8249 10.1751C21.0062 9.35635 20.0124 9.1001 18.8905 9.04385C17.7343 8.97822 14.2687 8.97822 13.1124 9.04385C11.9937 9.09697 10.9999 9.35322 10.178 10.172C9.35615 10.9907 9.10303 11.9845 9.04678 13.1063C8.98115 14.2626 8.98115 17.7282 9.04678 18.8845C9.0999 20.0063 9.35615 21.0001 10.178 21.8188C10.9999 22.6376 11.9905 22.8938 13.1124 22.9501C14.2687 23.0157 17.7343 23.0157 18.8905 22.9501C20.0124 22.897 21.0062 22.6407 21.8249 21.8188C22.6437 21.0001 22.8999 20.0063 22.9562 18.8845C23.0218 17.7282 23.0218 14.2657 22.9562 13.1095ZM21.4624 20.1251C21.2187 20.7376 20.7468 21.2095 20.1312 21.4563C19.2093 21.822 17.0218 21.7376 16.003 21.7376C14.9843 21.7376 12.7937 21.8188 11.8749 21.4563C11.2624 21.2126 10.7905 20.7407 10.5437 20.1251C10.178 19.2032 10.2624 17.0157 10.2624 15.997C10.2624 14.9782 10.1812 12.7876 10.5437 11.8688C10.7874 11.2563 11.2593 10.7845 11.8749 10.5376C12.7968 10.172 14.9843 10.2563 16.003 10.2563C17.0218 10.2563 19.2124 10.1751 20.1312 10.5376C20.7437 10.7813 21.2155 11.2532 21.4624 11.8688C21.828 12.7907 21.7437 14.9782 21.7437 15.997C21.7437 17.0157 21.828 19.2063 21.4624 20.1251Z" fill="#09363F"/>
</g>
<defs>
<clipPath id="clip0_83_749">
<rect width="14" height="16" fill="white" transform="translate(9 8)"/>
</clipPath>
</defs>
</svg>
