<svg width="32" height="32" viewBox="0 0 32 32" fill="none" xmlns="http://www.w3.org/2000/svg">
<path d="M15.9998 29.3333C23.3636 29.3333 29.3332 23.3638 29.3332 16C29.3332 8.63621 23.3636 2.66667 15.9998 2.66667C8.63604 2.66667 2.6665 8.63621 2.6665 16C2.6665 23.3638 8.63604 29.3333 15.9998 29.3333Z" fill="#F65167"/>
<path d="M14.1064 20.7733C13.8398 20.7733 13.5864 20.6667 13.3998 20.48L9.62643 16.7067C9.23976 16.32 9.23976 15.68 9.62643 15.2933C10.0131 14.9067 10.6531 14.9067 11.0398 15.2933L14.1064 18.36L20.9598 11.5067C21.3464 11.12 21.9864 11.12 22.3731 11.5067C22.7598 11.8933 22.7598 12.5333 22.3731 12.92L14.8131 20.48C14.6264 20.6667 14.3731 20.7733 14.1064 20.7733Z" fill="white"/>
</svg>
